<svg width="264" height="70" viewBox="0 0 264 70" fill="none" xmlns="http://www.w3.org/2000/svg">
<path d="M64.8544 24.5105V20.9023H43.7969V26.6058L48.9873 25.9102V22.4499H51.2652V48.1327H57.5338V22.4499H59.6639V25.2147L64.8544 24.5105Z" fill="#818182"/>
<path d="M119.873 32.8656H116.804V20.9023H110.535V48.1327H116.804V35.2392H119.873V48.1327H126.133V20.9371L119.873 20.9023V32.8656Z" fill="#818182"/>
<path d="M158.673 28.7023C158.255 28.9631 157.803 29.2326 157.447 29.5195C157.056 29.7968 156.716 30.1377 156.438 30.5281V21.9816H159.464V28.2763L158.673 28.7023ZM158.942 30.5715C159.481 30.2594 160.049 30.0002 160.638 29.7978L165.619 28.0589C165.648 28.0511 165.673 28.034 165.69 28.0103C165.707 27.9866 165.716 27.9578 165.715 27.9285V20.834H150.152V48.0644H165.715V37.3531L160.655 35.6751C160.055 35.4732 159.473 35.2201 158.916 34.9187L157.829 34.1883C157.509 33.9507 157.217 33.6765 156.96 33.3711L156.743 33.0755C156.672 32.9722 156.614 32.8614 156.569 32.7451C156.789 32.2611 157.131 31.842 157.56 31.5279C158.038 31.1454 158.899 30.5715 158.899 30.5715M157.386 35.9794C157.784 36.2728 158.199 36.5428 158.629 36.7879L159.403 37.2227V46.9689H156.377V34.9274C156.632 35.3478 156.977 35.707 157.386 35.9794Z" fill="#818182"/>
<path d="M144.321 22.8502C142.652 21.3374 140.687 20.9375 138.157 20.9375C135.627 20.9375 133.653 21.3374 131.984 22.8502C130.802 23.9196 130.062 25.0064 130.062 28.2059V40.83C130.062 44.0207 130.802 45.1162 131.984 46.1856C133.653 47.6897 135.609 48.0897 138.157 48.0897C140.704 48.0897 142.652 47.6897 144.321 46.1856C145.504 45.1162 146.243 44.0207 146.243 40.83V28.2059C146.243 25.0064 145.504 23.9196 144.321 22.8502ZM140.017 28.2059V45.4901C140.012 45.6181 139.982 45.744 139.929 45.8604C139.875 45.9767 139.799 46.0813 139.704 46.1682C139.607 46.2757 139.487 46.3609 139.354 46.418C139.22 46.475 139.076 46.5025 138.931 46.4986H137.366C137.219 46.5015 137.074 46.4736 136.939 46.4166C136.805 46.3597 136.683 46.2751 136.583 46.1682C136.398 45.9897 136.289 45.7468 136.279 45.4901V23.5371C136.292 23.2834 136.4 23.044 136.583 22.8676C136.681 22.7578 136.802 22.6707 136.937 22.6121C137.072 22.5536 137.218 22.5251 137.366 22.5286H138.922C139.068 22.5246 139.213 22.5529 139.347 22.6115C139.481 22.6701 139.6 22.7576 139.696 22.8676C139.884 23.041 139.996 23.2815 140.009 23.5371L140.017 28.2059Z" fill="#818182"/>
<path d="M93.8961 20.9023V22.8064H100.33V24.1627C100.323 24.6194 100.21 25.0682 100 25.474C99.7906 25.8798 99.4898 26.2315 99.1213 26.5014C98.7873 26.7561 98.4291 26.9774 98.052 27.1622C97.5732 27.4112 97.0762 27.6234 96.5652 27.7969C95.9208 27.9972 95.2606 28.1427 94.5916 28.2316C93.3831 28.3968 92.2094 28.5272 90.9922 28.5881V48.0893H96.7217V38.5256H100.286V48.0893H106.555V20.9023H93.8961ZM100.33 36.126H96.7652V29.7183C97.4906 29.4284 98.1963 29.0915 98.8779 28.7098C99.4484 28.3935 99.9437 27.9575 100.33 27.4317V36.126Z" fill="#818182"/>
<path d="M26.173 19.9551V22.2591H33.9978V23.9023C33.9918 24.457 33.8567 25.0027 33.6031 25.4962C33.3496 25.9897 32.9847 26.4173 32.5372 26.7453C32.135 27.0547 31.7007 27.3199 31.2418 27.5365C30.6623 27.8459 30.0573 28.1048 29.4334 28.3103C28.6537 28.5595 27.8536 28.7399 27.0424 28.8493C25.5818 29.0406 24.1646 29.1971 22.6953 29.2753V66.1737H29.6507V46.5595H33.9978V66.1737H41.6053V19.9551H26.173ZM33.9978 44.2034H29.6507V30.649C30.5316 30.2971 31.3884 29.8876 32.2155 29.4231C32.8999 29.0349 33.4929 28.5041 33.9544 27.8669L33.9978 44.2034Z" fill="#818182"/>
<path d="M184.314 34.0492C184.027 33.6664 183.68 33.3318 183.288 33.0581C182.956 32.8007 182.607 32.5655 182.245 32.3539L181.445 31.8931L181.288 31.8061V21.1035H174.959V33.232C176.185 33.3103 177.411 33.345 178.636 33.4754C179.121 33.517 179.6 33.5984 180.071 33.7189C180.554 33.8399 181.021 34.018 181.462 34.2492L182.114 34.6318C182.82 35.0572 183.439 35.6117 183.94 36.2663C184.188 36.6611 184.309 37.1222 184.288 37.5878V45.7952C184.289 45.9272 184.264 46.0582 184.214 46.1805C184.164 46.3028 184.091 46.414 183.998 46.5078C183.905 46.6016 183.794 46.676 183.673 46.7268C183.551 46.7776 183.42 46.8037 183.288 46.8037H182.323C182.176 46.8078 182.029 46.7795 181.894 46.721C181.759 46.6624 181.638 46.5749 181.54 46.4646C181.445 46.3764 181.369 46.2704 181.315 46.1525C181.262 46.0346 181.232 45.9073 181.227 45.7778V39.5962H174.941V41.2742C174.941 44.4998 175.68 45.6213 176.872 46.682C178.567 48.2122 180.541 48.6121 183.105 48.6121H184.314C185.993 48.6121 187.602 47.9453 188.789 46.7583C189.976 45.5713 190.643 43.9614 190.643 42.2827V21.1035H184.314V34.0492Z" fill="#818182"/>
<path d="M193.676 21.2422H209.282V24.1026L203.066 27.4064V22.7985H200.023V48.5247H193.676V22.7985V21.2422Z" fill="#818182"/>
<path d="M209.248 23.6844V21.25C207.7 21.3294 206.228 21.9441 205.084 22.9889C204.084 23.9452 203.414 24.9103 203.258 27.2838L209.266 24.093L209.248 23.6844Z" fill="#818182"/>
<path d="M217.057 22.9713C215.892 21.9252 214.404 21.3113 212.84 21.2324V46.2023C212.828 46.4638 212.72 46.7115 212.536 46.8978C212.443 47.007 212.327 47.0941 212.196 47.1527C212.065 47.2114 211.923 47.2402 211.78 47.2369H210.267C210.124 47.2402 209.981 47.2114 209.85 47.1527C209.72 47.0941 209.603 47.007 209.51 46.8978C209.328 46.7111 209.223 46.463 209.215 46.2023V27.7618L203.129 30.9613V41.3944C203.129 44.6721 203.842 45.785 204.998 46.8892C206.615 48.4367 208.476 48.8454 210.988 48.8454C213.501 48.8454 215.336 48.4367 216.988 46.8892C218.135 45.785 218.848 44.6721 218.848 41.3944V28.44C218.918 25.1883 218.222 24.0754 217.057 22.9713Z" fill="#818182"/>
<path d="M80.7919 20.9023V23.6932C80.7747 23.7959 80.7425 23.8955 80.6963 23.9888C80.6268 24.1279 80.5485 24.267 80.4615 24.4148C80.3746 24.5626 80.279 24.693 80.1833 24.8234C80.1195 24.9094 80.0615 24.9994 80.0095 25.093C79.3255 25.8545 78.5716 26.5502 77.7576 27.1709V20.9023H68.5852V22.8064H71.4978V23.8932V24.1627C71.4907 24.6194 71.3779 25.0682 71.1682 25.474C70.9586 25.8798 70.6577 26.2315 70.2893 26.5014C69.9566 26.758 69.5982 26.9795 69.2199 27.1622C68.7404 27.4097 68.2435 27.6218 67.7331 27.7969C67.089 27.9982 66.4287 28.1436 65.7596 28.2316C64.5511 28.3968 63.386 28.5272 62.1602 28.5881V48.0893H67.8897V29.7183C68.6158 29.43 69.3216 29.093 70.0024 28.7098C70.5772 28.3961 71.0759 27.9598 71.463 27.4317V48.0893H77.7229V29.414C78.2988 28.9971 78.8476 28.5441 79.3661 28.0577C79.8961 27.5754 80.3609 27.0259 80.7485 26.4232V48.1588H87.017V20.9023H80.7919Z" fill="#818182"/>
<path d="M226.77 20.5898V22.8938H234.595L234.638 24.5457C234.63 25.0987 234.493 25.6423 234.24 26.1339C233.987 26.6255 233.623 27.052 233.178 27.3801C232.776 27.6922 232.342 27.9604 231.882 28.1799C231.3 28.4821 230.695 28.7408 230.074 28.9537C229.293 29.196 228.493 29.3734 227.683 29.484C226.222 29.6753 224.805 29.8318 223.336 29.9101V66.7998H230.291V31.2838C231.171 30.9313 232.027 30.5248 232.856 30.0666C233.539 29.6728 234.132 29.1395 234.595 28.5016V66.7998H242.202V20.5898H226.77Z" fill="#818182"/>
<path d="M50.3203 57.6621H51.8418L54.8674 61.4093L57.893 57.6621H59.4058V66.2173H57.6322V60.5138L54.8674 63.9046L52.1026 60.5138V66.2173H50.3203V57.6621Z" fill="#818182"/>
<path d="M69.4692 64.7917C69.2279 65.1066 68.9337 65.3773 68.5997 65.5915C67.78 66.1312 66.8162 66.41 65.835 66.3914C64.6544 66.4029 63.5176 65.945 62.6746 65.1183C61.8316 64.2917 61.3516 63.164 61.3401 61.9834C61.3285 60.8028 61.7864 59.666 62.6131 58.823C63.4398 57.9801 64.5674 57.5 65.748 57.4885C66.3021 57.4704 66.854 57.5661 67.3696 57.7699C67.8852 57.9736 68.3535 58.281 68.7455 58.673C69.1375 59.065 69.4449 59.5333 69.6486 60.0489C69.8524 60.5644 69.9481 61.1164 69.93 61.6704C69.926 61.8858 69.9086 62.1006 69.8778 62.3138V62.5659H63.2876C63.4002 63.1842 63.7322 63.741 64.2226 64.1339C64.713 64.5269 65.3288 64.7296 65.9567 64.7047C66.6059 64.6981 67.2385 64.4984 67.7738 64.1309C68.0286 63.9729 68.2573 63.7764 68.4519 63.5484L69.4692 64.7917ZM68.0433 61.0531C67.963 60.5003 67.6838 59.9957 67.258 59.634C66.8323 59.2722 66.2892 59.0782 65.7306 59.0882C65.1504 59.0716 64.5829 59.2592 64.1268 59.6183C63.6708 59.9774 63.3553 60.4852 63.2354 61.0531H68.0433Z" fill="#818182"/>
<path d="M79.4507 64.6095C79.1785 64.9374 78.8659 65.2295 78.5204 65.4789C77.7294 66.0519 76.7758 66.3566 75.7991 66.3483C74.6185 66.3483 73.4863 65.8793 72.6515 65.0445C71.8167 64.2097 71.3477 63.0775 71.3477 61.8969C71.3477 60.7163 71.8167 59.584 72.6515 58.7492C73.4863 57.9144 74.6185 57.4454 75.7991 57.4454C76.7648 57.4391 77.7068 57.744 78.4857 58.3148C78.8119 58.5657 79.1042 58.858 79.3551 59.1843L78.1031 60.3493C77.9427 60.1265 77.7457 59.9326 77.5206 59.7755C77.0187 59.3982 76.4095 59.1911 75.7817 59.1843C75.0484 59.1843 74.3452 59.4755 73.8267 59.994C73.3082 60.5125 73.0169 61.2158 73.0169 61.9491C73.0169 62.6823 73.3082 63.3855 73.8267 63.904C74.3452 64.4225 75.0484 64.7138 75.7817 64.7138C76.4162 64.7122 77.0306 64.491 77.5206 64.0878C77.7552 63.904 77.9682 63.694 78.1553 63.4618L79.4507 64.6095Z" fill="#818182"/>
<path d="M83.2004 59.3586H80.2617V57.6719H87.9214V59.3586H84.9827V66.2183H83.2004V59.3586Z" fill="#818182"/>
<path d="M93.2602 57.4884C94.1406 57.4884 95.0012 57.7495 95.7332 58.2386C96.4653 58.7277 97.0358 59.423 97.3728 60.2364C97.7097 61.0498 97.7979 61.9448 97.6261 62.8083C97.4543 63.6718 97.0304 64.465 96.4078 65.0875C95.7853 65.7101 94.9921 66.134 94.1286 66.3058C93.2651 66.4775 92.3701 66.3894 91.5567 66.0525C90.7433 65.7156 90.0481 65.145 89.5589 64.413C89.0698 63.6809 88.8087 62.8203 88.8087 61.9399C88.8041 61.354 88.916 60.7731 89.1381 60.2309C89.3602 59.6887 89.6879 59.1962 90.1022 58.7819C90.5165 58.3676 91.009 58.0399 91.5512 57.8178C92.0934 57.5958 92.6743 57.4838 93.2602 57.4884ZM95.938 61.9399C95.9209 61.4143 95.7495 60.9053 95.4451 60.4766C95.1406 60.0478 94.7167 59.7181 94.2261 59.5287C93.7356 59.3393 93.2001 59.2985 92.6865 59.4115C92.1729 59.5244 91.7039 59.7861 91.338 60.1638C90.9722 60.5415 90.7257 61.0186 90.6292 61.5355C90.5327 62.0525 90.5906 62.5864 90.7956 63.0706C91.0005 63.5549 91.3436 63.9681 91.7819 64.2587C92.2202 64.5493 92.7343 64.7044 93.2602 64.7046C93.6221 64.715 93.9822 64.6498 94.3175 64.5134C94.6529 64.3769 94.9562 64.1721 95.2081 63.9121C95.4599 63.652 95.6549 63.3423 95.7806 63.0028C95.9063 62.6633 95.9598 62.3013 95.938 61.9399Z" fill="#818182"/>
<path d="M103.457 57.6629H105.196V58.9149C105.386 58.6401 105.621 58.3992 105.891 58.2019C106.543 57.7232 107.335 57.4726 108.143 57.489C109.241 57.608 110.256 58.1283 110.993 58.9499C111.73 59.7715 112.138 60.8365 112.138 61.9405C112.138 63.0445 111.73 64.1095 110.993 64.9311C110.256 65.7527 109.241 66.273 108.143 66.3919C107.335 66.4084 106.543 66.1578 105.891 65.679C105.621 65.4818 105.386 65.2408 105.196 64.9661V69.9566H103.457V57.6629ZM110.412 61.9405C110.382 61.4324 110.203 60.9444 109.899 60.5365C109.594 60.1287 109.177 59.8188 108.699 59.6452C108.22 59.4715 107.701 59.4417 107.206 59.5593C106.711 59.6769 106.261 59.9369 105.912 60.3071C105.562 60.6774 105.329 61.1417 105.24 61.643C105.152 62.1442 105.212 62.6604 105.413 63.1279C105.614 63.5955 105.948 63.994 106.373 64.2742C106.798 64.5545 107.295 64.7043 107.804 64.7053C108.16 64.7059 108.513 64.6336 108.84 64.4929C109.167 64.3521 109.462 64.1459 109.706 63.8868C109.95 63.6278 110.139 63.3215 110.261 62.9868C110.382 62.652 110.434 62.296 110.412 61.9405Z" fill="#818182"/>
<path d="M113.578 67.9998C113.676 68.0543 113.777 68.1009 113.882 68.1389C114.127 68.2288 114.387 68.273 114.647 68.2693C114.99 68.2595 115.321 68.1415 115.593 67.9322C115.865 67.723 116.063 67.4332 116.16 67.1043L116.517 66.2348L113.039 57.6797H115.004L117.404 64.0091L119.812 57.6797H121.768L118.03 67.2434C117.317 69.0431 116.291 69.9994 114.908 69.9994C114.585 70.0056 114.263 69.9646 113.952 69.8777L113.578 69.7386V67.9998Z" fill="#818182"/>
<path d="M130.767 64.6095C130.5 64.9392 130.19 65.2316 129.845 65.4789C129.051 66.0515 128.095 66.356 127.116 66.3483C125.935 66.3483 124.803 65.8793 123.968 65.0445C123.133 64.2097 122.664 63.0775 122.664 61.8969C122.664 60.7163 123.133 59.584 123.968 58.7492C124.803 57.9144 125.935 57.4454 127.116 57.4454C128.084 57.4391 129.029 57.7439 129.811 58.3148C130.139 58.5629 130.432 58.8555 130.68 59.1843L129.437 60.3493C129.273 60.1264 129.073 59.9324 128.846 59.7755C128.344 59.3972 127.735 59.1899 127.107 59.1843C126.374 59.1843 125.67 59.4755 125.152 59.994C124.633 60.5125 124.342 61.2158 124.342 61.9491C124.342 62.6823 124.633 63.3855 125.152 63.904C125.67 64.4225 126.374 64.7138 127.107 64.7138C127.742 64.7137 128.356 64.4923 128.846 64.0878C129.083 63.9041 129.299 63.6941 129.489 63.4618L130.767 64.6095Z" fill="#818182"/>
<path d="M139.861 64.6095C139.589 64.9373 139.276 65.2295 138.931 65.4789C138.139 66.0502 137.186 66.3547 136.209 66.3483C135.029 66.3483 133.896 65.8793 133.062 65.0445C132.227 64.2097 131.758 63.0774 131.758 61.8968C131.758 60.7162 132.227 59.584 133.062 58.7492C133.896 57.9144 135.029 57.4454 136.209 57.4454C137.175 57.4403 138.116 57.745 138.896 58.3148C139.225 58.5628 139.517 58.8554 139.765 59.1842L138.522 60.3493C138.361 60.1243 138.16 59.9299 137.931 59.7755C137.431 59.3949 136.82 59.1874 136.192 59.1842C135.459 59.1842 134.755 59.4755 134.237 59.994C133.718 60.5125 133.427 61.2158 133.427 61.949C133.427 62.6823 133.718 63.3855 134.237 63.904C134.755 64.4225 135.459 64.7138 136.192 64.7138C136.827 64.7158 137.443 64.4942 137.931 64.0878C138.17 63.9065 138.386 63.6962 138.574 63.4618L139.861 64.6095Z" fill="#818182"/>
<path d="M141.555 57.6621H143.337V61.5832L146.989 57.6621H149.214L145.919 61.1398L149.484 66.2173H147.432L144.763 62.3831L143.337 63.9046V66.2173H141.555V57.6621Z" fill="#818182"/>
<path d="M154.467 57.4884C155.348 57.4884 156.208 57.7495 156.94 58.2386C157.672 58.7277 158.243 59.423 158.58 60.2364C158.917 61.0498 159.005 61.9448 158.833 62.8083C158.661 63.6718 158.237 64.465 157.615 65.0875C156.992 65.7101 156.199 66.134 155.336 66.3058C154.472 66.4775 153.577 66.3894 152.764 66.0525C151.95 65.7156 151.255 65.145 150.766 64.413C150.277 63.6809 150.016 62.8203 150.016 61.9399C150.011 61.354 150.123 60.7731 150.345 60.2309C150.567 59.6887 150.895 59.1962 151.309 58.7819C151.724 58.3676 152.216 58.0399 152.758 57.8178C153.3 57.5958 153.881 57.4838 154.467 57.4884ZM157.145 61.9399C157.128 61.4143 156.957 60.9053 156.652 60.4766C156.348 60.0478 155.924 59.7181 155.433 59.5287C154.943 59.3393 154.407 59.2985 153.894 59.4115C153.38 59.5244 152.911 59.7861 152.545 60.1638C152.179 60.5415 151.933 61.0186 151.836 61.5355C151.74 62.0525 151.798 62.5864 152.003 63.0706C152.208 63.5549 152.551 63.9681 152.989 64.2587C153.427 64.5493 153.941 64.7044 154.467 64.7046C154.829 64.715 155.189 64.6498 155.525 64.5134C155.86 64.3769 156.163 64.1721 156.415 63.9121C156.667 63.652 156.862 63.3423 156.988 63.0028C157.113 62.6633 157.167 62.3013 157.145 61.9399Z" fill="#818182"/>
<path d="M160.885 57.6613H162.667V63.3648L167.127 57.6613H168.727V66.2165H166.927V60.513L162.476 66.2165H160.867L160.885 57.6613ZM163.562 53.7402C163.562 54.07 163.693 54.3862 163.927 54.6193C164.16 54.8525 164.476 54.9835 164.806 54.9835C165.135 54.9835 165.452 54.8525 165.685 54.6193C165.918 54.3862 166.049 54.07 166.049 53.7402H167.388C167.299 54.362 166.989 54.9309 166.515 55.3424C166.041 55.754 165.434 55.9806 164.806 55.9806C164.178 55.9806 163.571 55.754 163.096 55.3424C162.622 54.9309 162.312 54.362 162.223 53.7402H163.562Z" fill="#818182"/>
<path d="M182.576 64.6095C182.309 64.9392 181.999 65.2316 181.654 65.4789C180.86 66.0515 179.903 66.356 178.924 66.3483C177.744 66.3483 176.611 65.8793 175.776 65.0445C174.942 64.2097 174.473 63.0775 174.473 61.8969C174.473 60.7163 174.942 59.584 175.776 58.7492C176.611 57.9144 177.744 57.4454 178.924 57.4454C179.892 57.4391 180.837 57.7439 181.619 58.3148C181.948 58.5629 182.241 58.8555 182.489 59.1843L181.245 60.3493C181.082 60.1264 180.882 59.9324 180.654 59.7755C180.153 59.3972 179.543 59.1899 178.915 59.1843C178.182 59.1843 177.479 59.4755 176.96 59.994C176.442 60.5125 176.151 61.2158 176.151 61.9491C176.151 62.6823 176.442 63.3855 176.96 63.904C177.479 64.4225 178.182 64.7138 178.915 64.7138C179.55 64.7137 180.165 64.4923 180.654 64.0878C180.892 63.9041 181.108 63.6941 181.298 63.4618L182.576 64.6095Z" fill="#818182"/>
<path d="M184.227 57.6621H186.009V63.3655L190.469 57.6621H192.069V66.2173H190.286V60.5138L185.835 66.2173H184.227V57.6621Z" fill="#818182"/>
<path d="M193.227 64.5219L193.444 64.5741C193.579 64.5985 193.715 64.613 193.853 64.6175C194.835 64.6175 195.452 63.9915 195.452 60.1574V57.6621H202.043V66.2173H200.304V59.3575H197.269V60.1574C197.269 65.1479 196.026 66.3911 194.331 66.3911C194.073 66.3931 193.816 66.3639 193.566 66.3042C193.461 66.288 193.359 66.2588 193.261 66.2173L193.227 64.5219Z" fill="#818182"/>
<path d="M204.547 57.6621H206.285V60.34H208.068C210.137 60.34 211.363 61.5832 211.363 63.2786C211.363 64.974 210.137 66.2172 208.068 66.2172H204.512L204.547 57.6621ZM208.102 64.6175C209.102 64.6175 209.624 64.0785 209.624 63.2786C209.624 62.4787 209.102 61.9397 208.102 61.9397H206.32V64.6175H208.102ZM212.65 57.6621H214.388V66.2172H212.65V57.6621Z" fill="#818182"/>
<path d="M24.2717 1.5152H21.5156V0.132812H28.471V1.5152H25.7149V9.31394H24.2717V1.5152Z" fill="#818182"/>
<path d="M29.6422 7.94025C29.7141 7.97188 29.7903 7.9924 29.8683 8.0011C30.0526 8.05 30.2428 8.0734 30.4334 8.07066C30.8126 8.09045 31.1879 7.98558 31.5019 7.77207C31.8158 7.55856 32.0513 7.24815 32.1723 6.88824L32.3722 6.497L28.8945 0.132812H30.3986L33.033 5.07114L35.3283 0.150191H36.8324L33.4243 7.29687C32.7548 8.67925 31.981 9.46174 30.6073 9.46174C30.3667 9.46705 30.1266 9.43776 29.8944 9.37479L29.6162 9.27047L29.6422 7.94025Z" fill="#818182"/>
<path d="M38.25 0.131301H41.9189C42.32 0.109524 42.7214 0.169721 43.0984 0.308221C43.4755 0.446721 43.8204 0.660618 44.112 0.936848C44.4037 1.21308 44.6359 1.54584 44.7947 1.91483C44.9534 2.28383 45.0353 2.6813 45.0353 3.08299C45.0353 3.48468 44.9534 3.88215 44.7947 4.25115C44.6359 4.62014 44.4037 4.95291 44.112 5.22914C43.8204 5.50537 43.4755 5.71927 43.0984 5.85777C42.7214 5.99627 42.32 6.05647 41.9189 6.03469H39.6932V9.31243H38.25V0.131301ZM41.9189 4.72186C42.1442 4.73828 42.3705 4.70809 42.5835 4.63317C42.7966 4.55824 42.9919 4.4402 43.1573 4.28641C43.3227 4.13262 43.4547 3.94639 43.5449 3.73933C43.6351 3.53227 43.6816 3.30884 43.6816 3.08299C43.6816 2.85714 43.6351 2.6337 43.5449 2.42665C43.4547 2.21959 43.3227 2.03336 43.1573 1.87957C42.9919 1.72578 42.7966 1.60775 42.5835 1.53283C42.3705 1.45791 42.1442 1.42771 41.9189 1.44413H39.6932V4.72186H41.9189Z" fill="#818182"/>
<path d="M46.9023 0.132812H48.3456V6.88825L53.397 0.132812H54.7098V9.31394H53.2665V2.55851L48.2152 9.31394H46.9023V0.132812Z" fill="#818182"/>
<path d="M65.4045 7.60911C65.1209 7.95692 64.7936 8.26667 64.4307 8.5307C63.6058 9.12619 62.6138 9.44571 61.5964 9.4436C60.8548 9.43508 60.1256 9.25196 59.468 8.90909C58.8104 8.56621 58.2428 8.07323 57.8113 7.47008C57.3797 6.86694 57.0963 6.17062 56.9841 5.43753C56.8718 4.70444 56.9338 3.95521 57.1651 3.25057C57.3964 2.54592 57.7905 1.90568 58.3154 1.38173C58.8403 0.857783 59.4812 0.464859 60.1863 0.234814C60.8913 0.00476829 61.6407 -0.0559344 62.3736 0.0576281C63.1065 0.171191 63.8023 0.455828 64.4047 0.888461C64.7504 1.13765 65.063 1.42981 65.335 1.75789L64.4655 2.62731C64.2716 2.36537 64.0367 2.13639 63.7699 1.94916C63.1561 1.48865 62.4072 1.2441 61.6399 1.25362C60.736 1.25362 59.8691 1.6127 59.2299 2.25185C58.5908 2.891 58.2317 3.75787 58.2317 4.66176C58.2317 5.56566 58.5908 6.43254 59.2299 7.07169C59.8691 7.71085 60.736 8.06991 61.6399 8.06991C62.4192 8.07775 63.1785 7.82362 63.7961 7.34828C64.0787 7.15097 64.3257 6.90694 64.5263 6.62666L65.4045 7.60911Z" fill="#818182"/>
<path d="M68.8186 1.5152H66.0625V0.132812H73.0179V1.5152H70.2618V9.31394H68.8186V1.5152Z" fill="#818182"/>
<path d="M74.5938 0.132812H76.037V6.88825L81.0884 0.132812H82.4012V9.31394H80.9579V2.55851L75.9066 9.31394H74.5938V0.132812Z" fill="#818182"/>
<path d="M90.4597 5.64497C90.248 5.77446 90.0237 5.88223 89.7903 5.96665C89.2548 6.18509 88.6819 6.2973 88.1036 6.29703C86.1213 6.29703 84.8867 5.07984 84.8867 2.88889V0.132812H86.3299V2.88889C86.306 3.16207 86.3423 3.43715 86.4361 3.69483C86.5299 3.95252 86.679 4.18654 86.8729 4.38044C87.0668 4.57434 87.3008 4.72343 87.5585 4.81722C87.8161 4.91101 88.0912 4.94724 88.3644 4.92334C88.8968 4.91764 89.4195 4.78024 89.8859 4.5234C90.0941 4.4197 90.2871 4.28807 90.4597 4.13216V0.132812H91.903V9.31394H90.4597V5.64497Z" fill="#818182"/>
<path d="M94.5352 0.132812H101.03V1.5152H95.9784V3.87134H99.9778V5.25373H95.9784V7.94025H101.16V9.31394H94.5352V0.132812Z" fill="#818182"/>
<path d="M110.865 7.60911C110.584 7.95702 110.26 8.26684 109.899 8.5307C109.074 9.12459 108.082 9.44394 107.065 9.4436C106.324 9.43508 105.594 9.25196 104.937 8.90909C104.279 8.56621 103.712 8.07322 103.28 7.47008C102.848 6.86694 102.565 6.17062 102.453 5.43753C102.341 4.70444 102.403 3.95521 102.634 3.25057C102.865 2.54592 103.259 1.90568 103.784 1.38173C104.309 0.857783 104.95 0.464859 105.655 0.234814C106.36 0.00476829 107.109 -0.0559344 107.842 0.0576281C108.575 0.171191 109.271 0.455828 109.873 0.888461C110.217 1.13992 110.53 1.43183 110.804 1.75789L109.882 2.62731C109.69 2.36337 109.455 2.13403 109.187 1.94916C108.575 1.49048 107.83 1.24602 107.065 1.25362C106.161 1.25362 105.294 1.6127 104.655 2.25185C104.016 2.891 103.657 3.75787 103.657 4.66176C103.657 5.56566 104.016 6.43254 104.655 7.07169C105.294 7.71084 106.161 8.06991 107.065 8.06991C107.841 8.0758 108.597 7.82177 109.213 7.34828C109.496 7.14889 109.746 6.90524 109.952 6.62666L110.865 7.60911Z" fill="#818182"/>
<path d="M112.578 0.132812H114.021V4.59296L118.151 0.132812H119.994L116.447 3.94089L120.255 9.31394H118.482L115.465 4.9842L114.021 6.56656V9.31394H112.578V0.132812Z" fill="#818182"/>
<path d="M125.567 0.0017986C126.494 0.0291345 127.393 0.329082 128.151 0.864166C128.909 1.39925 129.492 2.14576 129.828 3.01045C130.164 3.87515 130.238 4.81969 130.041 5.72612C129.843 6.63255 129.383 7.46068 128.717 8.10708C128.052 8.75347 127.211 9.18949 126.299 9.36066C125.387 9.53183 124.445 9.43056 123.591 9.06951C122.736 8.70847 122.007 8.10364 121.494 7.33058C120.981 6.55752 120.707 5.65049 120.707 4.72278C120.708 4.09128 120.835 3.46635 121.082 2.88486C121.328 2.30337 121.688 1.7771 122.141 1.33709C122.594 0.897073 123.131 0.552232 123.719 0.322898C124.307 0.0935639 124.936 -0.0156149 125.567 0.0017986ZM125.567 8.13093C126.241 8.12921 126.899 7.92787 127.458 7.55233C128.018 7.17679 128.453 6.64391 128.71 6.02101C128.966 5.3981 129.032 4.71311 128.9 4.05257C128.767 3.39202 128.442 2.78557 127.965 2.3098C127.488 1.83403 126.881 1.5103 126.22 1.3795C125.559 1.2487 124.874 1.31669 124.252 1.5749C123.63 1.83311 123.098 2.26994 122.724 2.83022C122.35 3.39049 122.15 4.04909 122.15 4.72278C122.147 5.17206 122.233 5.61752 122.403 6.03316C122.574 6.4488 122.826 6.82628 123.144 7.14357C123.462 7.46085 123.84 7.71158 124.256 7.88111C124.672 8.05064 125.118 8.13556 125.567 8.13093Z" fill="#818182"/>
<path d="M132.453 0.132812H138.948V1.5152H133.896V3.87134H137.904V5.25373H133.896V7.94025H139.078V9.31394H132.453V0.132812Z" fill="#818182"/>
<path d="M151.807 7.60911C151.523 7.95692 151.196 8.26667 150.833 8.5307C150.008 9.12619 149.016 9.44571 147.999 9.4436C147.257 9.43508 146.528 9.25196 145.87 8.90909C145.213 8.56621 144.645 8.07323 144.214 7.47008C143.782 6.86694 143.499 6.17062 143.386 5.43753C143.274 4.70444 143.336 3.95521 143.567 3.25057C143.799 2.54592 144.193 1.90568 144.718 1.38173C145.243 0.857783 145.884 0.464859 146.589 0.234814C147.294 0.00476829 148.043 -0.0559344 148.776 0.0576281C149.509 0.171191 150.205 0.455828 150.807 0.888461C151.153 1.13765 151.465 1.42981 151.737 1.75789L150.868 2.62731C150.674 2.36537 150.439 2.13639 150.172 1.94916C149.558 1.48865 148.81 1.2441 148.042 1.25362C147.138 1.25362 146.271 1.6127 145.632 2.25185C144.993 2.891 144.634 3.75787 144.634 4.66176C144.634 5.56566 144.993 6.43254 145.632 7.07169C146.271 7.71085 147.138 8.06991 148.042 8.06991C148.822 8.07775 149.581 7.82362 150.198 7.34828C150.481 7.15097 150.728 6.90694 150.929 6.62666L151.807 7.60911Z" fill="#818182"/>
<path d="M157.512 0.0013489C158.439 0.0269868 159.339 0.325505 160.098 0.859591C160.857 1.39368 161.442 2.13963 161.779 3.00422C162.116 3.86881 162.192 4.81367 161.995 5.7207C161.798 6.62772 161.339 7.45668 160.674 8.10394C160.008 8.75119 159.167 9.18804 158.255 9.35988C157.343 9.53172 156.401 9.43092 155.546 9.07009C154.691 8.70925 153.961 8.10439 153.448 7.3311C152.934 6.55782 152.661 5.65043 152.66 4.72234C152.662 4.09192 152.79 3.46827 153.036 2.88791C153.283 2.30756 153.642 1.78216 154.094 1.3425C154.546 0.902843 155.081 0.557768 155.668 0.327476C156.254 0.0971842 156.881 -0.0136922 157.512 0.0013489ZM157.512 8.13048C158.186 8.13048 158.845 7.93059 159.405 7.5561C159.965 7.18161 160.402 6.64932 160.66 6.02657C160.918 5.40381 160.986 4.71855 160.854 4.05744C160.723 3.39632 160.398 2.78904 159.921 2.3124C159.445 1.83577 158.838 1.51118 158.176 1.37967C157.515 1.24817 156.83 1.31566 156.207 1.57361C155.585 1.83157 155.052 2.2684 154.678 2.82886C154.303 3.38933 154.103 4.04827 154.103 4.72234C154.101 5.17054 154.188 5.61476 154.358 6.0293C154.529 6.44383 154.78 6.82045 155.096 7.13739C155.413 7.45432 155.79 7.70528 156.205 7.87574C156.619 8.0462 157.063 8.13278 157.512 8.13048Z" fill="#818182"/>
<path d="M168.664 0.0013489C169.592 0.0269868 170.491 0.325505 171.25 0.859591C172.009 1.39368 172.594 2.13963 172.931 3.00422C173.269 3.86881 173.344 4.81367 173.147 5.7207C172.951 6.62772 172.491 7.45668 171.826 8.10394C171.161 8.75119 170.32 9.18804 169.408 9.35988C168.496 9.53172 167.553 9.43092 166.698 9.07009C165.843 8.70925 165.113 8.10439 164.6 7.3311C164.087 6.55782 163.813 5.65043 163.812 4.72234C163.815 4.09192 163.943 3.46827 164.189 2.88791C164.435 2.30756 164.794 1.78216 165.246 1.3425C165.698 0.902843 166.233 0.557768 166.82 0.327476C167.407 0.0971842 168.034 -0.0136922 168.664 0.0013489ZM168.664 8.13048C169.338 8.13048 169.997 7.93059 170.557 7.5561C171.118 7.18161 171.555 6.64932 171.813 6.02657C172.071 5.40381 172.138 4.71855 172.007 4.05744C171.875 3.39632 171.55 2.78904 171.074 2.3124C170.597 1.83577 169.99 1.51118 169.329 1.37967C168.668 1.24817 167.982 1.31566 167.36 1.57361C166.737 1.83157 166.205 2.2684 165.83 2.82886C165.456 3.38933 165.256 4.04827 165.256 4.72234C165.253 5.17054 165.34 5.61476 165.51 6.0293C165.681 6.44383 165.932 6.82045 166.249 7.13739C166.566 7.45432 166.942 7.70528 167.357 7.87574C167.771 8.0462 168.216 8.13278 168.664 8.13048Z" fill="#818182"/>
<path d="M175.559 0.132812H181.592V1.50649H177.002V3.67137H179.358C179.742 3.65006 180.126 3.70723 180.486 3.83939C180.847 3.97154 181.177 4.17591 181.457 4.43998C181.736 4.70405 181.958 5.0223 182.11 5.37523C182.262 5.72817 182.34 6.10839 182.34 6.49265C182.34 6.87691 182.262 7.25714 182.11 7.61007C181.958 7.96301 181.736 8.28125 181.457 8.54533C181.177 8.8094 180.847 9.01375 180.486 9.14591C180.126 9.27807 179.742 9.33525 179.358 9.31394H175.559V0.132812ZM179.358 8.0011C179.566 8.01688 179.774 7.9896 179.971 7.92094C180.168 7.85229 180.348 7.74376 180.501 7.60214C180.654 7.46053 180.776 7.28888 180.859 7.09797C180.942 6.90705 180.985 6.70097 180.985 6.49265C180.985 6.28433 180.942 6.07826 180.859 5.88734C180.776 5.69642 180.654 5.52478 180.501 5.38317C180.348 5.24155 180.168 5.13301 179.971 5.06436C179.774 4.99571 179.566 4.96841 179.358 4.98419H177.002V8.0011H179.358Z" fill="#818182"/>
<path d="M184.289 0.132812H185.732V7.94025H189.08V0.132812H190.523V7.94025H193.861V0.132812H195.305V7.94025H196.426V11.2875H194.983V9.31394H184.289V0.132812Z" fill="#818182"/>
<path d="M198.059 0.132812H204.553V1.5152H199.502V3.87134H203.51V5.25373H199.502V7.94025H204.684V9.31394H198.059V0.132812Z" fill="#818182"/>
<path d="M214.397 7.60911C214.113 7.95692 213.786 8.26667 213.423 8.5307C212.598 9.12619 211.606 9.44571 210.589 9.4436C209.847 9.43508 209.118 9.25196 208.46 8.90909C207.803 8.56621 207.235 8.07323 206.803 7.47008C206.372 6.86694 206.089 6.17062 205.976 5.43753C205.864 4.70444 205.926 3.95521 206.157 3.25057C206.389 2.54592 206.783 1.90568 207.308 1.38173C207.832 0.857783 208.473 0.464859 209.178 0.234814C209.884 0.00476829 210.633 -0.0559344 211.366 0.0576281C212.099 0.171191 212.794 0.455828 213.397 0.888461C213.743 1.13765 214.055 1.42981 214.327 1.75789L213.458 2.62731C213.261 2.36745 213.027 2.1388 212.762 1.94916C212.148 1.48865 211.399 1.2441 210.632 1.25362C209.728 1.25362 208.861 1.6127 208.222 2.25185C207.583 2.891 207.224 3.75787 207.224 4.66176C207.224 5.56566 207.583 6.43254 208.222 7.07169C208.861 7.71085 209.728 8.06991 210.632 8.06991C211.411 8.07775 212.171 7.82362 212.788 7.34828C213.069 7.14863 213.316 6.90495 213.519 6.62666L214.397 7.60911Z" fill="#818182"/>
<path d="M217.806 1.5152H215.059V0.132812H222.005V1.5152H219.249V9.31394H217.806V1.5152Z" fill="#818182"/>
<path d="M223.578 0.133067H227.256C227.597 0.105883 227.941 0.147565 228.266 0.255661C228.59 0.363758 228.89 0.536057 229.148 0.762318C229.405 0.988579 229.614 1.26419 229.762 1.57279C229.911 1.88139 229.996 2.21668 230.012 2.55876C230.017 3.09223 229.814 3.60677 229.447 3.9933C229.288 4.15992 229.099 4.29553 228.89 4.39324C229.182 4.51213 229.45 4.68298 229.682 4.89751C229.936 5.10922 230.139 5.3755 230.276 5.67655C230.413 5.97761 230.48 6.30569 230.473 6.63636C230.454 7.01263 230.36 7.38138 230.197 7.72106C230.034 8.06074 229.805 8.36453 229.524 8.61467C229.242 8.86481 228.913 9.05628 228.557 9.17788C228.2 9.29948 227.823 9.34877 227.447 9.32288H223.578V0.133067ZM227.256 3.87158C227.428 3.886 227.602 3.86446 227.766 3.8083C227.93 3.75215 228.08 3.66262 228.208 3.54536C228.335 3.4281 228.437 3.28567 228.506 3.12708C228.576 2.96848 228.612 2.79716 228.612 2.62396C228.612 2.45076 228.576 2.27946 228.506 2.12086C228.437 1.96226 228.335 1.81983 228.208 1.70257C228.08 1.58531 227.93 1.49577 227.766 1.43962C227.602 1.38347 227.428 1.36192 227.256 1.37634H225.021V3.87158H227.256ZM227.447 8.07091C227.655 8.08669 227.864 8.05941 228.06 7.99075C228.257 7.9221 228.437 7.81357 228.59 7.67195C228.743 7.53033 228.865 7.35869 228.948 7.16777C229.031 6.97686 229.074 6.77078 229.074 6.56246C229.074 6.35414 229.031 6.14807 228.948 5.95715C228.865 5.76623 228.743 5.59459 228.59 5.45298C228.437 5.31136 228.257 5.20282 228.06 5.13417C227.864 5.06552 227.655 5.03822 227.447 5.054H225.021V8.07091H227.447Z" fill="#818182"/>
<path d="M236.765 0.00156672C237.693 0.0272047 238.593 0.325722 239.352 0.859808C240.111 1.39389 240.696 2.13985 241.033 3.00444C241.37 3.86902 241.445 4.81389 241.249 5.72091C241.052 6.62794 240.593 7.45689 239.927 8.10415C239.262 8.75141 238.421 9.18826 237.509 9.36009C236.597 9.53193 235.655 9.43114 234.8 9.0703C233.944 8.70947 233.215 8.1046 232.702 7.33132C232.188 6.55804 231.914 5.65064 231.914 4.72255C231.915 4.0918 232.042 3.4676 232.288 2.8867C232.534 2.3058 232.893 1.77993 233.345 1.34004C233.797 0.900144 234.333 0.555117 234.92 0.325253C235.507 0.0953888 236.135 -0.0146666 236.765 0.00156672ZM236.765 8.1307C237.44 8.1307 238.098 7.93081 238.659 7.55632C239.219 7.18183 239.656 6.64954 239.914 6.02678C240.172 5.40403 240.24 4.71877 240.108 4.05766C239.977 3.39654 239.652 2.78926 239.175 2.31262C238.699 1.83598 238.091 1.51139 237.43 1.37989C236.769 1.24839 236.084 1.31588 235.461 1.57383C234.838 1.83179 234.306 2.26862 233.932 2.82908C233.557 3.38955 233.357 4.04849 233.357 4.72255C233.354 5.17109 233.44 5.61582 233.61 6.03088C233.78 6.44595 234.031 6.82305 234.348 7.14022C234.665 7.45739 235.042 7.70829 235.457 7.87833C235.872 8.04838 236.317 8.13417 236.765 8.1307Z" fill="#818182"/>
<path d="M4.94329 39.4384L0 42.2832L2.84481 47.2265L7.7881 44.3817L4.94329 39.4384Z" fill="#818182"/>
<path d="M260.545 39.4599L255.602 42.3047L258.446 47.248L263.39 44.4032L260.545 39.4599Z" fill="#818182"/>
</svg>
