<svg width="179" height="40" viewBox="0 0 179 40" fill="none" xmlns="http://www.w3.org/2000/svg">
<path d="M13.3823 15.4823C13.2205 14.6734 12.8161 13.177 12.1771 11.1226C11.6361 9.33823 10.9685 7.59478 10.1793 5.90551C8.71525 2.91278 8.40789 1.68333 8.40789 1.15758C8.39644 1.01221 8.39644 0.866169 8.40789 0.720802C8.43583 0.626151 8.44307 0.526593 8.42912 0.428895C8.41516 0.331197 8.38033 0.237649 8.327 0.154609C8.2759 0.101972 8.21403 0.0609904 8.14563 0.0344669C8.07722 0.00794339 8.0039 -0.00349705 7.93067 0.000927648C7.79142 0.00351807 7.65296 0.0225226 7.51816 0.0575471C7.20257 0.135991 6.89196 0.233226 6.58798 0.348732C6.1242 0.497606 5.68325 0.709919 5.27765 0.979633C5.06879 1.09488 4.8907 1.25865 4.75838 1.45713C4.62606 1.65561 4.54339 1.88299 4.51733 2.12011C4.51324 2.56032 4.58436 2.998 4.72763 3.41426C4.8971 3.91928 5.09698 4.41358 5.32618 4.89445C4.13742 5.80785 3.12354 6.92859 2.33345 8.20264C1.68663 9.20961 1.17535 10.2974 0.812813 11.438C0.570159 12.3197 0.359858 13.2498 0.19 14.2043C0.051332 15.0217 -0.0109482 15.8503 0.00396559 16.6794C-0.0130773 17.2559 0.0248402 17.8328 0.117204 18.4022C0.157647 18.6287 0.287062 19.3162 0.796636 19.3647H0.926051C1.63684 19.326 2.33515 19.1617 2.98861 18.8794C4.19076 18.4081 5.35145 17.8373 6.45857 17.1727C7.3944 16.6266 8.2402 15.939 8.96599 15.1345C8.96599 15.2881 9.04688 15.4823 9.1035 15.733L9.4513 17.2536C9.53473 17.828 9.65907 18.3956 9.82337 18.9522C9.97705 19.3405 10.519 19.3971 10.98 19.3971C11.459 19.3806 11.9368 19.3401 12.4117 19.2758C12.8528 19.2203 13.2903 19.1393 13.722 19.0331C13.9566 18.9684 14.5713 18.8147 14.5309 18.4022C14.5309 18.2647 14.4742 18.1515 14.0941 17.6823C13.7065 17.0064 13.4641 16.2571 13.3823 15.4823ZM7.62331 12.8859C7.15241 13.6668 6.59036 14.3891 5.94899 15.0374C5.39432 15.6301 4.75022 16.1323 4.04011 16.5257L3.94305 16.5661C3.94305 16.5661 3.75702 16.4367 3.75702 15.5065C3.75702 15.1021 3.82172 14.358 3.94305 13.3469L3.99158 12.8212C4.31512 9.82033 5.04308 7.69306 6.16738 6.48788L6.53945 7.29673C6.91152 8.17028 7.21888 8.91442 7.46154 9.4887C7.7208 10.1405 7.9396 10.8078 8.1167 11.4866C8.15715 11.6726 8.14097 12.0123 7.62331 12.8859Z" fill="#818182"/>
<path d="M27.618 0.347656H17.9846L16.8765 0.396187C16.1556 0.438496 15.4391 0.535842 14.733 0.687372C14.4499 0.75208 13.5683 0.946203 13.5683 1.5771C13.6182 2.40734 13.7927 3.22534 14.086 4.00365C14.4176 4.99853 14.7249 5.83164 14.9919 6.48681C15.0428 6.62915 15.1358 6.75261 15.2587 6.84075C15.3815 6.92889 15.5282 6.97753 15.6794 6.9802C15.8735 6.9802 16.3346 6.89932 16.3669 6.17135C16.4969 4.82828 16.8725 3.5205 17.475 2.31315H18.7207C18.8827 2.70343 18.9889 3.1146 19.0361 3.53451C19.1229 4.21846 19.1607 4.90773 19.1493 5.59707C19.1493 6.40592 19.1493 7.8942 19.0361 9.89205V10.4016C18.9714 12.1487 18.9229 13.2892 18.9148 13.7988L18.8582 14.8584C18.8096 16.015 18.7854 16.832 18.7854 17.2202C18.7854 18.8379 19.0038 19.5012 19.5376 19.5254H19.9905C20.783 19.5215 21.5736 19.4457 22.3524 19.2989C23.1612 19.1534 23.4848 18.9997 23.5818 18.7408C23.605 18.6723 23.6098 18.5988 23.5956 18.5278C23.5814 18.4568 23.5487 18.3908 23.5009 18.3364C23.1737 17.8938 22.9825 17.3654 22.9509 16.8158C22.8355 15.8954 22.7734 14.969 22.7649 14.0414C22.7649 12.8551 22.7838 11.1592 22.8215 8.95379C22.8593 6.74833 22.8835 5.40025 22.8943 4.90955C22.9428 4.10071 22.9752 3.38892 22.9752 2.84699C22.9752 2.62861 22.9752 2.45066 22.9752 2.29698H24.1399C24.9087 3.45012 25.3682 4.78145 25.4745 6.16327C25.4815 6.37471 25.5551 6.57855 25.6848 6.74564C25.7447 6.82132 25.8209 6.88247 25.9077 6.92449C25.9946 6.96652 26.0898 6.98833 26.1863 6.98829C26.3395 6.98551 26.4883 6.936 26.6126 6.84638C26.7369 6.75675 26.8309 6.6313 26.8819 6.48681C27.2343 5.62684 27.5341 4.74628 27.7797 3.84996C28.0855 2.86342 28.2595 1.84083 28.2974 0.808699C28.2974 0.606487 28.1761 0.347656 27.618 0.347656Z" fill="#818182"/>
<path d="M49.6186 15.5887C49.5354 15.1779 49.4813 14.7616 49.4568 14.3431C49.1899 12.5556 48.9473 10.9864 48.7289 9.69225C48.541 8.51274 48.2707 7.34785 47.92 6.20611C47.7502 5.62374 47.4185 4.58842 46.9332 3.10823C46.7134 2.56926 46.5534 2.00779 46.456 1.43392C46.4351 1.25388 46.4351 1.07203 46.456 0.89199C46.4917 0.709745 46.4719 0.521003 46.3994 0.350062C46.27 0.164027 46.0678 0.0993193 45.5905 0.204469C45.2561 0.275196 44.9265 0.36705 44.6038 0.479477C44.14 0.628352 43.699 0.840664 43.2934 1.11038C43.0828 1.22345 42.9033 1.38664 42.7707 1.58554C42.6381 1.78445 42.5565 2.01294 42.5331 2.25085C42.5213 2.64545 42.5621 3.03985 42.6544 3.42368C42.7434 3.77957 42.8647 4.23253 43.0346 4.72592C41.977 5.36589 41.0406 6.18731 40.2683 7.15247C39.6407 7.90179 39.1157 8.73142 38.7073 9.61945C38.3113 8.39302 37.8496 7.18879 37.3241 6.01199C35.8763 3.05161 35.5447 1.87878 35.5204 1.42583C35.5206 1.23907 35.5341 1.05256 35.5608 0.867724C35.5875 0.690959 35.5592 0.510275 35.48 0.350062C35.3505 0.155939 35.1483 0.0993193 34.6711 0.204469C34.3389 0.276893 34.012 0.37147 33.6924 0.487566C33.2293 0.638039 32.7885 0.850249 32.3821 1.11847C32.1714 1.23154 31.9919 1.39473 31.8593 1.59363C31.7267 1.79254 31.6451 2.02103 31.6218 2.25894C31.6095 2.70899 31.6752 3.15777 31.8159 3.58545C32.0061 4.10927 32.2248 4.62231 32.471 5.12226C30.9993 6.31465 29.8599 7.86635 29.1629 9.62754C28.4763 11.2687 28.0505 13.0072 27.9011 14.7799C27.9011 14.9902 27.9011 15.3946 27.9011 16.0417C27.8927 16.7965 27.9414 17.5509 28.0466 18.2984C28.0952 18.6219 28.2246 19.4631 28.807 19.4955H29.2599C30.0555 19.492 30.849 19.4134 31.6298 19.2609C32.4387 19.1072 32.7541 18.9535 32.8512 18.6947C32.8755 18.6268 32.8815 18.5538 32.8687 18.4828C32.856 18.4118 32.8248 18.3455 32.7784 18.2903C32.4384 17.8078 32.2117 17.2549 32.1152 16.6726C31.9451 15.9079 31.8609 15.1265 31.8644 14.3431C31.8644 14.1328 31.8644 13.8255 31.9129 13.4129C32.0145 12.1294 32.201 10.8541 32.471 9.59519C32.6728 8.71597 33.0025 7.87115 33.4497 7.08776C34.0403 8.28463 34.5641 9.51326 35.0189 10.768C35.5946 12.3074 36.0595 13.886 36.4101 15.4917C36.6007 16.3469 36.7304 17.2145 36.7984 18.0881C36.8221 18.4186 36.8763 18.7462 36.9601 19.0668C37.0142 19.168 37.0954 19.252 37.1947 19.3094C37.2797 19.3846 37.3786 19.4423 37.4859 19.4793L38.0278 19.5197C38.8236 19.5203 39.6175 19.4417 40.3977 19.2852C41.2066 19.1315 41.522 18.9778 41.6191 18.719C41.6419 18.6522 41.6471 18.5807 41.6344 18.5113C41.6216 18.4419 41.5913 18.377 41.5463 18.3226C41.2244 17.8606 41.009 17.333 40.9154 16.7777C40.7581 16.0222 40.6795 15.2524 40.6808 14.4806C40.6808 14.1733 40.6808 13.9468 40.6808 13.785C40.7571 12.7348 40.9888 11.7017 41.3684 10.7195C41.7112 9.74757 42.1615 8.81701 42.711 7.94514C43.0026 7.47107 43.3502 7.03384 43.7464 6.64289C43.7449 6.66444 43.7449 6.68606 43.7464 6.7076C44.649 9.54236 45.2084 12.4752 45.4126 15.4431C45.4538 16.19 45.5457 16.9331 45.6876 17.6675C45.7612 18.1416 45.8803 18.6075 46.0435 19.0587C46.1648 19.4712 46.7148 19.5278 47.184 19.5278C47.6738 19.5133 48.1625 19.4728 48.648 19.4065C49.0819 19.3601 49.5117 19.2817 49.934 19.1719C50.1929 19.0991 50.7833 18.9455 50.7429 18.5329C50.7429 18.3954 50.6863 18.2903 50.3061 17.8131C49.9347 17.1233 49.7012 16.3678 49.6186 15.5887Z" fill="#818182"/>
<path d="M65.4316 15.4823C65.2779 14.6734 64.8816 13.2256 64.2264 11.1226C63.6914 9.33732 63.0264 7.59363 62.2367 5.90551C60.7808 2.91278 60.4572 1.68333 60.4572 1.15758C60.4458 1.01221 60.4458 0.866169 60.4572 0.720802C60.4852 0.626151 60.4924 0.526593 60.4784 0.428895C60.4645 0.331197 60.4297 0.237649 60.3763 0.154609C60.3252 0.101972 60.2634 0.0609904 60.195 0.0344669C60.1266 0.00794339 60.0532 -0.00349705 59.98 0.000927648C59.8407 0.00351807 59.7023 0.0225226 59.5675 0.0575471C59.2601 0.122255 58.9366 0.211228 58.605 0.316378C58.1418 0.466851 57.7011 0.679061 57.2946 0.947279C57.0846 1.06021 56.9059 1.22355 56.7746 1.42261C56.6433 1.62167 56.5635 1.85023 56.5424 2.08775C56.5304 2.52785 56.599 2.96643 56.7446 3.38191C56.9183 3.88534 57.1181 4.37941 57.3432 4.8621C56.1546 5.77575 55.1408 6.89645 54.3504 8.17028C53.7036 9.17726 53.1923 10.2651 52.8298 11.4057C52.5871 12.2792 52.3768 13.2094 52.207 14.1719C52.0717 14.9898 52.0094 15.8181 52.0209 16.647C52.0139 17.235 52.0599 17.8225 52.1584 18.4022C52.1989 18.6287 52.3283 19.3162 52.8379 19.3647H52.9269C53.6376 19.326 54.3359 19.1617 54.9894 18.8794C56.1916 18.4081 57.3522 17.8373 58.4594 17.1727C59.3952 16.6266 60.241 15.939 60.9668 15.1345C60.9668 15.2881 61.0477 15.4823 61.1043 15.733L61.4521 17.2536C61.5488 17.829 61.6866 18.3966 61.8646 18.9522C62.0264 19.3405 62.5683 19.3971 63.0213 19.3971C63.5002 19.3812 63.9781 19.3407 64.4529 19.2758C64.8967 19.2203 65.3369 19.1393 65.7713 19.0331C65.9978 18.9684 66.5802 18.8147 66.5802 18.4022C66.5802 18.2647 66.5236 18.1515 66.1434 17.6823C65.7584 17.0053 65.5161 16.2565 65.4316 15.4823ZM59.6726 12.8859C59.2038 13.6683 58.6416 14.3907 57.9983 15.0374C57.4436 15.6301 56.7995 16.1323 56.0894 16.5257L55.9924 16.5661C55.9924 16.5661 55.8144 16.4367 55.8144 15.5065C55.8144 15.1102 55.8711 14.3822 55.9924 13.3469L56.0409 12.8212C56.3644 9.82033 57.1005 7.69306 58.2167 6.48788L58.5888 7.29673C58.9609 8.17028 59.2682 8.91442 59.5109 9.4887C59.773 10.1403 59.9946 10.8075 60.1741 11.4866C60.2065 11.6726 60.1903 12.0123 59.6726 12.8859Z" fill="#818182"/>
<path d="M80.1042 16.7273C80.0126 15.7216 79.9721 14.712 79.9828 13.7022L80.1042 4.92623C80.1608 4.02032 80.1851 3.30853 80.1851 2.7019C80.1851 0.954787 79.9748 0.275355 79.4409 0.234913C78.8907 0.216375 78.342 0.301434 77.8232 0.485656C77.2604 0.654772 76.7179 0.885334 76.2055 1.17318C75.8011 1.40774 75.607 1.60186 75.5584 1.82834C75.5456 1.8944 75.5469 1.96242 75.5623 2.02794C75.5776 2.09345 75.6066 2.15499 75.6474 2.2085C75.9313 2.5083 76.1272 2.88049 76.2136 3.28427C76.3042 3.93532 76.342 4.59262 76.3269 5.24976L76.2541 8.79251H72.2098L72.2584 4.92623C72.3312 3.6806 72.3635 2.92028 72.3635 2.58866C72.3635 0.970964 72.1451 0.259178 71.6194 0.234913C71.0692 0.216375 70.5204 0.301434 70.0017 0.485656C69.4385 0.653895 68.8959 0.884498 68.384 1.17318C67.9634 1.40774 67.7612 1.60186 67.7207 1.82834C67.7051 1.89298 67.705 1.9604 67.7205 2.02508C67.7359 2.08975 67.7665 2.14984 67.8097 2.20041C68.1034 2.5314 68.3068 2.93257 68.4001 3.36515C68.4928 4.10549 68.5306 4.85166 68.5134 5.59757C68.5134 6.40642 68.5134 7.8219 68.3921 9.89255C68.2707 11.9632 68.2707 13.2412 68.2546 13.7993L68.1979 14.8589C68.1494 16.0883 68.1171 16.8567 68.1171 17.2207C68.1171 18.8384 68.3435 19.5016 68.8774 19.5259H69.3303C70.123 19.526 70.9139 19.4502 71.6922 19.2994C72.501 19.1538 72.8245 19.0002 72.9216 18.7413C72.9448 18.6728 72.9495 18.5993 72.9353 18.5283C72.9211 18.4573 72.8885 18.3913 72.8407 18.3369C72.5134 17.8943 72.3223 17.3658 72.2907 16.8163C72.1749 15.8959 72.1127 14.9695 72.1047 14.0419C72.1047 12.8691 72.1047 11.7772 72.1047 10.758H76.1489C76.1489 11.672 76.0761 13.0147 76.0033 14.8589C75.9467 16.1126 75.9224 16.9214 75.9224 17.2854C75.9224 18.8465 76.1408 19.4936 76.6747 19.5178H77.1276C77.923 19.5175 78.7165 19.4417 79.4975 19.2913C80.3064 19.1458 80.6218 18.9921 80.7189 18.7332C80.7432 18.6653 80.7492 18.5923 80.7364 18.5213C80.7237 18.4504 80.6925 18.384 80.6461 18.3288C80.3177 17.8569 80.1298 17.3016 80.1042 16.7273Z" fill="#818182"/>
<path d="M93.7736 4.45127L93.2236 3.5858C92.7868 2.92255 92.4147 2.34827 92.2044 1.89531C91.9694 1.44616 91.7797 0.974701 91.6382 0.48792C91.5331 0.269531 91.2662 0.269531 91.1125 0.269531C90.9754 0.283529 90.84 0.310614 90.7081 0.350416C89.4333 0.627012 88.1974 1.05893 87.0278 1.63648C85.9737 2.15574 85.0269 2.86922 84.2373 3.73948C83.1486 5.10572 82.4773 6.75715 82.3041 8.49551C82.2338 8.99118 82.1986 9.49123 82.199 9.99187C82.1875 11.2338 82.4325 12.4647 82.9189 13.6074C83.3287 14.5141 83.813 15.3852 84.3667 16.2119C84.7954 16.8833 85.1189 17.4252 85.3616 17.8296C85.5994 18.2664 85.797 18.724 85.952 19.1966C85.952 19.2693 86.0248 19.4958 86.3726 19.4958C86.695 19.4765 87.0133 19.414 87.319 19.3098C87.8798 19.1632 88.4224 18.9542 88.9367 18.687C90.7492 18.0232 92.3635 16.9099 93.628 15.4516C94.6392 14.126 95.2333 12.5296 95.3347 10.8654C95.3347 10.4287 95.3913 10.0566 95.3913 9.85437C95.3893 8.43541 95.0802 7.03369 94.4854 5.74543C94.2913 5.35718 94.0486 4.91231 93.7736 4.45127ZM91.6059 11.1485C91.6154 12.3771 91.3702 13.5944 90.886 14.7236C90.5306 15.5608 90.0171 16.3215 89.3735 16.9641C89.236 16.6568 89.0661 16.3332 88.872 15.9854C88.5889 15.5082 88.3139 15.0553 88.0631 14.6185C87.5697 13.8096 87.2543 13.3162 87.1168 13.0736C86.4002 11.7784 86.0218 10.3235 86.0168 8.84331C85.9965 7.41651 86.2719 6.00098 86.8256 4.68584C87.1046 4.0441 87.4812 3.44932 87.9418 2.92255L88.144 2.70416C88.233 2.89828 88.322 3.1005 88.4352 3.31888C88.6212 3.66669 88.8315 4.03876 89.0823 4.43509C89.333 4.83143 89.4786 5.08217 89.5514 5.2035C89.8447 5.63081 90.1147 6.07363 90.3603 6.53001C91.1635 7.93772 91.5923 9.52785 91.6059 11.1485Z" fill="#818182"/>
<path d="M106.489 9.89454C105.988 9.42799 105.528 8.91924 105.114 8.3739C105.064 8.29313 105.033 8.2017 105.025 8.10698C105.038 7.90382 105.128 7.71319 105.275 7.57314C105.52 7.28001 105.791 7.00932 106.084 6.7643L106.456 6.42458C107.233 5.6394 107.863 4.72176 108.317 3.71494C108.746 2.74038 108.977 1.68999 108.996 0.625148V0.519998L108.721 0.277344H100.293C99.4786 0.28047 98.6663 0.358993 97.8664 0.511909C96.9282 0.689855 96.6855 0.867802 96.6046 1.08619C96.5804 1.15408 96.5743 1.22715 96.5871 1.29811C96.5999 1.36907 96.631 1.43544 96.6774 1.49061C97.0251 1.93015 97.2561 2.45045 97.3488 3.00316C97.4946 3.83615 97.5596 4.68127 97.5429 5.52676C97.5429 6.33561 97.5429 7.72683 97.4216 9.79747C97.3002 11.8681 97.3002 13.138 97.2841 13.6799L97.2274 14.7719C97.1789 15.969 97.1547 16.7374 97.1547 17.0852C97.1404 17.5869 97.1811 18.0887 97.276 18.5816C97.3892 19.0507 97.5995 19.2933 97.915 19.2933H106.513C106.945 19.2754 107.373 19.1965 107.783 19.0588C108.26 18.9256 108.723 18.7468 109.166 18.5249C109.352 18.4279 109.91 18.1367 109.91 17.6756C109.917 15.3717 109.16 13.1304 107.759 11.3019C107.362 10.8092 106.938 10.3394 106.489 9.89454ZM101.458 2.24284H104.887C104.924 3.73318 104.463 5.19322 103.577 6.39223C103.254 6.78165 102.902 7.14663 102.525 7.48417L101.66 8.34964C101.484 8.53133 101.36 8.75795 101.304 9.0048C101.304 8.87539 101.304 8.73788 101.304 8.60847C101.304 6.58635 101.361 5.37308 101.385 4.86351C101.433 4.05466 101.458 3.34287 101.458 2.80095C101.466 2.58256 101.458 2.39652 101.458 2.24284ZM101.684 10.3313C101.991 10.6974 102.326 11.0382 102.687 11.3505L103.189 11.8196C104.069 12.726 104.795 13.7696 105.34 14.9094C105.731 15.6847 105.983 16.5223 106.084 17.3845H101.555C101.423 16.9534 101.344 16.508 101.32 16.0579C101.28 15.427 101.255 14.6182 101.255 13.6314C101.255 12.5071 101.256 11.1482 101.296 9.53864C101.356 9.83643 101.489 10.1145 101.684 10.3475V10.3313Z" fill="#818182"/>
<path d="M136.206 0.347656C135.664 0.349877 135.123 0.395862 134.588 0.48516C134.377 0.505454 134.168 0.546085 133.965 0.606487C133.641 0.673443 133.326 0.779362 133.027 0.921938H132.978C130.617 2.01388 128.878 4.90955 127.802 9.53616C127.474 9.20106 127.235 8.78965 127.106 8.33907C126.831 7.48134 126.615 6.60573 126.459 5.7184C126.402 5.47575 126.346 5.11177 126.281 4.62646C126.103 3.58304 125.958 2.83891 125.836 2.34551C125.73 1.93584 125.584 1.5376 125.399 1.1565C125.311 0.978942 125.187 0.821343 125.036 0.693378C124.884 0.565414 124.708 0.469786 124.518 0.412364C124.416 0.377963 124.31 0.358882 124.202 0.355745C123.78 0.371301 123.366 0.478959 122.989 0.671195L122.269 0.994734L122.172 1.04326C122.079 1.10309 121.981 1.15712 121.881 1.20503C121.678 1.30469 121.483 1.42102 121.299 1.55284C121.217 1.59661 121.15 1.66225 121.104 1.74231C121.059 1.82237 121.036 1.91365 121.04 2.00579C121.053 2.08079 121.087 2.15042 121.139 2.20636C121.191 2.2623 121.257 2.30218 121.331 2.32124C121.486 2.38858 121.612 2.50902 121.687 2.66096C121.819 2.89587 121.914 3.14952 121.97 3.41319C122.035 3.73673 122.075 3.93894 122.099 4.01982C122.172 4.33527 122.318 5.11985 122.512 6.17944C122.548 6.3613 122.575 6.54487 122.593 6.72946C122.628 7.00126 122.677 7.27119 122.738 7.53831C122.86 8.14995 123.014 8.75474 123.199 9.35012C123.371 9.8677 123.616 10.358 123.927 10.806C124.277 11.2447 124.748 11.5707 125.282 11.7433C125.815 11.9159 126.388 11.9275 126.928 11.7767C127.07 11.7583 127.21 11.7313 127.349 11.6958C127.171 12.7473 127.033 13.7988 126.944 14.826C126.807 16.1364 126.734 17.1151 126.734 17.7379C126.734 18.5952 126.815 19.4769 127.438 19.5173H127.891C128.683 19.5154 129.473 19.4423 130.253 19.2989C131.061 19.1453 131.385 18.9997 131.482 18.7408C131.507 18.6725 131.513 18.5986 131.498 18.5273C131.484 18.4559 131.45 18.3899 131.401 18.3364C130.93 17.5012 130.729 16.5404 130.827 15.5863C130.827 14.915 130.827 14.2841 130.908 13.6936C131.022 12.1157 131.217 10.5445 131.49 8.98614C131.696 7.64985 132.029 6.33627 132.485 5.06323C132.801 4.2269 133.261 3.45225 133.844 2.7742C134.39 3.73177 134.706 4.80354 134.766 5.90444C134.776 6.11517 134.85 6.31795 134.976 6.48681C135.037 6.56312 135.115 6.62459 135.203 6.66662C135.291 6.70864 135.388 6.73013 135.486 6.72946C135.634 6.72367 135.776 6.6697 135.89 6.57578C136.011 6.47457 136.108 6.3474 136.173 6.20371C136.506 5.35977 136.792 4.49843 137.031 3.62349C137.321 2.73503 137.5 1.81402 137.565 0.881495C137.565 0.388098 136.861 0.347656 136.206 0.347656Z" fill="#818182"/>
<path d="M150.563 0.835986C150.563 0.747013 150.563 0.463917 150.11 0.391121C149.886 0.374835 149.662 0.374835 149.438 0.391121H142.377C141.647 0.396392 140.919 0.466771 140.201 0.601421C139.393 0.76319 139.029 0.916871 138.932 1.1757C138.908 1.24181 138.901 1.31291 138.912 1.38228C138.924 1.45164 138.953 1.51696 138.996 1.57204C139.329 2.0186 139.553 2.53642 139.651 3.08458C139.793 3.91254 139.856 4.75218 139.837 5.59201C139.837 6.78101 139.748 9.89507 139.554 14.8533C139.506 16.107 139.482 16.9159 139.482 17.2798C139.471 17.7701 139.506 18.2602 139.587 18.7439C139.684 19.2211 139.902 19.4799 140.234 19.5123H140.687C141.477 19.5104 142.265 19.4346 143.04 19.2858C143.849 19.1402 144.181 18.9865 144.27 18.7277C144.296 18.6601 144.303 18.5866 144.29 18.5153C144.277 18.444 144.245 18.3776 144.197 18.3233C143.87 17.8806 143.679 17.3522 143.647 16.8026C143.55 15.8758 143.507 14.944 143.518 14.0121C143.518 12.815 143.518 11.2782 143.518 9.40168C143.518 7.52515 143.566 6.01261 143.582 4.88831C143.631 4.03093 143.655 3.35959 143.655 2.82575C143.655 2.61545 143.655 2.42942 143.655 2.27573H146.599C147.249 3.36953 147.636 4.59863 147.732 5.86701C147.805 6.58689 148.193 6.67586 148.427 6.67586C148.586 6.67347 148.74 6.62149 148.868 6.52721C148.995 6.43292 149.09 6.30106 149.139 6.15011C149.455 5.31898 149.725 4.4711 149.948 3.61033C150.268 2.71489 150.475 1.78283 150.563 0.835986Z" fill="#818182"/>
<path d="M161.563 4.44792L161.021 3.58245C160.576 2.90302 160.212 2.33683 160.002 1.89196C159.77 1.4329 159.588 0.950201 159.46 0.452212C159.347 0.25 159.088 0.25 158.934 0.25C158.809 0.257628 158.684 0.276578 158.562 0.306619C157.285 0.583209 156.046 1.01511 154.874 1.59269C153.804 2.11963 152.846 2.84732 152.051 3.73613C150.959 5.10047 150.287 6.7529 150.118 8.49215C150.043 8.98733 150.008 9.48772 150.013 9.98852C150.002 11.2303 150.247 12.4611 150.733 13.6041C151.145 14.5095 151.629 15.3804 152.18 16.2086C152.585 16.8314 152.916 17.3895 153.183 17.8262C153.426 18.2623 153.622 18.7233 153.766 19.2013C153.789 19.2941 153.845 19.3751 153.924 19.4289C154.004 19.4826 154.1 19.5053 154.194 19.4925C154.517 19.4719 154.835 19.4093 155.141 19.3064C155.701 19.1574 156.243 18.9486 156.759 18.6836C158.57 18.0176 160.184 16.9047 161.45 15.4482C162.452 14.1198 163.038 12.5237 163.132 10.8621C163.132 10.4253 163.181 10.0532 163.181 9.85102C163.183 8.4316 162.874 7.029 162.275 5.74207C162.065 5.29624 161.827 4.86401 161.563 4.44792ZM159.403 11.1452C159.413 12.3738 159.168 13.5911 158.684 14.7203C158.328 15.5595 157.812 16.3208 157.163 16.9608C157.025 16.6534 156.856 16.3218 156.661 15.9821C156.386 15.5049 156.103 15.0519 155.853 14.6151C155.359 13.8063 155.044 13.3129 154.906 13.0702C154.187 11.776 153.805 10.3209 153.798 8.83996C153.778 7.41316 154.053 5.99762 154.607 4.68248C154.883 4.03912 155.26 3.44388 155.723 2.9192C155.786 2.84243 155.854 2.76951 155.925 2.70081C156.011 2.90841 156.108 3.11095 156.217 3.30744C156.395 3.66333 156.613 4.0354 156.856 4.43174C157.098 4.82807 157.252 5.07882 157.333 5.20014C157.625 5.62813 157.895 6.07089 158.142 6.52665C158.95 7.93284 159.385 9.52306 159.403 11.1452Z" fill="#818182"/>
<path d="M177.918 17.8134C177.557 17.1348 177.33 16.3936 177.247 15.6296C177.174 15.2251 176.972 14.4325 176.648 13.2758C176.325 12.1192 175.92 10.8493 175.467 9.51467C175.068 8.32259 174.604 7.15339 174.076 6.01236C172.604 3.00345 172.297 1.85489 172.297 1.40193C172.276 1.22188 172.276 1.04006 172.297 0.860005C172.342 0.687722 172.342 0.506537 172.297 0.334254C172.249 0.261444 172.182 0.203229 172.104 0.166097C172.025 0.128965 171.938 0.114375 171.852 0.123954C171.377 0.163379 170.911 0.272393 170.469 0.447493C170.005 0.626591 169.567 0.865908 169.166 1.15928C168.94 1.26649 168.747 1.43134 168.605 1.63723C168.463 1.84312 168.377 2.08279 168.357 2.33211C168.371 2.82518 168.47 3.31222 168.649 3.77185C168.864 4.34906 169.113 4.91348 169.393 5.46234C168.196 6.37485 167.174 7.49549 166.376 8.77053C165.722 9.80272 165.202 10.9145 164.831 12.0787C164.584 12.9654 164.385 13.8645 164.232 14.7722C164.115 15.551 164.064 16.3384 164.079 17.1259C164.079 18.7921 164.305 19.4797 164.847 19.5039C165.387 19.5289 165.928 19.51 166.465 19.4473C167.029 19.3913 167.589 19.294 168.139 19.1561C168.592 19.0429 168.81 18.9054 168.875 18.6951C168.896 18.632 168.9 18.5647 168.887 18.4996C168.874 18.4344 168.845 18.3736 168.802 18.323C168.483 17.8655 168.268 17.3438 168.171 16.7943C168.011 16.0501 167.933 15.2907 167.937 14.5295C167.937 14.2626 167.937 13.8986 167.985 13.4538C168.268 10.5662 169.013 8.42273 170.21 7.08813C170.773 8.27091 171.264 9.48635 171.682 10.7279C172.221 12.288 172.667 13.8788 173.016 15.492C173.206 16.3387 173.352 17.1945 173.453 18.0561C173.473 18.4036 173.53 18.748 173.623 19.0833C173.785 19.4797 174.327 19.5282 174.78 19.5282C175.259 19.5158 175.737 19.4752 176.211 19.4069C176.659 19.3637 177.103 19.2852 177.538 19.1723C177.824 19.1381 178.086 18.9929 178.266 18.7679C178.314 18.6849 178.331 18.5874 178.314 18.4929C178.347 18.3715 178.266 18.2421 177.918 17.8134Z" fill="#818182"/>
<path d="M5.03499 30.1935L3.61142 34.7959L2.09887 29.9023H1.02311H0.715746H0.610596V39.8754H1.68636H2.00181H2.09887V34.5047L3.08567 37.732H3.82981H4.06437H4.13717L5.12396 34.5047V39.8754H6.19973H6.50709H6.61224V29.9023H5.12396L5.03499 30.1935Z" fill="#818182"/>
<path d="M13.1477 39.8754H13.2529H16.3507V38.8805V38.5651V38.468H14.636V35.6047H16.2213V34.5856V34.2782V34.1811H14.636V31.3097H16.3507V30.8972V30.3149V30.0075V29.9023H13.1477V39.8754Z" fill="#818182"/>
<path d="M26.0004 30.3972C25.8089 30.1944 25.5764 30.0347 25.3184 29.9287C25.0604 29.8227 24.7828 29.7729 24.504 29.7824C24.224 29.7727 23.9452 29.8225 23.6859 29.9285C23.4265 30.0344 23.1926 30.1942 22.9996 30.3972C22.632 30.8542 22.4423 31.4288 22.4657 32.0149V37.7253C22.4354 38.3123 22.6259 38.8893 22.9996 39.343C23.19 39.5531 23.424 39.7192 23.6853 39.8295C23.9465 39.9399 24.2287 39.9919 24.5121 39.982C24.7892 39.9935 25.0655 39.9453 25.3223 39.8407C25.5791 39.736 25.8103 39.5773 26.0004 39.3754L26.1783 39.2055H26.1217C26.4074 38.7806 26.5544 38.2776 26.5423 37.7658V36.1966H25.054V37.8143C25.0748 38.0435 25.0209 38.2733 24.9003 38.4695C24.8195 38.5584 24.7467 38.607 24.504 38.615C24.2614 38.6231 24.1724 38.5584 24.0834 38.4614C23.9651 38.2673 23.9113 38.0408 23.9297 37.8143V31.9906C23.9113 31.7641 23.9651 31.5376 24.0834 31.3435C24.1724 31.2465 24.2533 31.1979 24.504 31.1898C24.7548 31.1817 24.8195 31.2384 24.9084 31.3354C25.0211 31.5344 25.0718 31.7626 25.054 31.9906V33.6083H26.5504V32.031C26.5738 31.445 26.3841 30.8703 26.0166 30.4133L26.0004 30.3972Z" fill="#818182"/>
<path d="M32.4225 29.9023V30.0075V30.8972V31.2127V31.3097H33.5711V39.8754H34.6469H34.9623H35.0594V31.3097H35.7874H36.0947H36.1999V30.3149V30.0075V29.9023H35.7874H32.4225Z" fill="#818182"/>
<path d="M45.623 30.3974C45.4336 30.194 45.2027 30.0337 44.9459 29.9277C44.689 29.8216 44.4124 29.7721 44.1347 29.7826C43.8546 29.7724 43.5756 29.822 43.3162 29.928C43.0568 30.0339 42.823 30.194 42.6302 30.3974C42.2626 30.8544 42.073 31.429 42.0964 32.0151V37.7255C42.0661 38.3125 42.2565 38.8895 42.6302 39.3432C42.822 39.5516 43.0563 39.7165 43.3172 39.8267C43.5781 39.937 43.8596 39.99 44.1428 39.9822C44.4147 39.9907 44.6852 39.9409 44.9363 39.8363C45.1874 39.7317 45.4133 39.5746 45.5987 39.3756C45.9688 38.9203 46.1562 38.3437 46.1244 37.7579V32.0312C46.1501 31.4462 45.9634 30.8717 45.5987 30.4135L45.623 30.3974ZM44.6685 37.7821C44.6893 38.0114 44.6354 38.2412 44.5148 38.4373C44.434 38.5263 44.3612 38.5748 44.1104 38.5829C43.8597 38.591 43.7869 38.5263 43.6979 38.4292C43.5796 38.2352 43.5258 38.0086 43.5442 37.7821V31.9908C43.5258 31.7643 43.5796 31.5378 43.6979 31.3437C43.7869 31.2466 43.8597 31.1981 44.1104 31.19C44.3612 31.1819 44.434 31.2386 44.5148 31.3356C44.6354 31.5317 44.6893 31.7615 44.6685 31.9908V37.7821Z" fill="#818182"/>
<path d="M64.1455 30.5421V30.4936C63.9568 30.2999 63.73 30.1475 63.4794 30.0458C63.2288 29.9442 62.9599 29.8956 62.6896 29.9031H60.5704V39.8762H62.0587V36.8592H62.6411C62.9122 36.8671 63.1819 36.8179 63.4327 36.7148C63.6836 36.6117 63.9099 36.4569 64.097 36.2606V36.2121L64.2183 36.0503C64.5042 35.6259 64.6486 35.122 64.6309 34.6106V32.184C64.6565 31.599 64.4698 31.0245 64.1051 30.5663L64.1455 30.5421ZM63.2073 32.1355V34.6348C63.2252 34.8639 63.1715 35.0928 63.0536 35.29C62.9727 35.3871 62.8999 35.4356 62.6492 35.4437H62.083V31.3186H62.6492C62.8999 31.3186 62.9727 31.3752 63.0536 31.4723C63.1719 31.6663 63.2257 31.8928 63.2073 32.1193V32.1355Z" fill="#818182"/>
<path d="M73.3907 29.9023H73.3098L73.2936 29.9832L73.2451 30.2421L72.6061 33.8253L71.8862 29.9023H70.8671H70.4869H70.3656L71.7811 37.2629H71.9429L71.4575 39.8754H72.6142H72.873H72.962L74.8143 29.9023H73.6495H73.3907Z" fill="#818182"/>
<path d="M84.1645 30.4073C83.974 30.2033 83.7416 30.0427 83.4834 29.9366C83.2252 29.8305 82.9471 29.7814 82.6681 29.7926C82.3883 29.7839 82.1098 29.8341 81.8506 29.94C81.5914 30.0459 81.3574 30.2051 81.1637 30.4073C80.7961 30.8643 80.6065 31.439 80.6298 32.025V37.7435C80.6026 38.3315 80.7959 38.9084 81.1718 39.3612C81.3568 39.5597 81.581 39.7176 81.8302 39.8248C82.0795 39.932 82.3483 39.9862 82.6196 39.984C82.8915 39.9925 83.1621 39.9427 83.4132 39.8381C83.6643 39.7335 83.8901 39.5764 84.0755 39.3774C84.4456 38.9222 84.633 38.3455 84.6013 37.7597V36.1986H83.113V37.8163C83.132 38.0455 83.0782 38.2747 82.9593 38.4715C82.9096 38.5282 82.8468 38.5719 82.7763 38.5987C82.7058 38.6255 82.6297 38.6346 82.5549 38.6252C82.3042 38.6252 82.2233 38.5686 82.1343 38.4715C82.0149 38.2751 81.9638 38.0448 81.9887 37.8163V32.0088C81.9609 31.7791 82.0153 31.547 82.1424 31.3536C82.2233 31.2566 82.3042 31.208 82.5549 31.2C82.8056 31.1919 82.8784 31.2566 82.9593 31.3536C83.0782 31.5504 83.132 31.7797 83.113 32.0088V33.6265H84.6013V32.0331C84.627 31.4481 84.4402 30.8735 84.0755 30.4154L84.1645 30.4073Z" fill="#818182"/>
<path d="M94.5825 30.4069C94.3909 30.2041 94.1585 30.0444 93.9005 29.9384C93.6425 29.8325 93.3649 29.7826 93.0861 29.7922C92.8073 29.7826 92.5297 29.8325 92.2717 29.9384C92.0137 30.0444 91.7812 30.2041 91.5897 30.4069C91.225 30.865 91.0383 31.4396 91.064 32.0246V37.7431C91.0337 38.3301 91.2241 38.9072 91.5978 39.3608C91.7884 39.5686 92.0213 39.7332 92.2808 39.8434C92.5403 39.9536 92.8204 40.007 93.1023 39.9998C93.3742 40.0083 93.6447 39.9585 93.8958 39.8539C94.1469 39.7493 94.3728 39.5922 94.5582 39.3932C94.9283 38.938 95.1157 38.3613 95.0839 37.7755V36.1982H93.6199V37.8159C93.639 38.0451 93.5852 38.2743 93.4663 38.4711C93.3854 38.5682 93.3126 38.6167 93.0618 38.6248C92.8111 38.6329 92.7302 38.5682 92.6493 38.4711C92.5266 38.2759 92.4725 38.0453 92.4956 37.8159V32.0084C92.4766 31.7793 92.5304 31.55 92.6493 31.3532C92.7302 31.2562 92.8111 31.2077 93.0618 31.1996C93.3126 31.1915 93.3854 31.2562 93.4663 31.3532C93.5852 31.55 93.639 31.7793 93.6199 32.0084V33.6261H95.1082V32.0327C95.1339 31.4477 94.9472 30.8731 94.5825 30.415V30.4069Z" fill="#818182"/>
<path d="M105.55 29.9023H104.863H104.653H104.58L103.051 33.6635V29.9023H101.967H101.66H101.563V39.8754H102.639H102.946H103.051V36.1305L104.58 39.8754H105.55H106.011H106.165L104.111 34.8929L106.165 29.9023H105.55Z" fill="#818182"/>
<path d="M115.103 30.3974C114.914 30.194 114.683 30.0337 114.426 29.9277C114.169 29.8216 113.892 29.7721 113.615 29.7826C113.336 29.7731 113.058 29.8229 112.8 29.9289C112.542 30.0349 112.31 30.1946 112.118 30.3974C111.751 30.8544 111.561 31.429 111.585 32.0151V37.7255C111.557 38.3134 111.751 38.8903 112.126 39.3432C112.316 39.5518 112.549 39.717 112.809 39.8273C113.068 39.9375 113.349 39.9904 113.631 39.9822C113.903 39.9907 114.173 39.9409 114.424 39.8363C114.676 39.7317 114.901 39.5746 115.087 39.3756C115.457 38.9203 115.644 38.3437 115.613 37.7579V32.0312C115.636 31.4452 115.446 30.8705 115.079 30.4135L115.103 30.3974ZM113.59 38.5991C113.34 38.5991 113.259 38.5424 113.178 38.4454C113.056 38.2529 113.002 38.0251 113.024 37.7983V31.9908C113.004 31.7615 113.057 31.5317 113.178 31.3356C113.229 31.2791 113.294 31.2362 113.366 31.2108C113.438 31.1854 113.515 31.1782 113.59 31.19C113.841 31.19 113.914 31.2386 113.995 31.3356C114.111 31.5334 114.165 31.7619 114.149 31.9908V37.7983C114.166 38.0273 114.113 38.2563 113.995 38.4535C113.943 38.5072 113.88 38.5482 113.81 38.5735C113.74 38.5987 113.665 38.6075 113.59 38.5991Z" fill="#818182"/>
<path d="M125.707 27.7934V27.486V27.3809H122.609V27.7934V28.3191V28.6265V28.7316H125.707V27.7934Z" fill="#818182"/>
<path d="M124.93 29.9023H124.849L124.833 29.9751L124.769 30.2016L123.563 34.5694V29.9023H122.488H122.172H122.075V39.8754H123.151H123.385H123.466L124.752 35.2165V39.8754H125.828H126.144H126.241V29.9023H125.165H124.93Z" fill="#818182"/>
<path d="M144.213 30.4053C144.023 30.1998 143.792 30.0378 143.533 29.9303C143.275 29.8228 142.997 29.7724 142.717 29.7825C142.438 29.7729 142.161 29.8228 141.903 29.9288C141.645 30.0348 141.412 30.1945 141.221 30.3973C140.853 30.8542 140.663 31.4289 140.687 32.0149V37.7335C140.66 38.3214 140.853 38.8983 141.229 39.3512C141.419 39.559 141.652 39.7235 141.912 39.8337C142.171 39.944 142.451 39.9973 142.733 39.9902C143.005 39.9986 143.276 39.9489 143.527 39.8443C143.778 39.7396 144.004 39.5826 144.189 39.3835C144.559 38.9283 144.747 38.3517 144.715 37.7658V36.1967H143.283V37.8144C143.302 38.0435 143.248 38.2728 143.129 38.4695C143.049 38.5666 142.976 38.6151 142.725 38.6232C142.474 38.6313 142.393 38.5666 142.313 38.4695C142.19 38.2744 142.136 38.0438 142.159 37.8144V32.0069C142.136 31.7774 142.19 31.5469 142.313 31.3517C142.393 31.2546 142.474 31.2061 142.725 31.198C142.976 31.1899 143.049 31.2546 143.129 31.3517C143.248 31.5485 143.302 31.7777 143.283 32.0069V33.6245H144.771V32.0311C144.797 31.4461 144.61 30.8716 144.246 30.4134L144.213 30.4053Z" fill="#818182"/>
<path d="M154.033 29.9023H153.952L153.936 29.9751L153.871 30.2016L152.666 34.5694V29.9023H151.59H151.275H151.177V39.8754H152.253H152.488H152.569L153.855 35.2165V39.8754H154.931H155.246H155.343V29.9023H154.267H154.033Z" fill="#818182"/>
<path d="M162.21 30.3149V37.9504C162.224 38.1041 162.193 38.2585 162.121 38.3952L162.073 38.4438H161.951H161.385V39.8592H162.008C162.24 39.8738 162.472 39.8404 162.691 39.7611C162.909 39.6818 163.109 39.5582 163.278 39.3982C163.591 38.9898 163.741 38.4795 163.698 37.9665V31.3178H164.823V39.8835H166.311V29.9023H162.21V30.3149Z" fill="#818182"/>
<path d="M176.446 33.5098C176.256 33.3106 176.025 33.1536 175.77 33.0491C175.515 32.9446 175.241 32.8949 174.966 32.9032H174.383V29.9023H172.895V39.8835H174.966C175.245 39.8915 175.523 39.8402 175.781 39.7328C176.039 39.6254 176.271 39.4645 176.462 39.2607C176.83 38.8037 177.019 38.229 176.996 37.643V35.2165C177.019 34.6304 176.83 34.0558 176.462 33.5988L176.446 33.5098ZM175.5 35.1275V37.6268C175.519 37.856 175.465 38.0852 175.346 38.282C175.265 38.3791 175.192 38.4276 174.941 38.4357H174.375V34.3186H174.941C175.192 34.3186 175.265 34.3753 175.346 34.4723C175.464 34.6695 175.517 34.8985 175.5 35.1275Z" fill="#818182"/>
<path d="M177.683 29.9023H177.376H177.271V30.3149V39.8754H178.355H178.662H178.759V29.9023H177.683Z" fill="#818182"/>
</svg>
