<svg width="182" height="40" viewBox="0 0 182 40" fill="none" xmlns="http://www.w3.org/2000/svg">
<path d="M11.2401 21.4785L10.1446 16.3889H5.44715L4.3477 21.4785H0L5.11267 0.335938H10.3598L15.5609 21.4785H11.2401ZM9.54109 12.8638L8.38785 7.27062C8.31097 6.80932 8.2379 6.3558 8.16487 5.91373C8.09183 5.47166 8.02262 5.04109 7.96112 4.63362C7.89961 4.22614 7.84198 3.84173 7.79585 3.48039C7.7651 3.81867 7.72287 4.18766 7.66521 4.59514C7.60755 5.00261 7.53834 5.42164 7.46146 5.86371C7.38458 6.30578 7.29994 6.75554 7.20384 7.20914L6.0737 12.86L9.54109 12.8638Z" fill="#818182"/>
<path d="M23.9175 21.4797H19.9235V3.86219H15.991V0.348633H27.827V3.86219H23.9252L23.9175 21.4797Z" fill="#818182"/>
<path d="M38.0327 21.4783L33.858 5.86732H33.7426C33.7888 6.51313 33.8272 7.1205 33.858 7.68942C33.8849 8.25835 33.9079 8.78119 33.9233 9.26554C33.9387 9.7499 33.9425 10.1804 33.9425 10.5648V21.4629H30.1561V0.320312H35.7493L39.6511 14.7856H39.7549L43.6566 0.320312H49.219V21.4629H45.348V10.534C45.348 10.1035 45.348 9.64611 45.348 9.16944C45.348 8.69277 45.3826 8.18151 45.4057 7.6318C45.4287 7.08209 45.4633 6.50547 45.5018 5.89041H45.3864L41.181 21.4552L38.0327 21.4783Z" fill="#818182"/>
<path d="M62.3559 21.4785L61.2604 16.3889H56.5629L55.4635 21.4785H51.1158L56.2323 0.335938H61.4757L66.6767 21.4785H62.3559ZM60.6376 12.8638L59.4844 7.27062C59.4075 6.80932 59.3345 6.3558 59.2615 5.91373C59.1885 5.47166 59.1193 5.04109 59.0578 4.63362C58.9963 4.22614 58.9424 3.84173 58.8924 3.48039C58.8616 3.81867 58.8194 4.18766 58.7618 4.59514C58.7041 5.00261 58.6349 5.42164 58.558 5.86371C58.4811 6.30578 58.3966 6.75554 58.3005 7.20914L57.1741 12.86L60.6376 12.8638Z" fill="#818182"/>
<path d="M81.9255 21.4785H77.8622V12.2527H72.6304V21.4785H68.571V0.335938H72.6304V8.70446H77.8622V0.335938H81.9255V21.4785Z" fill="#818182"/>
<path d="M100.09 10.8848C100.106 12.408 99.9513 13.9283 99.6287 15.417C99.3736 16.6334 98.9037 17.7945 98.241 18.8459C97.6621 19.7569 96.8585 20.5035 95.9076 21.014C94.8741 21.5125 93.7415 21.7714 92.594 21.7714C91.4466 21.7714 90.3138 21.5125 89.2803 21.014C88.3254 20.4976 87.5193 19.7444 86.9393 18.8267C86.2804 17.7623 85.8109 16.5917 85.5516 15.367C85.2284 13.8809 85.0737 12.3632 85.0903 10.8425C85.0383 8.82003 85.3268 6.80322 85.9437 4.87644C86.395 3.43195 87.2777 2.16024 88.4731 1.23224C89.6811 0.38592 91.1315 -0.0444703 92.6056 0.00599513C94.1248 -0.0589715 95.6195 0.405702 96.8341 1.32065C98.0065 2.30173 98.8636 3.60677 99.2981 5.07249C99.8695 6.95548 100.137 8.91761 100.09 10.8848ZM89.2957 10.8848C89.2717 12.2455 89.4007 13.6046 89.6801 14.9365C89.8406 15.8314 90.2226 16.6718 90.7911 17.3813C91.0214 17.6364 91.3023 17.8407 91.616 17.9811C91.9297 18.1215 92.2691 18.195 92.6128 18.1968C92.9564 18.1986 93.2967 18.1287 93.6118 17.9916C93.9269 17.8545 94.2101 17.6532 94.443 17.4006C95.0072 16.7034 95.3842 15.8738 95.5386 14.9903C95.8156 13.6398 95.9445 12.2632 95.923 10.8848C95.923 8.40922 95.6488 6.56656 95.1004 5.35695C94.5519 4.14734 93.728 3.54255 92.6285 3.54255C92.2831 3.53798 91.941 3.60932 91.6261 3.75146C91.3113 3.8936 91.0315 4.10314 90.8064 4.36524C90.238 5.07913 89.8562 5.92326 89.6955 6.82158C89.4113 8.15686 89.2772 9.51975 89.2957 10.8848Z" fill="#818182"/>
<path d="M103.257 0.348633H108.819C110.995 0.348633 112.626 0.775358 113.713 1.62875C114.8 2.48214 115.34 3.7904 115.335 5.55356C115.347 6.30664 115.233 7.05643 114.997 7.77161C114.799 8.37628 114.465 8.92736 114.021 9.38227C113.595 9.80725 113.065 10.1111 112.483 10.2626V10.4087C113.164 10.5749 113.795 10.9018 114.324 11.362C114.81 11.8121 115.172 12.3802 115.374 13.0112C115.607 13.7691 115.719 14.5592 115.704 15.3522C115.733 16.48 115.478 17.5972 114.962 18.6005C114.475 19.5085 113.727 20.249 112.813 20.7262C111.777 21.2569 110.625 21.5212 109.461 21.495H103.249L103.257 0.348633ZM107.316 8.90561H108.819C109.158 8.93163 109.498 8.88168 109.814 8.75929C110.131 8.63691 110.416 8.44525 110.649 8.19835C111.089 7.59645 111.301 6.85831 111.249 6.11478C111.272 5.78428 111.229 5.45252 111.122 5.13893C111.015 4.82534 110.847 4.53626 110.626 4.28884C110.374 4.06376 110.079 3.89197 109.758 3.78364C109.438 3.67532 109.099 3.63274 108.762 3.65844H107.316V8.90561ZM107.316 12.127V18.0661H109.15C109.491 18.0912 109.833 18.0365 110.15 17.9064C110.466 17.7763 110.748 17.5744 110.972 17.3165C111.375 16.804 111.577 16.0429 111.58 15.0332C111.597 14.4893 111.493 13.9484 111.276 13.4494C111.092 13.0413 110.787 12.6992 110.403 12.4691C109.973 12.2294 109.485 12.1112 108.992 12.127H107.316Z" fill="#818182"/>
<path d="M136.497 0.348633L131.861 15.2907C131.492 16.5321 131 17.7336 130.392 18.8773C129.94 19.8057 129.22 20.5772 128.325 21.0925C127.43 21.6078 126.402 21.8431 125.372 21.768C124.95 21.7689 124.53 21.7329 124.115 21.6604C123.723 21.5894 123.338 21.4892 122.962 21.3605V17.8354C123.257 17.9939 123.571 18.1154 123.896 18.1969C124.2 18.2728 124.512 18.3116 124.826 18.3122C125.227 18.3281 125.625 18.2365 125.979 18.0469C126.316 17.8253 126.583 17.5119 126.748 17.1436C127.011 16.5871 127.219 16.0065 127.371 15.4099L122.285 0.348633H126.548L128.585 7.30265C128.712 7.68706 128.824 8.09457 128.924 8.49435C129.024 8.89414 129.124 9.30544 129.22 9.7283C129.316 10.1511 129.404 10.597 129.481 11.0583H129.654C129.723 10.6047 129.792 10.1934 129.866 9.8244C129.939 9.45536 130.015 9.08629 130.104 8.72494C130.192 8.3636 130.285 7.97534 130.392 7.57171L132.257 0.360176L136.497 0.348633Z" fill="#818182"/>
<path d="M148.364 0.347387V3.86095H142.482V21.4785H138.419V0.335938L148.364 0.347387Z" fill="#818182"/>
<path d="M164.996 10.8846C165.012 12.4078 164.857 13.928 164.534 15.4168C164.276 16.6321 163.806 17.7927 163.147 18.8457C162.567 19.7558 161.763 20.5021 160.813 21.0138C159.78 21.5123 158.647 21.7712 157.5 21.7712C156.352 21.7712 155.22 21.5123 154.186 21.0138C153.229 20.4996 152.423 19.7459 151.845 18.8265C151.183 17.7637 150.713 16.5926 150.457 15.3668C150.134 13.8807 149.979 12.363 149.996 10.8423C149.945 8.82015 150.232 6.80369 150.846 4.87622C151.298 3.43239 152.181 2.16105 153.375 1.23202C154.584 0.385662 156.036 -0.0446898 157.511 0.00577589C159.03 -0.0579085 160.524 0.406634 161.74 1.32043C162.911 2.30173 163.767 3.60683 164.2 5.07228C164.775 6.95461 165.043 8.91707 164.996 10.8846ZM154.201 10.8846C154.18 12.2452 154.308 13.6041 154.586 14.9363C154.749 15.831 155.132 16.6711 155.701 17.3811C155.931 17.6361 156.211 17.8403 156.524 17.9807C156.838 18.1211 157.177 18.1945 157.52 18.1963C157.864 18.1981 158.204 18.1283 158.519 17.9912C158.833 17.8542 159.116 17.6529 159.349 17.4003C159.916 16.7044 160.294 15.8745 160.448 14.9901C160.725 13.6396 160.854 12.263 160.832 10.8846C160.832 8.409 160.557 6.56635 160.006 5.35673C159.46 4.14584 158.634 3.54233 157.538 3.54233C157.193 3.53776 156.85 3.6091 156.536 3.75124C156.221 3.89338 155.941 4.10292 155.716 4.36502C155.148 5.07944 154.765 5.92322 154.601 6.82136C154.319 8.15697 154.185 9.51963 154.201 10.8846Z" fill="#818182"/>
<path d="M181.152 21.4784H177.146V4.10681H174.182C174.098 5.23313 173.994 6.41331 173.879 7.69724C173.763 8.98117 173.64 10.2074 173.494 11.426C173.348 12.6446 173.237 13.7325 173.11 14.7127C172.983 15.693 172.86 16.4425 172.756 16.9807C172.555 17.9227 172.249 18.8394 171.845 19.7139C171.557 20.351 171.085 20.8868 170.488 21.2515C169.815 21.6008 169.062 21.7678 168.305 21.7359C167.939 21.7389 167.574 21.7133 167.213 21.659C166.939 21.6159 166.67 21.5451 166.41 21.4476V17.9879C166.575 18.078 166.751 18.149 166.932 18.1993C167.102 18.2433 167.276 18.2652 167.451 18.2647C167.595 18.2663 167.736 18.2388 167.869 18.184C168.001 18.1291 168.12 18.048 168.22 17.9456C168.48 17.6334 168.663 17.2649 168.755 16.8693C168.934 16.1879 169.063 15.494 169.139 14.7934C169.221 14.2476 169.318 13.4557 169.431 12.4178C169.544 11.3799 169.672 10.1972 169.816 8.86971C169.95 7.53965 170.089 6.14033 170.223 4.67188C170.358 3.20344 170.481 1.75429 170.607 0.328125H181.144L181.152 21.4784Z" fill="#818182"/>
<path d="M3.97312 39.8777L1.58595 32.9583H1.53208C1.53208 33.1159 1.55903 33.3428 1.5744 33.5926C1.58978 33.8425 1.60135 34.1462 1.61288 34.4537C1.62442 34.7612 1.61288 35.0572 1.61288 35.3301V39.8854H0.375V31.5859H2.29705L4.60351 38.2093H4.63814L7.00992 31.5859H8.93197V39.8854H7.62117V35.2725C7.62117 35.0188 7.62117 34.7459 7.62117 34.4499C7.62117 34.1539 7.6212 33.877 7.65195 33.6118C7.6827 33.3465 7.6788 33.1352 7.69034 32.9775H7.63656L5.16098 39.8969L3.97312 39.8777Z" fill="#818182"/>
<path d="M18.536 39.8776H13.8347V31.5781H18.536V32.7314H15.1955V34.984H18.3247V36.1373H15.1955V38.7436H18.536V39.8776Z" fill="#818182"/>
<path d="M26.5898 32.6169C26.2248 32.6112 25.8628 32.6845 25.5288 32.8321C25.2185 32.9746 24.947 33.1896 24.7369 33.4588C24.5086 33.751 24.34 34.0855 24.241 34.4429C24.1238 34.8646 24.0669 35.3007 24.0719 35.7383C24.0576 36.3028 24.1502 36.865 24.3448 37.3951C24.5025 37.8276 24.7915 38.1999 25.1713 38.46C25.5895 38.7266 26.0787 38.8606 26.5744 38.8444C26.9218 38.8453 27.2682 38.8105 27.6085 38.7406C27.9586 38.6702 28.304 38.5777 28.6425 38.4638V39.617C28.3123 39.7485 27.9698 39.8463 27.62 39.9092C27.2259 39.9712 26.8273 40.0007 26.4283 39.9976C25.6877 40.0279 24.9539 39.8451 24.314 39.4709C23.7531 39.1169 23.3164 38.597 23.0647 37.9833C22.7802 37.2684 22.6417 36.5037 22.6573 35.7345C22.6503 35.1503 22.7373 34.5689 22.9148 34.0123C23.0773 33.5152 23.3389 33.0562 23.6837 32.663C24.0226 32.2785 24.4445 31.9762 24.9176 31.7789C25.4534 31.5625 26.0274 31.4566 26.6051 31.4676C27.4179 31.4701 28.22 31.6525 28.9539 32.0019L28.4772 33.1243C28.1836 32.9893 27.8819 32.8725 27.5738 32.7745C27.256 32.6712 26.924 32.6181 26.5898 32.6169Z" fill="#818182"/>
<path d="M36.0319 39.8757H34.6635V32.7333H32.2186V31.5801H38.4383V32.7333H36.0165L36.0319 39.8757Z" fill="#818182"/>
<path d="M49.8284 35.7134C49.8349 36.3037 49.7546 36.8917 49.5901 37.4586C49.4437 37.9561 49.1964 38.418 48.8636 38.8156C48.5373 39.1984 48.1231 39.4965 47.6565 39.6844C47.1147 39.898 46.5358 40.0012 45.9536 39.9881C45.3638 40.0021 44.7771 39.8989 44.2276 39.6844C43.7587 39.4967 43.342 39.1987 43.0129 38.8156C42.6837 38.4173 42.4403 37.9553 42.2978 37.4586C42.1347 36.8876 42.0557 36.2958 42.0634 35.7019C42.048 34.9353 42.1906 34.1737 42.4823 33.4647C42.7463 32.8456 43.1981 32.3252 43.774 31.9769C44.441 31.6003 45.1997 31.4166 45.9651 31.4465C46.7164 31.4189 47.4606 31.6012 48.114 31.9731C48.6849 32.326 49.1342 32.8452 49.4017 33.4608C49.7005 34.1734 49.8459 34.9409 49.8284 35.7134ZM43.4934 35.7134C43.4814 36.2781 43.5699 36.8404 43.7547 37.3741C43.9037 37.8089 44.1846 38.1865 44.5582 38.4543C44.9811 38.7012 45.462 38.8313 45.9517 38.8313C46.4414 38.8313 46.9223 38.7012 47.3452 38.4543C47.7176 38.187 47.996 37.809 48.1408 37.3741C48.321 36.8394 48.4069 36.2775 48.3946 35.7134C48.4385 34.9121 48.2359 34.1166 47.8141 33.4339C47.6014 33.1503 47.3201 32.9254 46.9967 32.7802C46.6733 32.635 46.3184 32.5742 45.9651 32.6036C45.4704 32.5857 44.9821 32.7198 44.5659 32.988C44.1909 33.2528 43.9074 33.6276 43.7547 34.0605C43.5708 34.5918 43.4823 35.1513 43.4934 35.7134Z" fill="#818182"/>
<path d="M62.5005 31.5781C63.5692 31.5781 64.3533 31.7973 64.8454 32.2355C65.0959 32.4718 65.2916 32.7602 65.4184 33.0804C65.5453 33.4005 65.6004 33.7446 65.5797 34.0883C65.5814 34.4347 65.5256 34.779 65.4144 35.1071C65.3006 35.4318 65.1123 35.7254 64.8646 35.9643C64.5811 36.2354 64.2392 36.4379 63.8652 36.5563C63.3679 36.7117 62.8484 36.7843 62.3276 36.7715H61.4319V39.8776H60.071V31.5781H62.5005ZM62.4083 32.7122H61.4319V35.6298H62.2007C62.569 35.6381 62.9363 35.5875 63.2886 35.4799C63.5602 35.3973 63.7976 35.2286 63.9652 34.9994C64.1322 34.7443 64.2142 34.4429 64.1996 34.1384C64.2147 33.9382 64.1834 33.7373 64.108 33.5512C64.0327 33.3652 63.9154 33.1991 63.7653 33.0658C63.3656 32.7987 62.8875 32.6741 62.4083 32.7122Z" fill="#818182"/>
<path d="M76.3303 31.5781L73.6895 37.5212C73.4904 37.9909 73.2484 38.4413 72.9667 38.8666C72.7306 39.2171 72.4127 39.5048 72.0403 39.7046C71.5938 39.9098 71.1053 40.0073 70.6142 39.9891C70.4006 39.9889 70.1873 39.9734 69.976 39.9429C69.7782 39.918 69.5827 39.8769 69.3917 39.8199V38.5822C69.5695 38.6566 69.7552 38.7107 69.9452 38.7436C70.1416 38.7805 70.3412 38.7985 70.5411 38.7974C70.7761 38.8058 71.01 38.7612 71.2253 38.6667C71.4109 38.5808 71.5711 38.4483 71.6904 38.2823C71.8304 38.0846 71.9478 37.8718 72.0403 37.648L68.9996 31.582H70.4603L72.4132 35.6952C72.4478 35.7606 72.4862 35.8451 72.5324 35.9451C72.5785 36.045 72.6207 36.145 72.6669 36.2488C72.713 36.3526 72.7476 36.4487 72.7784 36.5371H72.8283C72.8552 36.4602 72.8859 36.3718 72.9282 36.268L73.0513 35.9451L73.1666 35.6568L74.9042 31.582L76.3303 31.5781Z" fill="#818182"/>
<path d="M83.6835 32.617C83.3173 32.6116 82.9542 32.685 82.6188 32.8322C82.3091 32.9757 82.0377 33.1904 81.8269 33.4588C81.5998 33.7513 81.4326 34.0858 81.3348 34.4429C81.2158 34.8642 81.1588 35.3006 81.1657 35.7384C81.1522 36.3025 81.2434 36.8643 81.4348 37.3952C81.5953 37.8272 81.8852 38.1991 82.2651 38.46C82.6833 38.7267 83.1725 38.8607 83.6682 38.8444C84.0155 38.8451 84.362 38.8103 84.7023 38.7406C85.0513 38.6707 85.3954 38.5782 85.7325 38.4639V39.6171C85.4026 39.7495 85.06 39.8474 84.71 39.9092C84.3158 39.9714 83.9172 40.001 83.5183 39.9976C82.7777 40.0269 82.0443 39.8441 81.404 39.471C80.8451 39.1156 80.4101 38.596 80.1585 37.9833C79.872 37.269 79.7333 36.5039 79.751 35.7345C79.744 35.1504 79.8311 34.5689 80.0086 34.0124C80.1711 33.5153 80.4327 33.0563 80.7775 32.6631C81.1164 32.2786 81.5383 31.9762 82.0114 31.7789C82.5471 31.5622 83.1211 31.4564 83.6989 31.4676C84.5084 31.4742 85.3064 31.6593 86.0362 32.0096L85.5595 33.132C85.2656 32.9976 84.9639 32.8809 84.6561 32.7823C84.3423 32.6778 84.0142 32.6221 83.6835 32.617Z" fill="#818182"/>
<path d="M93.7898 32.6169C93.4235 32.6109 93.0602 32.6842 92.725 32.8321C92.4153 32.9756 92.1441 33.1904 91.9332 33.4588C91.7063 33.752 91.538 34.0861 91.4373 34.4429C91.3201 34.8646 91.2632 35.3007 91.2682 35.7383C91.2558 36.3027 91.3483 36.8645 91.5411 37.3951C91.6989 37.8286 91.9894 38.2013 92.3714 38.46C92.7883 38.7265 93.2762 38.8606 93.7707 38.8444C94.118 38.8455 94.4645 38.8107 94.8047 38.7406C95.155 38.6707 95.5004 38.5782 95.8388 38.4638V39.617C95.5088 39.749 95.1662 39.8468 94.8163 39.9092C94.4222 39.9714 94.0236 40.001 93.6246 39.9976C92.884 40.0272 92.1504 39.8445 91.5103 39.4709C90.9515 39.1156 90.5164 38.5959 90.2648 37.9833C89.9769 37.2693 89.8369 36.5042 89.8535 35.7345C89.8477 35.1501 89.9361 34.5686 90.115 34.0123C90.2744 33.5139 90.5363 33.0543 90.8838 32.663C91.2227 32.2785 91.6447 31.9762 92.1177 31.7789C92.6522 31.5625 93.2249 31.4566 93.8014 31.4676C94.6153 31.4707 95.4186 31.6531 96.154 32.0019L95.6774 33.1243C95.3821 32.9899 95.0792 32.8731 94.7701 32.7745C94.4535 32.6715 94.1228 32.6183 93.7898 32.6169Z" fill="#818182"/>
<path d="M106.71 39.8776H105.126L101.717 35.6721V39.8776H100.352V31.5781H101.717V35.5953L105.061 31.5781H106.553L103.204 35.5837L106.71 39.8776Z" fill="#818182"/>
<path d="M117.9 35.7132C117.907 36.3038 117.825 36.8921 117.658 37.4584C117.513 37.9556 117.267 38.4176 116.935 38.8154C116.606 39.1975 116.191 39.4954 115.724 39.6842C115.182 39.8982 114.603 40.0014 114.021 39.9879C113.431 40.0016 112.845 39.8984 112.295 39.6842C111.827 39.4973 111.411 39.1991 111.084 38.8154C110.755 38.4171 110.512 37.9551 110.369 37.4584C110.206 36.8874 110.127 36.2956 110.135 35.7018C110.117 34.935 110.26 34.173 110.554 33.4645C110.818 32.8465 111.268 32.3264 111.841 31.9767C112.509 31.601 113.267 31.4174 114.033 31.4463C114.785 31.4188 115.53 31.6011 116.185 31.9729C116.756 32.3249 117.205 32.8445 117.469 33.4606C117.771 34.1724 117.918 34.9403 117.9 35.7132ZM111.565 35.7132C111.551 36.278 111.639 36.8407 111.826 37.3739C111.975 37.8087 112.256 38.1863 112.63 38.4541C113.052 38.701 113.533 38.8311 114.023 38.8311C114.513 38.8311 114.994 38.701 115.416 38.4541C115.789 38.1868 116.067 37.8088 116.212 37.3739C116.389 36.8385 116.474 36.2769 116.462 35.7132C116.507 34.9123 116.306 34.1168 115.885 33.4337C115.672 33.1501 115.39 32.9253 115.066 32.7801C114.742 32.6349 114.386 32.5741 114.033 32.6034C113.538 32.5862 113.05 32.7203 112.633 32.9878C112.259 33.2528 111.977 33.6277 111.826 34.0603C111.64 34.5911 111.552 35.151 111.565 35.7132Z" fill="#818182"/>
<path d="M122.428 31.5773H123.669V35.975C123.669 36.1634 123.669 36.3594 123.669 36.6016C123.669 36.8438 123.67 37.0475 123.65 37.2628C123.631 37.478 123.65 37.6741 123.623 37.8394C123.597 38.0047 123.623 38.1315 123.6 38.2238H123.639L127.867 31.5927H129.451V39.8922H128.221V35.5329C128.221 35.3253 128.221 35.1024 128.221 34.864C128.221 34.6295 128.221 34.3989 128.248 34.1759C128.275 33.953 128.271 33.7532 128.282 33.584C128.294 33.4149 128.282 33.2919 128.306 33.1996H128.252L124.023 39.8768H122.428V31.5773ZM128.54 28.9326C128.512 29.2878 128.405 29.6322 128.225 29.9398C128.042 30.2304 127.773 30.4572 127.456 30.5894C127.016 30.7565 126.546 30.8335 126.076 30.8162C125.603 30.8354 125.132 30.761 124.688 30.5971C124.376 30.4735 124.116 30.247 123.95 29.9551C123.788 29.6375 123.695 29.289 123.677 28.9326H124.896C124.89 29.2471 125.009 29.5511 125.226 29.7783C125.489 29.9258 125.785 30.0034 126.086 30.0034C126.387 30.0034 126.682 29.9258 126.945 29.7783C127.062 29.673 127.157 29.5446 127.224 29.4011C127.29 29.2576 127.326 29.1021 127.329 28.9442L128.54 28.9326Z" fill="#818182"/>
<path d="M143.639 32.617C143.272 32.6116 142.909 32.685 142.574 32.8322C142.264 32.9757 141.993 33.1904 141.782 33.4588C141.555 33.7513 141.388 34.0858 141.29 34.4429C141.171 34.8642 141.114 35.3006 141.121 35.7384C141.107 36.3025 141.198 36.8643 141.39 37.3952C141.55 37.8272 141.84 38.1991 142.22 38.46C142.638 38.7267 143.127 38.8607 143.623 38.8444C143.97 38.8451 144.317 38.8103 144.657 38.7406C145.006 38.6707 145.35 38.5782 145.687 38.4639V39.6171C145.359 39.749 145.017 39.8469 144.669 39.9092C144.273 39.9714 143.873 40.001 143.473 39.9976C142.733 40.0269 141.999 39.8441 141.359 39.471C140.8 39.1156 140.365 38.596 140.113 37.9833C139.827 37.269 139.688 36.5039 139.706 35.7345C139.699 35.1504 139.786 34.5689 139.964 34.0124C140.126 33.5153 140.388 33.0563 140.732 32.6631C141.071 32.2786 141.493 31.9762 141.966 31.7789C142.502 31.5622 143.076 31.4564 143.654 31.4676C144.467 31.4725 145.269 31.6576 146.003 32.0096L145.526 33.132C145.232 32.9976 144.93 32.8809 144.623 32.7823C144.305 32.6766 143.973 32.6209 143.639 32.617Z" fill="#818182"/>
<path d="M150.204 31.5781H151.45V35.9758C151.45 36.1642 151.45 36.3602 151.45 36.6024C151.45 36.8446 151.45 37.0483 151.45 37.2636C151.45 37.4788 151.431 37.6749 151.423 37.8402C151.415 38.0055 151.423 38.1323 151.404 38.2246H151.442L155.671 31.5935H157.255V39.893H155.994V35.5337C155.994 35.3261 155.994 35.1032 155.994 34.8649C155.994 34.6304 155.994 34.3997 156.021 34.1767C156.048 33.9538 156.044 33.754 156.055 33.5848C156.067 33.4157 156.074 33.2927 156.078 33.2004H156.028L151.8 39.8776H150.204V31.5781Z" fill="#818182"/>
<path d="M168.372 39.8776H167.011V32.7352H164.651C164.601 33.1196 164.547 33.5425 164.489 33.9807C164.432 34.4189 164.374 34.8649 164.312 35.307C164.251 35.749 164.193 36.1681 164.132 36.5679C164.07 36.9676 164.005 37.3175 163.939 37.625C163.858 38.0657 163.73 38.4962 163.555 38.9089C163.423 39.231 163.205 39.5105 162.925 39.7162C162.615 39.9166 162.251 40.0148 161.883 39.9968C161.742 39.9975 161.602 39.9846 161.464 39.9583C161.333 39.9384 161.205 39.9075 161.079 39.866V38.7397C161.175 38.7761 161.272 38.8056 161.372 38.8281C161.481 38.8551 161.593 38.868 161.706 38.8666C161.795 38.8692 161.884 38.8506 161.965 38.8126C162.046 38.7745 162.116 38.718 162.171 38.6475C162.312 38.4614 162.415 38.2499 162.475 38.0247C162.566 37.7071 162.64 37.385 162.698 37.0598C162.74 36.8369 162.79 36.5409 162.852 36.1719C162.913 35.8029 162.978 35.3761 163.051 34.8918C163.125 34.4074 163.197 33.8846 163.274 33.3234C163.351 32.7621 163.428 32.1701 163.505 31.5781H168.356L168.372 39.8776Z" fill="#818182"/>
<path d="M173.303 39.8776V31.5781H174.667V34.9341H175.609C176.238 34.9113 176.864 35.0172 177.45 35.2454C177.876 35.4189 178.235 35.7231 178.477 36.1142C178.696 36.495 178.807 36.9281 178.8 37.3674C178.815 37.712 178.754 38.0558 178.621 38.3741C178.488 38.6924 178.287 38.9774 178.031 39.2087C177.518 39.6546 176.719 39.8776 175.632 39.8776H173.303ZM174.667 38.7243H175.574C176.054 38.7547 176.531 38.6423 176.947 38.4014C177.106 38.2798 177.233 38.1199 177.314 37.9365C177.395 37.753 177.429 37.5519 177.412 37.352C177.426 37.0785 177.349 36.8081 177.193 36.5832C177.023 36.3868 176.793 36.2518 176.539 36.1987C176.188 36.1181 175.827 36.0808 175.467 36.0873H174.667V38.7243ZM179.941 39.8776V31.5781H181.302V39.8776H179.941Z" fill="#818182"/>
</svg>
