<svg width="150" height="50" viewBox="0 0 150 50" fill="none" xmlns="http://www.w3.org/2000/svg">
<g clip-path="url(#clip0_85_140)">
<path d="M64.6367 14.7142V13.6412C63.4871 13.5799 62.5674 13.2274 61.8623 12.5683C61.1572 11.9091 60.8047 11.1121 60.8047 10.1771C60.8047 9.24207 61.1572 8.44501 61.8623 7.78591C62.5674 7.1268 63.4871 6.77426 64.6367 6.71295V5.80859H66.9052V6.71295C68.0548 6.77426 68.9745 7.14213 69.6796 7.78591C70.3847 8.42969 70.7372 9.24207 70.7372 10.1771C70.7372 11.1121 70.3847 11.9245 69.6796 12.5683C68.9745 13.212 68.0548 13.5799 66.9052 13.6412V14.7142H64.6367ZM64.6367 11.6639V8.67493C64.1615 8.70559 63.7783 8.85887 63.5024 9.13477C63.2265 9.41068 63.0886 9.74789 63.0886 10.1771C63.0886 10.6063 63.2265 10.9435 63.5024 11.2194C63.7783 11.4953 64.1615 11.6332 64.6367 11.6792V11.6639ZM66.9052 8.67493V11.6639C67.3804 11.6332 67.7636 11.48 68.0395 11.2041C68.3154 10.9282 68.4534 10.5909 68.4534 10.1618C68.4534 9.73257 68.3154 9.38002 68.0395 9.11945C67.7636 8.85887 67.3804 8.70559 66.9052 8.67493Z" fill="#404040"/>
<path d="M72.0781 14.4707V6.10156H78.4852V8.14019H74.362V9.33578H77.5349V11.2518H74.362V12.4474H78.6079V14.486H72.0935L72.0781 14.4707Z" fill="#404040"/>
<path d="M79.3825 16.1567V12.3247H79.8577C80.0723 12.1408 80.2715 11.8649 80.4555 11.5277C80.854 10.7766 81.0533 9.8416 81.0533 8.73798V6.10156H87.2764V12.3247H88.2268V16.1567H85.9582V14.486H81.6511V16.1567H79.3672H79.3825ZM82.2489 12.3247H84.9926V8.26281H83.3218V8.73798C83.3218 9.85693 83.1379 10.7919 82.7853 11.5277C82.6321 11.8496 82.4634 12.1255 82.2489 12.3247Z" fill="#404040"/>
<path d="M89.5625 14.4707V6.10156H95.9696V8.14019H91.8464V9.33578H95.0193V11.2518H91.8464V12.4474H96.0922V14.486H89.5778L89.5625 14.4707Z" fill="#404040"/>
<path d="M97.6094 14.4707V6.10156H101.38C102.3 6.10156 103.051 6.37747 103.618 6.92928C104.2 7.48108 104.492 8.18617 104.492 9.02921C104.492 9.87226 104.2 10.5773 103.618 11.1292C103.035 11.681 102.3 11.9569 101.38 11.9569H99.8779V14.4707H97.6094ZM99.8779 9.91824H101.257C101.518 9.91824 101.748 9.82627 101.932 9.65766C102.116 9.47373 102.208 9.27446 102.208 9.02921C102.208 8.78397 102.116 8.5847 101.932 8.40077C101.748 8.21683 101.518 8.12486 101.257 8.12486H99.8779V9.91824Z" fill="#404040"/>
<path d="M104.445 14.4704L107.618 6.08594H110.132L113.305 14.4704H110.852L110.255 12.677H107.496L106.898 14.4704H104.445ZM108.093 10.8223H109.642L108.89 8.43112H108.844L108.093 10.8223Z" fill="#404040"/>
<path d="M114.32 14.4707V6.10156H116.589V12.3247H119.394V6.10156H121.662V12.3247H122.612V16.1567H120.344V14.486H114.305L114.32 14.4707Z" fill="#404040"/>
<path d="M123.961 14.4707V6.10156H126.229V10.7153L129.816 6.10156H131.794V14.486H129.525V9.87226L125.938 14.486H123.961V14.4707Z" fill="#404040"/>
<path d="M133.047 14.4704L134.779 11.3588C134.503 11.2362 134.273 11.0522 134.059 10.8376C133.583 10.3625 133.338 9.73401 133.338 8.96761C133.338 8.15522 133.629 7.46546 134.196 6.91365C134.779 6.36184 135.499 6.08594 136.388 6.08594H140.343V14.4704H138.074V11.8339H136.818L135.438 14.4704H133.047ZM136.511 9.79532H138.059V8.12456H136.511C136.25 8.12456 136.036 8.2012 135.867 8.36981C135.699 8.52309 135.622 8.72236 135.622 8.96761C135.622 9.21285 135.714 9.41212 135.867 9.5654C136.036 9.71868 136.25 9.79532 136.511 9.79532Z" fill="#404040"/>
<path d="M60.5622 27.4533L61.9417 25.9511C62.1257 26.1351 62.3403 26.319 62.5855 26.457C63.1373 26.7942 63.6891 26.9628 64.2103 26.9628C64.7314 26.9628 65.1913 26.8248 65.5745 26.5643C65.9423 26.3037 66.2182 25.9818 66.3715 25.5833H63.2599V23.6673H66.3715C66.2182 23.2841 65.9423 22.9468 65.5745 22.6863C65.2066 22.4257 64.7468 22.2877 64.2103 22.2877C63.6738 22.2877 63.1373 22.4563 62.6008 22.8089C62.3709 22.9468 62.1716 23.1154 61.9877 23.3147L60.6082 21.8126C60.8534 21.5213 61.16 21.2608 61.4972 21.0155C62.2789 20.479 63.1833 20.2031 64.1949 20.2031C65.5285 20.2031 66.6321 20.6323 67.5211 21.4907C68.4101 22.349 68.8547 23.3914 68.8547 24.6329C68.8547 25.8745 68.4101 26.9168 67.5211 27.7752C66.6321 28.6335 65.5132 29.0627 64.1949 29.0627C63.1526 29.0627 62.2483 28.8021 61.4666 28.2657C61.114 28.0204 60.8075 27.7598 60.5469 27.4533H60.5622Z" fill="#404040"/>
<path d="M71.908 28.8297V22.4839H69.5781V20.4453H76.5217V22.4839H74.1919V28.8297H71.9233H71.908Z" fill="#404040"/>
<path d="M77.7031 28.8297V20.4453H79.9717V23.4956H83.022V20.4453H85.2905V28.8297H83.022V25.6568H79.9717V28.8297H77.7031Z" fill="#404040"/>
<path d="M88.0601 27.7908C87.1711 26.9324 86.7266 25.8901 86.7266 24.6485C86.7266 23.407 87.1711 22.3647 88.0601 21.5063C88.9491 20.6479 90.0681 20.2188 91.3863 20.2188C92.7045 20.2188 93.8234 20.6479 94.7125 21.5063C95.6015 22.3647 96.046 23.407 96.046 24.6485C96.046 25.8901 95.6015 26.9324 94.7125 27.7908C93.8234 28.6492 92.7045 29.0783 91.3863 29.0783C90.0681 29.0783 88.9491 28.6492 88.0601 27.7908ZM89.7309 22.9931C89.2863 23.4376 89.0564 23.9894 89.0564 24.6485C89.0564 25.3077 89.2863 25.8595 89.7309 26.304C90.1754 26.7485 90.7272 26.9784 91.3863 26.9784C92.0454 26.9784 92.5972 26.7485 93.0417 26.304C93.4862 25.8595 93.7161 25.3077 93.7161 24.6485C93.7161 23.9894 93.4862 23.4376 93.0417 22.9931C92.5972 22.5486 92.0454 22.3187 91.3863 22.3187C90.7272 22.3187 90.1754 22.5486 89.7309 22.9931Z" fill="#404040"/>
<path d="M104.045 25.9051L105.425 27.4533C105.149 27.7598 104.843 28.0357 104.49 28.2657C103.708 28.8021 102.804 29.0627 101.777 29.0627C100.443 29.0627 99.3398 28.6335 98.4507 27.7752C97.5617 26.9168 97.1172 25.8745 97.1172 24.6329C97.1172 23.3914 97.5617 22.349 98.4507 21.4907C99.3398 20.6323 100.459 20.2031 101.777 20.2031C102.789 20.2031 103.678 20.479 104.475 21.0155C104.827 21.2608 105.118 21.5367 105.364 21.8126L103.984 23.3607C103.8 23.1614 103.601 22.9775 103.371 22.8242C102.85 22.4717 102.313 22.2877 101.762 22.2877C101.102 22.2877 100.551 22.5177 100.106 22.9622C99.6616 23.4067 99.4317 23.9585 99.4317 24.6176C99.4317 25.2767 99.6616 25.8285 100.106 26.273C100.551 26.7175 101.102 26.9475 101.762 26.9475C102.298 26.9475 102.85 26.7635 103.386 26.411C103.632 26.2577 103.846 26.0738 104.03 25.8745L104.045 25.9051Z" fill="#404040"/>
<path d="M106.609 28.8297V20.4453H114.089V28.8297H111.821V22.6066H108.893V28.8297H106.625H106.609Z" fill="#404040"/>
<path d="M116.849 27.7908C115.96 26.9324 115.516 25.8901 115.516 24.6485C115.516 23.407 115.96 22.3647 116.849 21.5063C117.738 20.6479 118.857 20.2188 120.175 20.2188C121.494 20.2188 122.612 20.6479 123.502 21.5063C124.391 22.3647 124.835 23.407 124.835 24.6485C124.835 25.8901 124.391 26.9324 123.502 27.7908C122.612 28.6492 121.494 29.0783 120.175 29.0783C118.857 29.0783 117.738 28.6492 116.849 27.7908ZM118.52 22.9931C118.075 23.4376 117.845 23.9894 117.845 24.6485C117.845 25.3077 118.075 25.8595 118.52 26.304C118.964 26.7485 119.516 26.9784 120.175 26.9784C120.834 26.9784 121.386 26.7485 121.831 26.304C122.275 25.8595 122.505 25.3077 122.505 24.6485C122.505 23.9894 122.275 23.4376 121.831 22.9931C121.386 22.5486 120.834 22.3187 120.175 22.3187C119.516 22.3187 118.964 22.5486 118.52 22.9931Z" fill="#404040"/>
<path d="M126.258 28.8297V20.4453H130.029C130.948 20.4453 131.699 20.7212 132.266 21.273C132.849 21.8248 133.14 22.5299 133.14 23.373C133.14 24.216 132.849 24.9211 132.266 25.4729C131.684 26.0247 130.948 26.3006 130.029 26.3006H128.526V28.8144H126.258V28.8297ZM128.526 24.2773H129.906C130.166 24.2773 130.396 24.1853 130.58 24.0167C130.764 23.8328 130.856 23.6335 130.856 23.3883C130.856 23.143 130.764 22.9438 130.58 22.7598C130.396 22.5759 130.166 22.4839 129.906 22.4839H128.526V24.2773Z" fill="#404040"/>
<path d="M136.361 28.8297V22.4839H134.031V20.4453H140.975V22.4839H138.645V28.8297H136.376H136.361Z" fill="#404040"/>
<path d="M140.609 28.8297L143.782 20.4453H146.296L149.469 28.8297H147.016L146.419 27.0364H143.66L143.062 28.8297H140.609ZM144.257 25.1817H145.806L145.054 22.7905H145.009L144.257 25.1817Z" fill="#404040"/>
<path d="M61.2812 43.193V34.8086H65.0519C65.9716 34.8086 66.7227 35.0845 67.2898 35.6363C67.8723 36.1881 68.1635 36.8932 68.1635 37.7362C68.1635 38.5793 67.8723 39.2844 67.2898 39.8362C66.7074 40.388 65.9563 40.6639 65.0519 40.6639H63.5498V43.1777H61.2812V43.193ZM63.5498 38.6406H64.9293C65.1899 38.6406 65.4198 38.5486 65.6038 38.38C65.7877 38.1961 65.8797 37.9968 65.8797 37.7516C65.8797 37.5063 65.7877 37.3071 65.6038 37.1231C65.4198 36.9392 65.1899 36.8472 64.9293 36.8472H63.5498V38.6406Z" fill="#404040"/>
<path d="M70.521 42.1502C69.632 41.2918 69.1875 40.2495 69.1875 39.0079C69.1875 37.7664 69.632 36.724 70.521 35.8657C71.4101 35.0073 72.529 34.5781 73.8472 34.5781C75.1654 34.5781 76.2844 35.0073 77.1734 35.8657C78.0624 36.724 78.5069 37.7664 78.5069 39.0079C78.5069 40.2495 78.0624 41.2918 77.1734 42.1502C76.2844 43.0085 75.1654 43.4377 73.8472 43.4377C72.529 43.4377 71.4101 43.0085 70.521 42.1502ZM72.1918 37.3525C71.7473 37.797 71.5174 38.3488 71.5174 39.0079C71.5174 39.667 71.7473 40.2188 72.1918 40.6634C72.6363 41.1079 73.1881 41.3378 73.8472 41.3378C74.5063 41.3378 75.0581 41.1079 75.5026 40.6634C75.9472 40.2188 76.1771 39.667 76.1771 39.0079C76.1771 38.3488 75.9472 37.797 75.5026 37.3525C75.0581 36.908 74.5063 36.6781 73.8472 36.6781C73.1881 36.6781 72.6363 36.908 72.1918 37.3525Z" fill="#404040"/>
<path d="M86.5142 40.2645L87.8937 41.8127C87.6178 42.1192 87.3113 42.3951 86.9587 42.625C86.177 43.1615 85.2726 43.4221 84.2457 43.4221C82.9121 43.4221 81.8085 42.9929 80.9195 42.1345C80.0305 41.2762 79.5859 40.2339 79.5859 38.9923C79.5859 37.7507 80.0305 36.7084 80.9195 35.8501C81.8085 34.9917 82.9274 34.5625 84.2457 34.5625C85.242 34.5625 86.1463 34.8384 86.9434 35.3749C87.2959 35.6201 87.5872 35.896 87.8324 36.1719L86.4529 37.7201C86.269 37.5208 86.0697 37.3369 85.8398 37.1836C85.3186 36.831 84.7821 36.6471 84.2303 36.6471C83.5712 36.6471 83.0194 36.877 82.5749 37.3215C82.1304 37.7661 81.9005 38.3179 81.9005 38.977C81.9005 39.6361 82.1304 40.1879 82.5749 40.6324C83.0194 41.0769 83.5712 41.3068 84.2303 41.3068C84.7668 41.3068 85.3186 41.1229 85.8551 40.7704C86.085 40.6171 86.3149 40.4331 86.4989 40.2339L86.5142 40.2645Z" fill="#404040"/>
<path d="M95.3736 40.2645L96.7531 41.8127C96.4772 42.1192 96.1706 42.3951 95.8181 42.625C95.0364 43.1615 94.132 43.4221 93.105 43.4221C91.7715 43.4221 90.6679 42.9929 89.7788 42.1345C88.8898 41.2762 88.4453 40.2339 88.4453 38.9923C88.4453 37.7507 88.8898 36.7084 89.7788 35.8501C90.6679 34.9917 91.7868 34.5625 93.105 34.5625C94.1167 34.5625 95.0057 34.8384 95.8028 35.3749C96.1553 35.6201 96.4465 35.896 96.6918 36.1719L95.3123 37.7201C95.1283 37.5208 94.9291 37.3369 94.6991 37.1836C94.178 36.831 93.6415 36.6471 93.0897 36.6471C92.4306 36.6471 91.8788 36.877 91.4343 37.3215C90.9898 37.7661 90.7598 38.3179 90.7598 38.977C90.7598 39.6361 90.9898 40.1879 91.4343 40.6324C91.8788 41.0769 92.4306 41.3068 93.0897 41.3068C93.6262 41.3068 94.178 41.1229 94.7145 40.7704C94.9444 40.6171 95.159 40.4331 95.3582 40.2339L95.3736 40.2645Z" fill="#404040"/>
<path d="M97.9141 43.193V34.8086H100.183V39.4223L103.769 34.8086H105.747V43.193H103.478V38.5793L99.8914 43.193H97.9141Z" fill="#404040"/>
<path d="M107.664 43.193V34.8086H109.933V39.4223L113.519 34.8086H115.497V43.193H113.228V38.5793L109.641 43.193H107.664Z" fill="#404040"/>
<path d="M18.681 44.2371C27.7729 44.2371 35.1433 36.8667 35.1433 27.7748C35.1433 18.6829 27.7729 11.3125 18.681 11.3125C9.58917 11.3125 2.21875 18.6829 2.21875 27.7748C2.21875 36.8667 9.58917 44.2371 18.681 44.2371Z" fill="url(#paint0_linear_85_140)"/>
<path d="M18.6853 43.2105C27.21 43.2105 34.1206 36.2999 34.1206 27.7752C34.1206 19.2505 27.21 12.3398 18.6853 12.3398C10.1606 12.3398 3.25 19.2505 3.25 27.7752C3.25 36.2999 10.1606 43.2105 18.6853 43.2105Z" fill="white"/>
<mask id="mask0_85_140" style="mask-type:luminance" maskUnits="userSpaceOnUse" x="3" y="12" width="32" height="32">
<path d="M18.6853 43.2105C27.21 43.2105 34.1206 36.2999 34.1206 27.7752C34.1206 19.2505 27.21 12.3398 18.6853 12.3398C10.1606 12.3398 3.25 19.2505 3.25 27.7752C3.25 36.2999 10.1606 43.2105 18.6853 43.2105Z" fill="white"/>
</mask>
<g mask="url(#mask0_85_140)">
<path d="M43.8234 33.1875H0.03125V38.445H43.8234V33.1875Z" fill="#545454"/>
</g>
<mask id="mask1_85_140" style="mask-type:luminance" maskUnits="userSpaceOnUse" x="3" y="12" width="32" height="32">
<path d="M18.6853 43.2105C27.21 43.2105 34.1206 36.2999 34.1206 27.7752C34.1206 19.2505 27.21 12.3398 18.6853 12.3398C10.1606 12.3398 3.25 19.2505 3.25 27.7752C3.25 36.2999 10.1606 43.2105 18.6853 43.2105Z" fill="white"/>
</mask>
<g mask="url(#mask1_85_140)">
<path d="M43.8234 22.6562H0.03125V32.5122H43.8234V22.6562Z" fill="#424242"/>
</g>
<mask id="mask2_85_140" style="mask-type:luminance" maskUnits="userSpaceOnUse" x="3" y="12" width="32" height="32">
<path d="M18.6853 43.2105C27.21 43.2105 34.1206 36.2999 34.1206 27.7752C34.1206 19.2505 27.21 12.3398 18.6853 12.3398C10.1606 12.3398 3.25 19.2505 3.25 27.7752C3.25 36.2999 10.1606 43.2105 18.6853 43.2105Z" fill="white"/>
</mask>
<g mask="url(#mask2_85_140)">
<path d="M43.8234 38.9648H0.03125V42.7509H43.8234V38.9648Z" fill="#545454"/>
</g>
<mask id="mask3_85_140" style="mask-type:luminance" maskUnits="userSpaceOnUse" x="3" y="12" width="32" height="32">
<path d="M18.6853 43.2105C27.21 43.2105 34.1206 36.2999 34.1206 27.7752C34.1206 19.2505 27.21 12.3398 18.6853 12.3398C10.1606 12.3398 3.25 19.2505 3.25 27.7752C3.25 36.2999 10.1606 43.2105 18.6853 43.2105Z" fill="white"/>
</mask>
<g mask="url(#mask3_85_140)">
<path d="M33.7495 11.2656H1.86719V21.9493H33.7495V11.2656Z" fill="#D6D6D6"/>
</g>
<mask id="mask4_85_140" style="mask-type:luminance" maskUnits="userSpaceOnUse" x="1" y="3" width="32" height="32">
<path d="M16.9978 34.0581C25.5225 34.0581 32.4331 27.1475 32.4331 18.6228C32.4331 10.0981 25.5225 3.1875 16.9978 3.1875C8.47313 3.1875 1.5625 10.0981 1.5625 18.6228C1.5625 27.1475 8.47313 34.0581 16.9978 34.0581Z" fill="white"/>
</mask>
<g mask="url(#mask4_85_140)">
<mask id="mask5_85_140" style="mask-type:luminance" maskUnits="userSpaceOnUse" x="3" y="12" width="32" height="32">
<path d="M18.6853 43.2105C27.21 43.2105 34.1206 36.2999 34.1206 27.7752C34.1206 19.2505 27.21 12.3398 18.6853 12.3398C10.1606 12.3398 3.25 19.2505 3.25 27.7752C3.25 36.2999 10.1606 43.2105 18.6853 43.2105Z" fill="white"/>
</mask>
<g mask="url(#mask5_85_140)">
<path d="M18.3316 22.6562H1.97656V32.5122H18.3316V22.6562Z" fill="#6C6C6C"/>
</g>
</g>
<mask id="mask6_85_140" style="mask-type:luminance" maskUnits="userSpaceOnUse" x="10" y="13" width="31" height="31">
<path d="M25.2293 43.318C33.39 43.318 40.0055 36.7025 40.0055 28.5418C40.0055 20.3812 33.39 13.7656 25.2293 13.7656C17.0687 13.7656 10.4531 20.3812 10.4531 28.5418C10.4531 36.7025 17.0687 43.318 25.2293 43.318Z" fill="white"/>
</mask>
<g mask="url(#mask6_85_140)">
<mask id="mask7_85_140" style="mask-type:luminance" maskUnits="userSpaceOnUse" x="3" y="12" width="32" height="32">
<path d="M18.6853 43.2105C27.21 43.2105 34.1206 36.2999 34.1206 27.7752C34.1206 19.2505 27.21 12.3398 18.6853 12.3398C10.1606 12.3398 3.25 19.2505 3.25 27.7752C3.25 36.2999 10.1606 43.2105 18.6853 43.2105Z" fill="white"/>
</mask>
<g mask="url(#mask7_85_140)">
<path d="M43.8217 22.6562H23.3281V32.5122H43.8217V22.6562Z" fill="#757575"/>
</g>
</g>
<mask id="mask8_85_140" style="mask-type:luminance" maskUnits="userSpaceOnUse" x="10" y="13" width="31" height="31">
<path d="M25.2293 43.318C33.39 43.318 40.0055 36.7025 40.0055 28.5418C40.0055 20.3812 33.39 13.7656 25.2293 13.7656C17.0687 13.7656 10.4531 20.3812 10.4531 28.5418C10.4531 36.7025 17.0687 43.318 25.2293 43.318Z" fill="white"/>
</mask>
<g mask="url(#mask8_85_140)">
<mask id="mask9_85_140" style="mask-type:luminance" maskUnits="userSpaceOnUse" x="3" y="12" width="32" height="32">
<path d="M18.6853 43.2105C27.21 43.2105 34.1206 36.2999 34.1206 27.7752C34.1206 19.2505 27.21 12.3398 18.6853 12.3398C10.1606 12.3398 3.25 19.2505 3.25 27.7752C3.25 36.2999 10.1606 43.2105 18.6853 43.2105Z" fill="white"/>
</mask>
<g mask="url(#mask9_85_140)">
<path d="M34.3188 33.1875H2.78906V38.445H34.3188V33.1875Z" fill="#6F6F6F"/>
</g>
</g>
<mask id="mask10_85_140" style="mask-type:luminance" maskUnits="userSpaceOnUse" x="10" y="13" width="31" height="31">
<path d="M25.2293 43.318C33.39 43.318 40.0055 36.7025 40.0055 28.5418C40.0055 20.3812 33.39 13.7656 25.2293 13.7656C17.0687 13.7656 10.4531 20.3812 10.4531 28.5418C10.4531 36.7025 17.0687 43.318 25.2293 43.318Z" fill="white"/>
</mask>
<g mask="url(#mask10_85_140)">
<mask id="mask11_85_140" style="mask-type:luminance" maskUnits="userSpaceOnUse" x="3" y="12" width="32" height="32">
<path d="M18.6853 43.2105C27.21 43.2105 34.1206 36.2999 34.1206 27.7752C34.1206 19.2505 27.21 12.3398 18.6853 12.3398C10.1606 12.3398 3.25 19.2505 3.25 27.7752C3.25 36.2999 10.1606 43.2105 18.6853 43.2105Z" fill="white"/>
</mask>
<g mask="url(#mask11_85_140)">
<path d="M29.9836 38.9648H8.57031V42.7509H29.9836V38.9648Z" fill="#6F6F6F"/>
</g>
</g>
<mask id="mask12_85_140" style="mask-type:luminance" maskUnits="userSpaceOnUse" x="10" y="13" width="23" height="22">
<path d="M10.4531 28.5418C10.4531 30.0287 10.6524 31.5001 11.1122 32.8797C12.9516 33.6461 14.9442 34.0599 17.0442 34.0599C25.5206 34.0599 32.4335 27.1623 32.4335 18.6246C32.4335 17.5516 32.3262 16.4787 32.1269 15.4517C30.0883 14.3787 27.7278 13.7656 25.2293 13.7656C17.1055 13.7656 10.4531 20.4027 10.4531 28.5418Z" fill="white"/>
</mask>
<g mask="url(#mask12_85_140)">
<mask id="mask13_85_140" style="mask-type:luminance" maskUnits="userSpaceOnUse" x="3" y="12" width="32" height="32">
<path d="M18.6853 43.2105C27.21 43.2105 34.1206 36.2999 34.1206 27.7752C34.1206 19.2505 27.21 12.3398 18.6853 12.3398C10.1606 12.3398 3.25 19.2505 3.25 27.7752C3.25 36.2999 10.1606 43.2105 18.6853 43.2105Z" fill="white"/>
</mask>
<g mask="url(#mask13_85_140)">
<path d="M34.0615 22.6562H8.20312V32.5122H34.0615V22.6562Z" fill="#C2C2C2"/>
</g>
</g>
<mask id="mask14_85_140" style="mask-type:luminance" maskUnits="userSpaceOnUse" x="10" y="13" width="23" height="22">
<path d="M10.4531 28.5418C10.4531 30.0287 10.6524 31.5001 11.1122 32.8797C12.9516 33.6461 14.9442 34.0599 17.0442 34.0599C25.5206 34.0599 32.4335 27.1623 32.4335 18.6246C32.4335 17.5516 32.3262 16.4787 32.1269 15.4517C30.0883 14.3787 27.7278 13.7656 25.2293 13.7656C17.1055 13.7656 10.4531 20.4027 10.4531 28.5418Z" fill="white"/>
</mask>
<g mask="url(#mask14_85_140)">
<mask id="mask15_85_140" style="mask-type:luminance" maskUnits="userSpaceOnUse" x="3" y="12" width="32" height="32">
<path d="M18.6853 43.2105C27.21 43.2105 34.1206 36.2999 34.1206 27.7752C34.1206 19.2505 27.21 12.3398 18.6853 12.3398C10.1606 12.3398 3.25 19.2505 3.25 27.7752C3.25 36.2999 10.1606 43.2105 18.6853 43.2105Z" fill="white"/>
</mask>
<g mask="url(#mask15_85_140)">
<path d="M34.0615 22.6562H8.20312V32.5122H34.0615V22.6562Z" fill="#C2C2C2"/>
</g>
</g>
<mask id="mask16_85_140" style="mask-type:luminance" maskUnits="userSpaceOnUse" x="10" y="13" width="23" height="22">
<path d="M10.4531 28.5418C10.4531 30.0287 10.6524 31.5001 11.1122 32.8797C12.9516 33.6461 14.9442 34.0599 17.0442 34.0599C25.5206 34.0599 32.4335 27.1623 32.4335 18.6246C32.4335 17.5516 32.3262 16.4787 32.1269 15.4517C30.0883 14.3787 27.7278 13.7656 25.2293 13.7656C17.1055 13.7656 10.4531 20.4027 10.4531 28.5418Z" fill="white"/>
</mask>
<g mask="url(#mask16_85_140)">
<mask id="mask17_85_140" style="mask-type:luminance" maskUnits="userSpaceOnUse" x="3" y="12" width="32" height="32">
<path d="M18.6853 43.2105C27.21 43.2105 34.1206 36.2999 34.1206 27.7752C34.1206 19.2505 27.21 12.3398 18.6853 12.3398C10.1606 12.3398 3.25 19.2505 3.25 27.7752C3.25 36.2999 10.1606 43.2105 18.6853 43.2105Z" fill="white"/>
</mask>
<g mask="url(#mask17_85_140)">
<path d="M43.8234 11.2656H0.03125V21.9493H43.8234V11.2656Z" fill="#E1E1E1"/>
</g>
</g>
<path d="M34.5326 2.88129C23.0213 -3.2959 8.76621 0.781354 2.68098 12.0321C0.642356 15.8181 -0.170029 19.9567 0.0292349 23.988C0.642356 12.1394 10.4063 2.72801 22.4081 2.72801C34.41 2.72801 44.8484 12.7985 44.8484 25.1682C44.8484 33.1388 40.7098 40.1437 34.4253 44.129C38.5179 42.0904 42.0433 38.8715 44.3425 34.5183C50.4278 23.2676 46.0286 9.1198 34.5326 2.88129Z" fill="#404040"/>
<path d="M28.493 46.2743C39.9891 42.8562 46.5341 30.9463 43.2079 19.6955C40.4029 10.3454 31.6046 4.36749 22.1013 4.61274C30.6849 4.87332 38.5636 10.5447 41.1693 19.2357C44.3882 30.0726 38.257 41.4613 27.4201 44.6802C16.5832 47.8991 5.19445 41.7679 1.97557 30.931C0.703341 26.5931 0.902605 22.148 2.32811 18.2087C0.596045 22.5005 0.228172 27.3595 1.60769 32.1112C4.97986 43.362 16.997 49.6924 28.493 46.2743Z" fill="#404040"/>
<path d="M32.9892 35.5922C28.7434 43.4555 18.9334 46.3678 11.0702 42.1372C3.14557 37.8914 0.233245 28.0815 4.47911 20.2029C8.72497 12.3396 18.5349 9.42725 26.3982 13.6578C34.2615 17.9036 37.2351 27.7136 32.9892 35.5769M28.2375 11.4046C19.4546 6.65288 8.51038 9.91775 3.75869 18.716C-0.947013 27.499 2.33318 38.4432 11.0702 43.1949C19.8531 47.9466 30.7973 44.6817 35.549 35.8834C40.3007 27.1005 37.0358 16.1563 28.2375 11.4046Z" fill="#404040"/>
<path d="M34.116 12.2305C37.6875 16.7829 39.3276 22.8528 38.0553 28.9993C35.8021 39.9895 25.2258 47.0404 14.3889 44.8485C13.3619 44.6492 12.3962 44.3427 11.4766 43.9748C13.2086 45.0018 15.1553 45.7069 17.2552 46.1667C27.8316 48.3586 38.2086 41.5223 40.4005 30.9307C41.8874 23.7725 39.2203 16.7216 34.116 12.2305Z" fill="#404040"/>
<path d="M38.2997 34.412C33.7473 35.3776 29.6087 37.7382 28.7504 42.1833C28.5511 43.4095 28.5971 44.6818 28.1372 46.2146C27.8307 47.0883 27.7234 47.5481 27.2635 47.9006L27.1562 48.0079C27.3555 47.962 27.5701 47.9006 27.7694 47.8547C27.4628 47.962 27.2635 48.0079 27.1562 48.0079C27.4168 48.0079 27.6161 48.0079 27.8154 48.1152C28.2292 48.2225 28.5818 48.2685 28.8423 48.3758C30.1146 48.6824 30.789 48.9429 32.8276 49.4488C38.453 50.8743 43.2967 47.0423 45.5039 42.5052C46.6842 40.0527 47.9104 35.9141 48.1097 29.0625C45.7032 32.1281 42.0244 33.6149 38.2997 34.4273" fill="white"/>
<path d="M32.0664 49.0342C31.1007 48.7736 30.1197 48.4671 29.1541 48.2218C28.9548 48.1758 28.6942 48.1145 28.495 48.0685C29.6752 47.808 30.9015 47.1489 31.9131 46.689C35.086 45.2022 37.9983 43.1636 40.4508 40.6651C40.6041 40.5118 40.2975 40.5118 40.1902 40.6191C36.7721 43.792 32.5722 46.2905 28.0198 47.5167C28.9395 46.4897 29.0468 42.6577 29.3993 41.3395C30.365 37.3083 34.7641 35.4689 38.3356 34.5952C41.815 33.7828 45.0339 32.5566 47.5324 30.0428C47.3331 34.6412 46.72 39.2396 44.5741 43.3782C42.1676 48.0839 37.2166 50.429 32.0511 49.0495M47.6397 29.1691C45.1872 32.0814 41.9223 33.4609 38.2436 34.2733C35.3313 34.9324 32.7255 36.0054 30.5336 38.0593C27.5753 40.8184 29.1081 45.1562 26.7476 48.0685C26.6403 48.1758 26.7476 48.2218 26.8549 48.2678C29.7672 48.5284 32.373 49.9539 35.3313 49.9999C37.8297 49.9999 40.2362 48.7736 42.1829 47.2868C47.5477 43.1482 48.3141 35.2237 48.5747 28.9852C48.5287 28.7246 47.701 29.0311 47.655 29.1384" fill="#404040"/>
<path d="M32.894 36.5117C32.894 36.5117 32.7407 36.619 32.4801 36.7723C32.2195 36.9716 31.821 37.2781 31.4072 37.692C30.9933 38.1058 30.5335 38.6576 30.1349 39.2708C29.7211 39.9299 29.3685 40.6963 29.108 41.524C29.0007 41.9378 28.9087 42.3977 28.8474 42.7962C28.7861 43.1947 28.7401 43.6086 28.6481 44.0224C28.5408 44.7888 28.3875 45.402 28.1883 46.1684C27.8357 47.5019 27.4219 47.8085 27.4219 47.8085C27.9277 47.1954 28.1883 45.6166 28.3875 44.0224C28.4335 43.6086 28.4948 43.2101 28.5408 42.7962C28.5868 42.3824 28.6481 41.9225 28.8014 41.4627C29.062 40.589 29.4605 39.7766 29.9203 39.1175C30.3802 38.4584 30.886 37.9372 31.3459 37.5847C31.8057 37.1708 32.2195 36.9256 32.4648 36.7723C32.7254 36.573 32.8787 36.5117 32.8787 36.5117" fill="#10712A"/>
<path d="M34.8825 28.4802C34.2694 31.2852 32.2768 33.4924 30.0235 35.2245C27.2645 37.3704 25.2259 40.2827 26.1456 43.5476C26.4061 44.4673 26.866 45.2797 27.0193 46.4599C27.1265 47.119 27.1725 47.4869 26.9733 47.8854V47.9927C27.0806 47.8854 27.2338 47.7935 27.3258 47.6862C27.1725 47.8395 27.0193 47.9468 26.9733 47.9927C27.1266 47.8854 27.3258 47.8395 27.4791 47.8395C27.7857 47.7935 28.0462 47.7322 28.2455 47.6862C29.2112 47.4869 29.7323 47.4256 31.2651 47.119C35.511 46.3526 37.5496 42.1681 37.5496 38.3821C37.5036 36.3434 37.0438 33.1705 34.8979 28.4648" fill="white"/>
<path d="M36.9253 39.9904C36.6187 42.7494 35.0399 45.2019 32.5875 46.4741C31.4685 47.0873 29.9817 47.1333 28.7555 47.3938C28.4949 47.4398 28.2956 47.5011 28.035 47.5471C28.6482 47.0413 29.154 46.3209 29.6138 45.7537C31.1006 43.9604 32.2656 41.9677 33.1393 39.8831C33.3385 39.6225 33.3998 39.4692 33.2926 39.4233C33.3385 39.224 33.4458 39.0094 33.4918 38.8101C33.5378 38.7028 33.2312 38.7642 33.1853 38.8561C31.959 42.029 29.9664 45.0333 27.4066 47.2865C27.4526 46.4741 27.2073 45.7077 26.9468 44.88C25.9811 41.9217 26.2876 39.8218 28.2803 37.3233C30.5795 34.457 33.3845 33.0315 34.8254 29.7666C36.2509 32.9855 37.3238 36.4036 36.9253 39.9904ZM35.3465 28.3871C35.3465 28.2798 35.2392 28.2338 35.0859 28.1878C34.7794 28.1418 34.3655 28.2951 34.3655 28.5404C33.1393 33.0928 28.8934 34.8708 26.4409 38.5496C25.6745 39.6685 25.1687 41.4619 25.4139 42.7954C25.7665 44.5275 26.8395 46.2749 26.3796 48.0529C26.3336 48.3135 26.7935 48.3595 26.9468 48.3135C28.8934 47.6544 30.978 47.6544 32.9247 46.888C34.7181 46.1676 35.9903 44.5428 36.864 42.8567C39.3624 38.4116 37.2165 32.6943 35.3312 28.3871" fill="#404040"/>
</g>
<defs>
<linearGradient id="paint0_linear_85_140" x1="2.21875" y1="27.7748" x2="35.1433" y2="27.7748" gradientUnits="userSpaceOnUse">
<stop stop-color="#EFEFEF"/>
<stop offset="0.23" stop-color="#F1F1F1"/>
<stop offset="0.34" stop-color="#F9F9F9"/>
<stop offset="0.38" stop-color="white"/>
<stop offset="0.53" stop-color="#FBFBFB"/>
<stop offset="0.66" stop-color="#F1F1F1"/>
<stop offset="0.79" stop-color="#DFDFDF"/>
<stop offset="0.91" stop-color="#C5C5C5"/>
<stop offset="1" stop-color="#ACACAC"/>
</linearGradient>
<clipPath id="clip0_85_140">
<rect width="149.464" height="50" fill="white"/>
</clipPath>
</defs>
</svg>
