<svg width="240" height="80" viewBox="0 0 240 80" fill="none" xmlns="http://www.w3.org/2000/svg">
<path d="M103.42 23.5458V21.8291C101.581 21.731 100.109 21.1669 98.9813 20.1123C97.8531 19.0578 97.2891 17.7825 97.2891 16.2865C97.2891 14.7904 97.8531 13.5151 98.9813 12.4606C100.109 11.406 101.581 10.8419 103.42 10.7438V9.29688H107.05V10.7438C108.889 10.8419 110.361 11.4305 111.489 12.4606C112.617 13.4906 113.181 14.7904 113.181 16.2865C113.181 17.7825 112.617 19.0823 111.489 20.1123C110.361 21.1424 108.889 21.731 107.05 21.8291V23.5458H103.42ZM103.42 18.6654V13.883C102.66 13.9321 102.047 14.1773 101.605 14.6188C101.164 15.0602 100.943 15.5998 100.943 16.2865C100.943 16.9731 101.164 17.5127 101.605 17.9541C102.047 18.3956 102.66 18.6163 103.42 18.6899V18.6654ZM107.05 13.883V18.6654C107.81 18.6163 108.423 18.3711 108.865 17.9296C109.306 17.4882 109.527 16.9486 109.527 16.2619C109.527 15.5752 109.306 15.0112 108.865 14.5942C108.423 14.1773 107.81 13.9321 107.05 13.883Z" fill="#008831"/>
<path d="M115.32 23.1523V9.76172H125.572V13.0235H118.975V14.9365H124.051V18.0021H118.975V19.915H125.768V23.1768H115.345L115.32 23.1523Z" fill="#008831"/>
<path d="M127.017 25.85V19.7188H127.777C128.12 19.4245 128.439 18.9831 128.733 18.4435C129.371 17.2418 129.69 15.7458 129.69 13.98V9.76172H139.647V19.7188H141.168V25.85H137.538V23.1768H130.646V25.85H126.992H127.017ZM131.603 19.7188H135.993V13.2197H133.32V13.98C133.32 15.7703 133.025 17.2663 132.461 18.4435C132.216 18.9585 131.946 19.4 131.603 19.7188Z" fill="#008831"/>
<path d="M143.297 23.1523V9.76172H153.548V13.0235H146.951V14.9365H152.028V18.0021H146.951V19.915H153.744V23.1768H143.321L143.297 23.1523Z" fill="#008831"/>
<path d="M156.18 23.1523V9.76172H162.213C163.684 9.76172 164.886 10.2032 165.793 11.0861C166.725 11.969 167.191 13.0971 167.191 14.446C167.191 15.7948 166.725 16.923 165.793 17.8059C164.861 18.6888 163.684 19.1302 162.213 19.1302H159.809V23.1523H156.18ZM159.809 15.8684H162.017C162.434 15.8684 162.801 15.7213 163.096 15.4515C163.39 15.1572 163.537 14.8384 163.537 14.446C163.537 14.0536 163.39 13.7347 163.096 13.4404C162.801 13.1461 162.434 12.999 162.017 12.999H159.809V15.8684Z" fill="#008831"/>
<path d="M167.117 23.1534L172.194 9.73828H176.216L181.293 23.1534H177.369L176.412 20.284H171.998L171.041 23.1534H167.117ZM172.954 17.3165H175.431L174.229 13.4906H174.156L172.954 17.3165Z" fill="#008831"/>
<path d="M182.907 23.1523V9.76172H186.537V19.7188H191.025V9.76172H194.655V19.7188H196.175V25.85H192.546V23.1768H182.883L182.907 23.1523Z" fill="#008831"/>
<path d="M198.336 23.1523V9.76172H201.966V17.1437L207.704 9.76172H210.868V23.1768H207.238V15.7948L201.5 23.1768H198.336V23.1523Z" fill="#008831"/>
<path d="M212.875 23.1534L215.646 18.1748C215.205 17.9786 214.837 17.6843 214.494 17.341C213.733 16.5807 213.341 15.5752 213.341 14.3489C213.341 13.0491 213.807 11.9455 214.714 11.0626C215.646 10.1797 216.799 9.73828 218.221 9.73828H224.549V23.1534H220.919V18.9351H218.908L216.701 23.1534H212.875ZM218.418 15.6733H220.895V13.0001H218.418C218.001 13.0001 217.657 13.1227 217.388 13.3925C217.118 13.6377 216.995 13.9566 216.995 14.3489C216.995 14.7413 217.142 15.0602 217.388 15.3054C217.657 15.5507 218.001 15.6733 218.418 15.6733Z" fill="#008831"/>
<path d="M96.8995 43.9245L99.1068 41.521C99.4011 41.8153 99.7444 42.1096 100.137 42.3303C101.02 42.8699 101.903 43.1397 102.736 43.1397C103.57 43.1397 104.306 42.9189 104.919 42.502C105.508 42.0851 105.949 41.5701 106.194 40.9324H101.216V37.8668H106.194C105.949 37.2537 105.508 36.7142 104.919 36.2972C104.331 35.8803 103.595 35.6596 102.736 35.6596C101.878 35.6596 101.02 35.9294 100.161 36.4934C99.7935 36.7142 99.4746 36.9839 99.1803 37.3028L96.9731 34.8993C97.3655 34.4334 97.856 34.0164 98.3955 33.624C99.6463 32.7657 101.093 32.3242 102.712 32.3242C104.846 32.3242 106.611 33.0109 108.034 34.3843C109.456 35.7577 110.167 37.4254 110.167 39.4119C110.167 41.3984 109.456 43.0661 108.034 44.4395C106.611 45.8129 104.821 46.4996 102.712 46.4996C101.044 46.4996 99.5973 46.0827 98.3465 45.2243C97.7824 44.8319 97.2919 44.415 96.875 43.9245H96.8995Z" fill="#008831"/>
<path d="M115.048 46.1338V35.9806H111.32V32.7188H122.43V35.9806H118.702V46.1338H115.073H115.048Z" fill="#008831"/>
<path d="M124.32 46.1338V32.7188H127.95V37.5992H132.83V32.7188H136.46V46.1338H132.83V41.0572H127.95V46.1338H124.32Z" fill="#008831"/>
<path d="M140.899 44.4668C139.477 43.0934 138.766 41.4258 138.766 39.4392C138.766 37.4527 139.477 35.785 140.899 34.4116C142.322 33.0383 144.112 32.3516 146.221 32.3516C148.33 32.3516 150.121 33.0383 151.543 34.4116C152.966 35.785 153.677 37.4527 153.677 39.4392C153.677 41.4258 152.966 43.0934 151.543 44.4668C150.121 45.8402 148.33 46.5269 146.221 46.5269C144.112 46.5269 142.322 45.8402 140.899 44.4668ZM143.572 36.7906C142.861 37.5018 142.493 38.3847 142.493 39.4392C142.493 40.4938 142.861 41.3767 143.572 42.0879C144.284 42.7991 145.167 43.167 146.221 43.167C147.276 43.167 148.159 42.7991 148.87 42.0879C149.581 41.3767 149.949 40.4938 149.949 39.4392C149.949 38.3847 149.581 37.5018 148.87 36.7906C148.159 36.0793 147.276 35.7115 146.221 35.7115C145.167 35.7115 144.284 36.0793 143.572 36.7906Z" fill="#008831"/>
<path d="M166.476 41.4475L168.683 43.9245C168.242 44.415 167.751 44.8564 167.187 45.2243C165.936 46.0827 164.489 46.4996 162.846 46.4996C160.713 46.4996 158.947 45.8129 157.524 44.4395C156.102 43.0661 155.391 41.3984 155.391 39.4119C155.391 37.4254 156.102 35.7577 157.524 34.3843C158.947 33.0109 160.737 32.3242 162.846 32.3242C164.465 32.3242 165.887 32.7657 167.163 33.624C167.727 34.0164 168.193 34.4579 168.585 34.8993L166.378 37.3763C166.083 37.0575 165.765 36.7632 165.397 36.518C164.563 35.9539 163.705 35.6596 162.822 35.6596C161.767 35.6596 160.884 36.0275 160.173 36.7387C159.462 37.4499 159.094 38.3328 159.094 39.3874C159.094 40.4419 159.462 41.3248 160.173 42.036C160.884 42.7473 161.767 43.1151 162.822 43.1151C163.68 43.1151 164.563 42.8208 165.421 42.2568C165.814 42.0115 166.157 41.7172 166.451 41.3984L166.476 41.4475Z" fill="#008831"/>
<path d="M170.57 46.1338V32.7188H182.538V46.1338H178.909V36.1768H174.225V46.1338H170.595H170.57Z" fill="#008831"/>
<path d="M186.954 44.4668C185.532 43.0934 184.82 41.4258 184.82 39.4392C184.82 37.4527 185.532 35.785 186.954 34.4116C188.376 33.0383 190.167 32.3516 192.276 32.3516C194.385 32.3516 196.175 33.0383 197.598 34.4116C199.02 35.785 199.731 37.4527 199.731 39.4392C199.731 41.4258 199.02 43.0934 197.598 44.4668C196.175 45.8402 194.385 46.5269 192.276 46.5269C190.167 46.5269 188.376 45.8402 186.954 44.4668ZM189.627 36.7906C188.916 37.5018 188.548 38.3847 188.548 39.4392C188.548 40.4938 188.916 41.3767 189.627 42.0879C190.338 42.7991 191.221 43.167 192.276 43.167C193.33 43.167 194.213 42.7991 194.925 42.0879C195.636 41.3767 196.004 40.4938 196.004 39.4392C196.004 38.3847 195.636 37.5018 194.925 36.7906C194.213 36.0793 193.33 35.7115 192.276 35.7115C191.221 35.7115 190.338 36.0793 189.627 36.7906Z" fill="#008831"/>
<path d="M202.016 46.1338V32.7188H208.049C209.52 32.7188 210.722 33.1602 211.629 34.0431C212.561 34.926 213.027 36.0541 213.027 37.403C213.027 38.7519 212.561 39.88 211.629 40.7629C210.697 41.6458 209.52 42.0872 208.049 42.0872H205.645V46.1093H202.016V46.1338ZM205.645 38.85H207.853C208.269 38.85 208.637 38.7028 208.932 38.433C209.226 38.1387 209.373 37.8199 209.373 37.4275C209.373 37.0351 209.226 36.7163 208.932 36.422C208.637 36.1277 208.269 35.9806 207.853 35.9806H205.645V38.85Z" fill="#008831"/>
<path d="M218.173 46.1338V35.9806H214.445V32.7188H225.555V35.9806H221.827V46.1338H218.198H218.173Z" fill="#008831"/>
<path d="M224.969 46.1338L230.045 32.7188H234.067L239.144 46.1338H235.22L234.264 43.2644H229.849L228.893 46.1338H224.969ZM230.806 40.2969H233.283L232.081 36.471H232.007L230.806 40.2969Z" fill="#008831"/>
<path d="M98.0547 69.1143V55.6992H104.088C105.559 55.6992 106.761 56.1407 107.668 57.0236C108.6 57.9065 109.066 59.0346 109.066 60.3835C109.066 61.7323 108.6 62.8605 107.668 63.7434C106.736 64.6263 105.535 65.0677 104.088 65.0677H101.684V69.0898H98.0547V69.1143ZM101.684 61.8304H103.892C104.309 61.8304 104.676 61.6833 104.971 61.4135C105.265 61.1192 105.412 60.8004 105.412 60.408C105.412 60.0156 105.265 59.6968 104.971 59.4025C104.676 59.1082 104.309 58.961 103.892 58.961H101.684V61.8304Z" fill="#008831"/>
<path d="M112.837 67.4434C111.414 66.07 110.703 64.4023 110.703 62.4158C110.703 60.4293 111.414 58.7616 112.837 57.3882C114.259 56.0148 116.05 55.3281 118.159 55.3281C120.268 55.3281 122.058 56.0148 123.481 57.3882C124.903 58.7616 125.614 60.4293 125.614 62.4158C125.614 64.4023 124.903 66.07 123.481 67.4434C122.058 68.8168 120.268 69.5035 118.159 69.5035C116.05 69.5035 114.259 68.8168 112.837 67.4434ZM115.51 59.7671C114.799 60.4783 114.431 61.3612 114.431 62.4158C114.431 63.4704 114.799 64.3533 115.51 65.0645C116.221 65.7757 117.104 66.1436 118.159 66.1436C119.213 66.1436 120.096 65.7757 120.807 65.0645C121.519 64.3533 121.886 63.4704 121.886 62.4158C121.886 61.3612 121.519 60.4783 120.807 59.7671C120.096 59.0559 119.213 58.688 118.159 58.688C117.104 58.688 116.221 59.0559 115.51 59.7671Z" fill="#008831"/>
<path d="M138.421 64.4279L140.628 66.9049C140.187 67.3954 139.696 67.8369 139.132 68.2047C137.882 69.0631 136.435 69.48 134.791 69.48C132.658 69.48 130.892 68.7933 129.47 67.42C128.047 66.0466 127.336 64.3789 127.336 62.3924C127.336 60.4059 128.047 58.7382 129.47 57.3648C130.892 55.9914 132.682 55.3047 134.791 55.3047C136.386 55.3047 137.833 55.7461 139.108 56.6045C139.672 56.9969 140.138 57.4384 140.53 57.8798L138.323 60.3568C138.029 60.038 137.71 59.7437 137.342 59.4984C136.508 58.9344 135.65 58.6401 134.767 58.6401C133.712 58.6401 132.83 59.0079 132.118 59.7192C131.407 60.4304 131.039 61.3133 131.039 62.3678C131.039 63.4224 131.407 64.3053 132.118 65.0165C132.83 65.7277 133.712 66.0956 134.767 66.0956C135.625 66.0956 136.508 65.8013 137.367 65.2372C137.734 64.992 138.102 64.6977 138.397 64.3789L138.421 64.4279Z" fill="#008831"/>
<path d="M152.593 64.4279L154.8 66.9049C154.359 67.3954 153.868 67.8369 153.304 68.2047C152.053 69.0631 150.607 69.48 148.963 69.48C146.83 69.48 145.064 68.7933 143.641 67.42C142.219 66.0466 141.508 64.3789 141.508 62.3924C141.508 60.4059 142.219 58.7382 143.641 57.3648C145.064 55.9914 146.854 55.3047 148.963 55.3047C150.582 55.3047 152.004 55.7461 153.28 56.6045C153.844 56.9969 154.31 57.4384 154.702 57.8798L152.495 60.3568C152.201 60.038 151.882 59.7437 151.514 59.4984C150.68 58.9344 149.822 58.6401 148.939 58.6401C147.884 58.6401 147.001 59.0079 146.29 59.7192C145.579 60.4304 145.211 61.3133 145.211 62.3678C145.211 63.4224 145.579 64.3053 146.29 65.0165C147.001 65.7277 147.884 66.0956 148.939 66.0956C149.797 66.0956 150.68 65.8013 151.538 65.2372C151.906 64.992 152.25 64.6977 152.569 64.3789L152.593 64.4279Z" fill="#008831"/>
<path d="M156.664 69.1143V55.6992H160.294V63.0812L166.033 55.6992H169.196V69.1143H165.567V61.7323L159.828 69.1143H156.664Z" fill="#008831"/>
<path d="M172.266 69.1143V55.6992H175.895V63.0812L181.634 55.6992H184.798V69.1143H181.168V61.7323L175.429 69.1143H172.266Z" fill="#008831"/>
<path d="M29.8944 70.777C44.4414 70.777 56.234 58.9843 56.234 44.4373C56.234 29.8903 44.4414 18.0977 29.8944 18.0977C15.3474 18.0977 3.55469 29.8903 3.55469 44.4373C3.55469 58.9843 15.3474 70.777 29.8944 70.777Z" fill="url(#paint0_linear_2003_2)"/>
<path d="M29.8918 69.1352C43.5313 69.1352 54.5883 58.0782 54.5883 44.4387C54.5883 30.7992 43.5313 19.7422 29.8918 19.7422C16.2523 19.7422 5.19531 30.7992 5.19531 44.4387C5.19531 58.0782 16.2523 69.1352 29.8918 69.1352Z" fill="white"/>
<mask id="mask0_2003_2" style="mask-type:luminance" maskUnits="userSpaceOnUse" x="5" y="19" width="50" height="51">
<path d="M29.8918 69.1352C43.5313 69.1352 54.5883 58.0782 54.5883 44.4387C54.5883 30.7992 43.5313 19.7422 29.8918 19.7422C16.2523 19.7422 5.19531 30.7992 5.19531 44.4387C5.19531 58.0782 16.2523 69.1352 29.8918 69.1352Z" fill="white"/>
</mask>
<g mask="url(#mask0_2003_2)">
<path d="M70.1143 53.0977H0.046875V61.5097H70.1143V53.0977Z" fill="#A21526"/>
</g>
<mask id="mask1_2003_2" style="mask-type:luminance" maskUnits="userSpaceOnUse" x="5" y="19" width="50" height="51">
<path d="M29.8918 69.1352C43.5313 69.1352 54.5883 58.0782 54.5883 44.4387C54.5883 30.7992 43.5313 19.7422 29.8918 19.7422C16.2523 19.7422 5.19531 30.7992 5.19531 44.4387C5.19531 58.0782 16.2523 69.1352 29.8918 69.1352Z" fill="white"/>
</mask>
<g mask="url(#mask1_2003_2)">
<path d="M70.1143 36.2461H0.046875V52.0156H70.1143V36.2461Z" fill="#005996"/>
</g>
<mask id="mask2_2003_2" style="mask-type:luminance" maskUnits="userSpaceOnUse" x="5" y="19" width="50" height="51">
<path d="M29.8918 69.1352C43.5313 69.1352 54.5883 58.0782 54.5883 44.4387C54.5883 30.7992 43.5313 19.7422 29.8918 19.7422C16.2523 19.7422 5.19531 30.7992 5.19531 44.4387C5.19531 58.0782 16.2523 69.1352 29.8918 69.1352Z" fill="white"/>
</mask>
<g mask="url(#mask2_2003_2)">
<path d="M70.1143 62.3438H0.046875V68.4014H70.1143V62.3438Z" fill="#9F171A"/>
</g>
<mask id="mask3_2003_2" style="mask-type:luminance" maskUnits="userSpaceOnUse" x="5" y="19" width="50" height="51">
<path d="M29.8918 69.1352C43.5313 69.1352 54.5883 58.0782 54.5883 44.4387C54.5883 30.7992 43.5313 19.7422 29.8918 19.7422C16.2523 19.7422 5.19531 30.7992 5.19531 44.4387C5.19531 58.0782 16.2523 69.1352 29.8918 69.1352Z" fill="white"/>
</mask>
<g mask="url(#mask3_2003_2)">
<path d="M53.996 18.0234H2.98438V35.1172H53.996V18.0234Z" fill="url(#paint1_linear_2003_2)"/>
</g>
<mask id="mask4_2003_2" style="mask-type:luminance" maskUnits="userSpaceOnUse" x="2" y="5" width="50" height="50">
<path d="M27.1965 54.4946C40.836 54.4946 51.893 43.4376 51.893 29.7981C51.893 16.1586 40.836 5.10156 27.1965 5.10156C13.557 5.10156 2.5 16.1586 2.5 29.7981C2.5 43.4376 13.557 54.4946 27.1965 54.4946Z" fill="white"/>
</mask>
<g mask="url(#mask4_2003_2)">
<mask id="mask5_2003_2" style="mask-type:luminance" maskUnits="userSpaceOnUse" x="5" y="19" width="50" height="51">
<path d="M29.8918 69.1352C43.5313 69.1352 54.5883 58.0782 54.5883 44.4387C54.5883 30.7992 43.5313 19.7422 29.8918 19.7422C16.2523 19.7422 5.19531 30.7992 5.19531 44.4387C5.19531 58.0782 16.2523 69.1352 29.8918 69.1352Z" fill="white"/>
</mask>
<g mask="url(#mask5_2003_2)">
<path d="M29.3242 36.2461H3.15625V52.0156H29.3242V36.2461Z" fill="url(#paint2_linear_2003_2)"/>
</g>
</g>
<mask id="mask6_2003_2" style="mask-type:luminance" maskUnits="userSpaceOnUse" x="16" y="22" width="49" height="48">
<path d="M40.3685 69.3073C53.4256 69.3073 64.0104 58.7225 64.0104 45.6654C64.0104 32.6083 53.4256 22.0234 40.3685 22.0234C27.3114 22.0234 16.7266 32.6083 16.7266 45.6654C16.7266 58.7225 27.3114 69.3073 40.3685 69.3073Z" fill="white"/>
</mask>
<g mask="url(#mask6_2003_2)">
<mask id="mask7_2003_2" style="mask-type:luminance" maskUnits="userSpaceOnUse" x="5" y="19" width="50" height="51">
<path d="M29.8996 69.1352C43.5391 69.1352 54.5961 58.0782 54.5961 44.4387C54.5961 30.7992 43.5391 19.7422 29.8996 19.7422C16.2601 19.7422 5.20312 30.7992 5.20312 44.4387C5.20312 58.0782 16.2601 69.1352 29.8996 69.1352Z" fill="white"/>
</mask>
<g mask="url(#mask7_2003_2)">
<path d="M70.1178 36.2461H37.3281V52.0156H70.1178V36.2461Z" fill="url(#paint3_linear_2003_2)"/>
</g>
</g>
<mask id="mask8_2003_2" style="mask-type:luminance" maskUnits="userSpaceOnUse" x="16" y="22" width="49" height="48">
<path d="M40.3685 69.3073C53.4256 69.3073 64.0104 58.7225 64.0104 45.6654C64.0104 32.6083 53.4256 22.0234 40.3685 22.0234C27.3114 22.0234 16.7266 32.6083 16.7266 45.6654C16.7266 58.7225 27.3114 69.3073 40.3685 69.3073Z" fill="white"/>
</mask>
<g mask="url(#mask8_2003_2)">
<mask id="mask9_2003_2" style="mask-type:luminance" maskUnits="userSpaceOnUse" x="5" y="19" width="50" height="51">
<path d="M29.8996 69.1352C43.5391 69.1352 54.5961 58.0782 54.5961 44.4387C54.5961 30.7992 43.5391 19.7422 29.8996 19.7422C16.2601 19.7422 5.20312 30.7992 5.20312 44.4387C5.20312 58.0782 16.2601 69.1352 29.8996 69.1352Z" fill="white"/>
</mask>
<g mask="url(#mask9_2003_2)">
<path d="M54.9163 53.0977H4.46875V61.5097H54.9163V53.0977Z" fill="url(#paint4_linear_2003_2)"/>
</g>
</g>
<mask id="mask10_2003_2" style="mask-type:luminance" maskUnits="userSpaceOnUse" x="16" y="22" width="49" height="48">
<path d="M40.3685 69.3073C53.4256 69.3073 64.0104 58.7225 64.0104 45.6654C64.0104 32.6083 53.4256 22.0234 40.3685 22.0234C27.3114 22.0234 16.7266 32.6083 16.7266 45.6654C16.7266 58.7225 27.3114 69.3073 40.3685 69.3073Z" fill="white"/>
</mask>
<g mask="url(#mask10_2003_2)">
<mask id="mask11_2003_2" style="mask-type:luminance" maskUnits="userSpaceOnUse" x="5" y="19" width="50" height="51">
<path d="M29.8996 69.1352C43.5391 69.1352 54.5961 58.0782 54.5961 44.4387C54.5961 30.7992 43.5391 19.7422 29.8996 19.7422C16.2601 19.7422 5.20312 30.7992 5.20312 44.4387C5.20312 58.0782 16.2601 69.1352 29.8996 69.1352Z" fill="white"/>
</mask>
<g mask="url(#mask11_2003_2)">
<path d="M47.9721 62.3438H13.7109V68.4014H47.9721V62.3438Z" fill="url(#paint5_linear_2003_2)"/>
</g>
</g>
<mask id="mask12_2003_2" style="mask-type:luminance" maskUnits="userSpaceOnUse" x="16" y="22" width="36" height="33">
<path d="M16.7266 45.6654C16.7266 48.0443 17.0454 50.3987 17.7811 52.6059C20.7241 53.8321 23.9123 54.4943 27.2722 54.4943C40.8345 54.4943 51.8952 43.4581 51.8952 29.7978C51.8952 28.0811 51.7235 26.3643 51.4047 24.7212C48.1429 23.0044 44.366 22.0234 40.3685 22.0234C27.3703 22.0234 16.7266 32.6427 16.7266 45.6654Z" fill="white"/>
</mask>
<g mask="url(#mask12_2003_2)">
<mask id="mask13_2003_2" style="mask-type:luminance" maskUnits="userSpaceOnUse" x="5" y="19" width="50" height="51">
<path d="M29.8996 69.1352C43.5391 69.1352 54.5961 58.0782 54.5961 44.4387C54.5961 30.7992 43.5391 19.7422 29.8996 19.7422C16.2601 19.7422 5.20312 30.7992 5.20312 44.4387C5.20312 58.0782 16.2601 69.1352 29.8996 69.1352Z" fill="white"/>
</mask>
<g mask="url(#mask13_2003_2)">
<path d="M54.4984 36.2461H13.125V52.0156H54.4984V36.2461Z" fill="url(#paint6_linear_2003_2)"/>
</g>
</g>
<mask id="mask14_2003_2" style="mask-type:luminance" maskUnits="userSpaceOnUse" x="16" y="22" width="36" height="33">
<path d="M16.7266 45.6654C16.7266 48.0443 17.0454 50.3987 17.7811 52.6059C20.7241 53.8321 23.9123 54.4943 27.2722 54.4943C40.8345 54.4943 51.8952 43.4581 51.8952 29.7978C51.8952 28.0811 51.7235 26.3643 51.4047 24.7212C48.1429 23.0044 44.366 22.0234 40.3685 22.0234C27.3703 22.0234 16.7266 32.6427 16.7266 45.6654Z" fill="white"/>
</mask>
<g mask="url(#mask14_2003_2)">
<mask id="mask15_2003_2" style="mask-type:luminance" maskUnits="userSpaceOnUse" x="5" y="19" width="50" height="51">
<path d="M29.8996 69.1352C43.5391 69.1352 54.5961 58.0782 54.5961 44.4387C54.5961 30.7992 43.5391 19.7422 29.8996 19.7422C16.2601 19.7422 5.20312 30.7992 5.20312 44.4387C5.20312 58.0782 16.2601 69.1352 29.8996 69.1352Z" fill="white"/>
</mask>
<g mask="url(#mask15_2003_2)">
<path d="M54.4984 36.2461H13.125V52.0156H54.4984V36.2461Z" fill="url(#paint7_linear_2003_2)"/>
</g>
</g>
<mask id="mask16_2003_2" style="mask-type:luminance" maskUnits="userSpaceOnUse" x="16" y="22" width="36" height="33">
<path d="M16.7266 45.6654C16.7266 48.0443 17.0454 50.3987 17.7811 52.6059C20.7241 53.8321 23.9123 54.4943 27.2722 54.4943C40.8345 54.4943 51.8952 43.4581 51.8952 29.7978C51.8952 28.0811 51.7235 26.3643 51.4047 24.7212C48.1429 23.0044 44.366 22.0234 40.3685 22.0234C27.3703 22.0234 16.7266 32.6427 16.7266 45.6654Z" fill="white"/>
</mask>
<g mask="url(#mask16_2003_2)">
<mask id="mask17_2003_2" style="mask-type:luminance" maskUnits="userSpaceOnUse" x="5" y="19" width="50" height="51">
<path d="M29.8996 69.1352C43.5391 69.1352 54.5961 58.0782 54.5961 44.4387C54.5961 30.7992 43.5391 19.7422 29.8996 19.7422C16.2601 19.7422 5.20312 30.7992 5.20312 44.4387C5.20312 58.0782 16.2601 69.1352 29.8996 69.1352Z" fill="white"/>
</mask>
<g mask="url(#mask17_2003_2)">
<path d="M70.1221 18.0234H0.0546875V35.1172H70.1221V18.0234Z" fill="url(#paint8_linear_2003_2)"/>
</g>
</g>
<mask id="mask18_2003_2" style="mask-type:luminance" maskUnits="userSpaceOnUse" x="16" y="22" width="36" height="33">
<path d="M16.7266 45.6654C16.7266 48.0443 17.0454 50.3987 17.7811 52.6059C20.7241 53.8321 23.9123 54.4943 27.2722 54.4943C40.8345 54.4943 51.8952 43.4581 51.8952 29.7978C51.8952 28.0811 51.7235 26.3643 51.4047 24.7212C48.1429 23.0044 44.366 22.0234 40.3685 22.0234C27.3703 22.0234 16.7266 32.6427 16.7266 45.6654Z" fill="white"/>
</mask>
<g mask="url(#mask18_2003_2)">
<mask id="mask19_2003_2" style="mask-type:luminance" maskUnits="userSpaceOnUse" x="5" y="19" width="50" height="51">
<path d="M29.8996 69.1352C43.5391 69.1352 54.5961 58.0782 54.5961 44.4387C54.5961 30.7992 43.5391 19.7422 29.8996 19.7422C16.2601 19.7422 5.20312 30.7992 5.20312 44.4387C5.20312 58.0782 16.2601 69.1352 29.8996 69.1352Z" fill="white"/>
</mask>
<g mask="url(#mask19_2003_2)">
<path d="M70.1221 53.0977H0.0546875V61.5097H70.1221V53.0977Z" fill="#EC3427"/>
</g>
</g>
<path d="M55.2522 4.61007C36.834 -5.27344 14.0259 1.25017 4.28957 19.2514C1.02777 25.309 -0.272047 31.9307 0.0467759 38.3808C1.02777 19.4231 16.6501 4.36482 35.853 4.36482C55.056 4.36482 71.7574 20.4776 71.7574 40.2692C71.7574 53.0221 65.1357 64.2299 55.0805 70.6064C61.6286 67.3446 67.2693 62.1944 70.9481 55.2293C80.6844 37.2281 73.6458 14.5917 55.2522 4.61007Z" fill="#008831"/>
<path d="M45.5904 74.0412C63.9841 68.5722 74.4562 49.5164 69.1343 31.5152C64.6462 16.555 50.569 6.99033 35.3636 7.38273C49.0975 7.79965 61.7033 16.8738 65.8725 30.7794C71.0227 48.1185 61.2128 66.3404 43.8737 71.4906C26.5346 76.6409 8.31268 66.8309 3.16247 49.4919C1.12691 42.5513 1.44573 35.4391 3.72654 29.1363C0.955235 36.0032 0.366638 43.7776 2.57387 51.3803C7.96934 69.3815 27.1968 79.5103 45.5904 74.0412Z" fill="#008831"/>
<path d="M52.7781 56.9451C45.9847 69.5264 30.2888 74.1861 17.7076 67.4173C5.02822 60.6239 0.368504 44.928 7.16188 32.3222C13.9553 19.741 29.6512 15.0813 42.2324 21.8501C54.8136 28.6435 59.5714 44.3394 52.7781 56.9206M45.1754 18.245C31.1226 10.6423 13.6119 15.8661 6.00922 29.9433C-1.51991 43.996 3.72841 61.5068 17.7076 69.1095C31.7603 76.7122 49.271 71.4884 56.8737 57.4111C64.4764 43.3584 59.2526 25.8477 45.1754 18.245Z" fill="#008831"/>
<path d="M54.5904 19.5703C60.3046 26.8542 62.9288 36.566 60.8932 46.4005C57.2881 63.9848 40.366 75.2662 23.0269 71.7592C21.3837 71.4403 19.8387 70.9498 18.3672 70.3612C21.1385 72.0044 24.2531 73.1325 27.6131 73.8683C44.5352 77.3753 61.1385 66.4373 64.6455 49.4906C67.0245 38.0375 62.7571 26.7561 54.5904 19.5703Z" fill="#008831"/>
<path d="M61.2827 55.0592C53.9988 56.6042 47.3771 60.3811 46.0037 67.4933C45.6849 69.4552 45.7585 71.4908 45.0227 73.9433C44.5322 75.3412 44.3605 76.077 43.6248 76.641L43.4531 76.8127C43.7719 76.7391 44.1153 76.641 44.4341 76.5674C43.9436 76.7391 43.6248 76.8127 43.4531 76.8127C43.87 76.8127 44.1889 76.8127 44.5077 76.9844C45.1699 77.156 45.7339 77.2296 46.1509 77.4013C48.1864 77.8918 49.2655 78.3087 52.5273 79.118C61.5279 81.3988 69.2778 75.2676 72.8094 68.0083C74.6978 64.0843 76.6598 57.4626 76.9786 46.5C73.1282 51.405 67.2422 53.7839 61.2827 55.0837" fill="white"/>
<path d="M51.3 78.4532C49.7549 78.0362 48.1853 77.5457 46.6403 77.1533C46.3214 77.0798 45.9045 76.9817 45.5857 76.9081C47.4741 76.4912 49.4361 75.4366 51.0547 74.7009C56.1314 72.3219 60.7911 69.0601 64.7151 65.0626C64.9603 64.8174 64.4698 64.8174 64.2981 64.989C58.8291 70.0657 52.1093 74.0632 44.8254 76.0252C46.2969 74.382 46.4686 68.2508 47.0327 66.1417C48.5777 59.6917 55.6163 56.7487 61.3306 55.3508C66.8978 54.0509 72.048 52.089 76.0455 48.0669C75.7267 55.4243 74.7457 62.7818 71.3122 69.4035C67.4618 76.9326 59.5403 80.6849 51.2754 78.4777M76.2172 46.669C72.2932 51.3287 67.0694 53.5359 61.1835 54.8357C56.5238 55.8903 52.3545 57.607 48.8475 60.8934C44.1142 65.3078 46.5667 72.2484 42.7899 76.9081C42.6182 77.0798 42.7899 77.1533 42.9615 77.2269C47.6213 77.6438 51.7905 79.9246 56.5238 79.9982C60.5213 79.9982 64.3717 78.0362 67.4864 75.6573C76.0701 69.0356 77.2963 56.3563 77.7132 46.3747C77.6396 45.9578 76.3153 46.4483 76.2417 46.6199" fill="#008831"/>
<path d="M52.6304 58.418C52.6304 58.418 52.3851 58.5896 51.9682 58.8349C51.5513 59.1537 50.9136 59.6442 50.2515 60.3064C49.5893 60.9686 48.8535 61.8514 48.2159 62.8324C47.5537 63.887 46.9897 65.1132 46.5727 66.4376C46.4011 67.0998 46.2539 67.8355 46.1558 68.4732C46.0577 69.1108 45.9841 69.773 45.837 70.4351C45.6653 71.6614 45.4201 72.6424 45.1012 73.8686C44.5372 76.0023 43.875 76.4928 43.875 76.4928C44.6843 75.5118 45.1012 72.9857 45.4201 70.4351C45.4936 69.773 45.5917 69.1353 45.6653 68.4732C45.7389 67.811 45.837 67.0752 46.0822 66.3395C46.4992 64.9416 47.1368 63.6418 47.8726 62.5872C48.6083 61.5326 49.4176 60.6988 50.1534 60.1347C50.8891 59.4725 51.5513 59.0801 51.9437 58.8349C52.3606 58.5161 52.6058 58.418 52.6058 58.418" fill="#10712A"/>
<path d="M55.8136 45.5675C54.8326 50.0555 51.6444 53.5871 48.0392 56.3584C43.6248 59.7919 40.363 64.4516 41.8345 69.6754C42.2514 71.1469 42.9871 72.4467 43.2324 74.3351C43.404 75.3897 43.4776 75.9783 43.1588 76.6159V76.7876C43.3305 76.6159 43.5757 76.4688 43.7229 76.2971C43.4776 76.5424 43.2324 76.714 43.1588 76.7876C43.404 76.6159 43.7229 76.5424 43.9681 76.5424C44.4586 76.4688 44.8755 76.3707 45.1944 76.2971C46.7394 75.9783 47.5733 75.8802 50.0257 75.3897C56.8191 74.1634 60.0809 67.4682 60.0809 61.4105C60.0074 58.1487 59.2716 53.0721 55.8381 45.543" fill="white"/>
<path d="M59.0805 63.9831C58.59 68.3975 56.0639 72.3215 52.1399 74.3571C50.3496 75.3381 47.9707 75.4116 46.0087 75.8286C45.5918 75.9021 45.273 76.0002 44.8561 76.0738C45.8371 75.2645 46.6464 74.1118 47.3821 73.2044C49.761 70.335 51.6249 67.1468 53.0228 63.8114C53.3417 63.3945 53.4398 63.1492 53.2681 63.0756C53.3417 62.7568 53.5133 62.4135 53.5869 62.0947C53.6605 61.923 53.17 62.0211 53.0964 62.1682C51.1344 67.2449 47.9462 72.0517 43.8505 75.6569C43.9241 74.3571 43.5317 73.1308 43.1148 71.8065C41.5697 67.0732 42.0602 63.7133 45.2485 59.7158C48.9272 55.1296 53.4152 52.8488 55.7206 47.625C58.0014 52.7752 59.7181 58.2443 59.0805 63.9831ZM56.5544 45.4178C56.5544 45.2461 56.3827 45.1725 56.1375 45.0989C55.647 45.0254 54.9848 45.2706 54.9848 45.663C53.0228 52.9469 46.2295 55.7918 42.3055 61.6777C41.0792 63.468 40.2699 66.3375 40.6623 68.4711C41.2264 71.2424 42.9431 74.0383 42.2074 76.8831C42.1338 77.3001 42.8696 77.3736 43.1148 77.3001C46.2295 76.2455 49.5648 76.2455 52.6795 75.0192C55.5489 73.8666 57.5845 71.2669 58.9824 68.5692C62.9799 61.457 59.5464 52.3093 56.5299 45.4178" fill="#008831"/>
<defs>
<linearGradient id="paint0_linear_2003_2" x1="3.55469" y1="44.4373" x2="56.234" y2="44.4373" gradientUnits="userSpaceOnUse">
<stop stop-color="#EFEFEF"/>
<stop offset="0.23" stop-color="#F1F1F1"/>
<stop offset="0.34" stop-color="#F9F9F9"/>
<stop offset="0.38" stop-color="white"/>
<stop offset="0.53" stop-color="#FBFBFB"/>
<stop offset="0.66" stop-color="#F1F1F1"/>
<stop offset="0.79" stop-color="#DFDFDF"/>
<stop offset="0.91" stop-color="#C5C5C5"/>
<stop offset="1" stop-color="#ACACAC"/>
</linearGradient>
<linearGradient id="paint1_linear_2003_2" x1="2.98438" y1="26.5581" x2="53.996" y2="26.5581" gradientUnits="userSpaceOnUse">
<stop offset="0.33" stop-color="#D6D6D6"/>
<stop offset="1" stop-color="#DFE4E2"/>
</linearGradient>
<linearGradient id="paint2_linear_2003_2" x1="2.15073" y1="49.2688" x2="30.3298" y2="39.0174" gradientUnits="userSpaceOnUse">
<stop offset="0.2" stop-color="#1685B8"/>
<stop offset="0.65" stop-color="#39ABDA"/>
</linearGradient>
<linearGradient id="paint3_linear_2003_2" x1="55.5746" y1="54.5907" x2="51.8959" y2="33.6955" gradientUnits="userSpaceOnUse">
<stop stop-color="#1685B8"/>
<stop offset="1" stop-color="#39ABDA"/>
</linearGradient>
<linearGradient id="paint4_linear_2003_2" x1="14.9654" y1="72.0308" x2="44.4197" y2="42.601" gradientUnits="userSpaceOnUse">
<stop stop-color="#A51627"/>
<stop offset="0.04" stop-color="#A21526"/>
<stop offset="0.36" stop-color="#C61F31"/>
<stop offset="0.78" stop-color="#E7301F"/>
</linearGradient>
<linearGradient id="paint5_linear_2003_2" x1="20.7496" y1="75.44" x2="40.909" y2="55.2806" gradientUnits="userSpaceOnUse">
<stop stop-color="#A51627"/>
<stop offset="0.04" stop-color="#A21526"/>
<stop offset="0.36" stop-color="#C61F31"/>
<stop offset="0.78" stop-color="#E7301F"/>
</linearGradient>
<linearGradient id="paint6_linear_2003_2" x1="19.526" y1="58.4411" x2="48.1219" y2="29.8451" gradientUnits="userSpaceOnUse">
<stop stop-color="#24A6CD"/>
<stop offset="0.18" stop-color="#55B6D6"/>
<stop offset="0.37" stop-color="#84C4DE"/>
<stop offset="0.52" stop-color="#A1CEE3"/>
<stop offset="0.6" stop-color="#ACD1E5"/>
</linearGradient>
<linearGradient id="paint7_linear_2003_2" x1="19.526" y1="58.4411" x2="48.1219" y2="29.8451" gradientUnits="userSpaceOnUse">
<stop stop-color="#24A6CD"/>
<stop offset="0.18" stop-color="#55B6D6"/>
<stop offset="0.37" stop-color="#84C4DE"/>
<stop offset="0.52" stop-color="#A1CEE3"/>
<stop offset="0.6" stop-color="#ACD1E5"/>
</linearGradient>
<linearGradient id="paint8_linear_2003_2" x1="0.0546875" y1="26.5581" x2="70.1221" y2="26.5581" gradientUnits="userSpaceOnUse">
<stop offset="0.68" stop-color="#DFE4E2"/>
<stop offset="1" stop-color="#D6D6D6"/>
</linearGradient>
</defs>
</svg>
