<svg width="233" height="52" viewBox="0 0 233 52" fill="none" xmlns="http://www.w3.org/2000/svg">
<path d="M17.3966 20.1265C17.1863 19.075 16.6606 17.1298 15.8299 14.4591C15.1267 12.1395 14.2588 9.87301 13.2328 7.67701C11.3296 3.78653 10.93 2.18828 10.93 1.50482C10.9152 1.31585 10.9152 1.126 10.93 0.937023C10.9664 0.813979 10.9758 0.684557 10.9576 0.557552C10.9395 0.430547 10.8942 0.308937 10.8249 0.200987C10.7584 0.13256 10.678 0.0792859 10.5891 0.0448061C10.5002 0.0103262 10.4049 -0.00454607 10.3097 0.00120592C10.1286 0.0045734 9.94864 0.0292787 9.7734 0.0748097C9.36315 0.176784 8.95937 0.303187 8.5642 0.453342C7.9613 0.646875 7.38807 0.922876 6.8608 1.2735C6.5893 1.42332 6.35778 1.63621 6.18577 1.89423C6.01376 2.15225 5.90629 2.44784 5.87241 2.75608C5.86709 3.32835 5.95955 3.89732 6.1458 4.43845C6.3661 5.09497 6.62594 5.73754 6.92389 6.36266C5.37853 7.55005 4.06052 9.00698 3.03342 10.6632C2.19257 11.9722 1.52792 13.3864 1.05663 14.8691C0.741191 16.0152 0.467806 17.2244 0.246996 18.4652C0.0667303 19.5279 -0.0142324 20.605 0.00515516 21.6827C-0.0170001 22.4322 0.0322916 23.1822 0.152362 23.9224C0.204936 24.2168 0.373173 25.1105 1.03561 25.1736H1.20384C2.12785 25.1234 3.03564 24.9098 3.88512 24.5427C5.44788 23.9301 6.95674 23.188 8.39596 22.3241C9.61253 21.6141 10.712 20.7203 11.6556 19.6744C11.6556 19.8742 11.7607 20.1265 11.8343 20.4525L12.2864 22.4293C12.3949 23.1759 12.5565 23.9138 12.7701 24.6374C12.9699 25.1421 13.6744 25.2157 14.2737 25.2157C14.8964 25.1943 15.5175 25.1416 16.1349 25.058C16.7083 24.9859 17.277 24.8806 17.8383 24.7425C18.1432 24.6584 18.9423 24.4586 18.8897 23.9224C18.8897 23.7436 18.8161 23.5964 18.3219 22.9866C17.8181 22.1079 17.5029 21.1338 17.3966 20.1265ZM9.9101 16.7513C9.29794 17.7665 8.5673 18.7054 7.73353 19.5482C7.01247 20.3187 6.17516 20.9716 5.25204 21.4829L5.12586 21.5355C5.12586 21.5355 4.88402 21.3673 4.88402 20.1581C4.88402 19.6323 4.96814 18.665 5.12586 17.3506L5.18895 16.6672C5.60954 12.7662 6.55587 10.0008 8.01743 8.43407L8.50111 9.48555C8.98479 10.6212 9.38436 11.5885 9.6998 12.3351C10.0368 13.1824 10.3213 14.0498 10.5515 14.9322C10.6041 15.1741 10.583 15.6157 9.9101 16.7513Z" fill="#DD0A15"/>
<path d="M35.9026 0.453125H23.3795L21.939 0.516214C21.0019 0.571215 20.0704 0.697761 19.1526 0.894747C18.7845 0.978865 17.6384 1.23122 17.6384 2.05137C17.7032 3.13066 17.9301 4.19404 18.3114 5.20581C18.7425 6.49913 19.142 7.58216 19.489 8.43386C19.5552 8.6189 19.6762 8.77939 19.8359 8.89397C19.9955 9.00855 20.1863 9.07179 20.3828 9.07526C20.6351 9.07526 21.2345 8.97011 21.2765 8.02378C21.4455 6.27781 21.9338 4.57774 22.7171 3.00822H24.3364C24.547 3.51557 24.685 4.05007 24.7464 4.59596C24.8592 5.48507 24.9084 6.38111 24.8936 7.27723C24.8936 8.32871 24.8936 10.2634 24.7464 12.8606V13.523C24.6623 15.7942 24.5992 17.2768 24.5887 17.9392L24.5151 19.3167C24.452 20.8203 24.4205 21.8823 24.4205 22.387C24.4205 24.49 24.7044 25.3522 25.3983 25.3837H25.9872C27.0174 25.3786 28.0451 25.28 29.0575 25.0893C30.109 24.9 30.5296 24.7002 30.6557 24.3638C30.6859 24.2746 30.6921 24.1791 30.6736 24.0868C30.6551 23.9945 30.6127 23.9087 30.5506 23.838C30.1251 23.2626 29.8767 22.5757 29.8356 21.8613C29.6855 20.6647 29.6048 19.4605 29.5938 18.2547C29.5938 16.7125 29.6183 14.5079 29.6674 11.6409C29.7164 8.77384 29.748 7.02137 29.762 6.38347C29.8251 5.33199 29.8671 4.40669 29.8671 3.7022C29.8671 3.4183 29.8671 3.18697 29.8671 2.98719H31.3813C32.3806 4.48625 32.978 6.21694 33.1162 8.01326C33.1252 8.28814 33.2209 8.55312 33.3896 8.77033C33.4674 8.86872 33.5665 8.94821 33.6794 9.00284C33.7923 9.05747 33.9161 9.08583 34.0415 9.08577C34.2407 9.08216 34.434 9.01779 34.5956 8.90129C34.7572 8.78478 34.8794 8.6217 34.9458 8.43386C35.4039 7.31593 35.7936 6.17121 36.1129 5.00603C36.5103 3.72356 36.7366 2.39421 36.7859 1.05247C36.7859 0.789599 36.6282 0.453125 35.9026 0.453125Z" fill="#DD0A15"/>
<path d="M64.5029 20.2661C64.3947 19.732 64.3245 19.1909 64.2926 18.6468C63.9456 16.3231 63.6302 14.2832 63.3463 12.6008C63.102 11.0675 62.7507 9.55318 62.2948 8.06896C62.074 7.3119 61.6429 5.966 61.012 4.04179C60.7262 3.34114 60.5182 2.61125 60.3916 1.86523C60.3645 1.63118 60.3645 1.39479 60.3916 1.16074C60.4379 0.923826 60.4123 0.678466 60.318 0.456247C60.1498 0.214407 59.8869 0.130288 59.2665 0.266981C58.8318 0.358924 58.4033 0.478331 57.9837 0.624484C57.3808 0.818017 56.8076 1.09402 56.2803 1.44464C56.0065 1.59163 55.7731 1.80377 55.6007 2.06234C55.4284 2.32091 55.3223 2.61795 55.2919 2.92722C55.2766 3.44019 55.3297 3.9529 55.4496 4.45187C55.5653 4.91452 55.723 5.50335 55.9438 6.14475C54.5691 6.97669 53.3517 8.04452 52.3478 9.29919C51.5318 10.2733 50.8494 11.3518 50.3184 12.5062C49.8037 10.9119 49.2034 9.34641 48.5204 7.81661C46.6382 3.96819 46.2071 2.44354 46.1756 1.85472C46.1759 1.61193 46.1934 1.36948 46.2282 1.12919C46.2628 0.899404 46.2261 0.66452 46.123 0.456247C45.9548 0.203892 45.6919 0.130288 45.0715 0.266981C44.6397 0.36113 44.2147 0.484078 43.7992 0.634999C43.1972 0.830609 42.6242 1.10648 42.0959 1.45515C41.822 1.60214 41.5886 1.81429 41.4163 2.07286C41.2439 2.33143 41.1378 2.62847 41.1075 2.93774C41.0916 3.5228 41.177 4.10619 41.3598 4.66217C41.6071 5.34312 41.8914 6.01005 42.2115 6.65998C40.2983 8.21005 38.8172 10.2272 37.911 12.5167C37.0184 14.6502 36.465 16.9102 36.2707 19.2146C36.2707 19.488 36.2707 20.0138 36.2707 20.855C36.2599 21.8362 36.3231 22.8169 36.4599 23.7886C36.523 24.2092 36.6912 25.3027 37.4483 25.3448H38.0371C39.0714 25.3402 40.1029 25.2381 41.118 25.0398C42.1695 24.8401 42.5795 24.6403 42.7057 24.3038C42.7373 24.2155 42.7451 24.1206 42.7285 24.0283C42.7119 23.9361 42.6714 23.8498 42.6111 23.7781C42.1691 23.1509 41.8744 22.432 41.7489 21.6751C41.5277 20.681 41.4184 19.6653 41.4229 18.6468C41.4229 18.3735 41.4229 17.9739 41.486 17.4376C41.6181 15.7691 41.8604 14.1112 42.2115 12.4747C42.4737 11.3317 42.9024 10.2335 43.4838 9.21507C44.2515 10.771 44.9325 12.3682 45.5237 13.9993C46.2721 16.0005 46.8765 18.0526 47.3322 20.1399C47.58 21.2517 47.7486 22.3796 47.8369 23.5152C47.8678 23.9449 47.9382 24.3708 48.0472 24.7875C48.1174 24.919 48.2231 25.0283 48.3522 25.1029C48.4626 25.2006 48.5913 25.2757 48.7307 25.3237L49.4352 25.3763C50.4697 25.377 51.5017 25.2748 52.516 25.0714C53.5675 24.8716 53.9776 24.6718 54.1038 24.3354C54.1334 24.2485 54.1402 24.1556 54.1236 24.0654C54.1071 23.9752 54.0676 23.8907 54.0091 23.8201C53.5907 23.2195 53.3106 22.5336 53.189 21.8118C52.9844 20.8296 52.8822 19.8289 52.884 18.8256C52.884 18.426 52.884 18.1316 52.884 17.9213C52.9832 16.5561 53.2844 15.2131 53.7778 13.9362C54.2234 12.6728 54.8089 11.4631 55.5233 10.3296C55.9023 9.71336 56.3542 9.14498 56.8691 8.63676C56.8672 8.66477 56.8672 8.69287 56.8691 8.72088C58.0426 12.406 58.7698 16.2185 59.0352 20.0769C59.0888 21.0477 59.2083 22.0138 59.3927 22.9684C59.4883 23.5848 59.6432 24.1904 59.8553 24.777C60.0131 25.3132 60.7281 25.3868 61.3379 25.3868C61.9747 25.368 62.61 25.3153 63.2411 25.2291C63.8052 25.1688 64.364 25.0669 64.913 24.9242C65.2494 24.8295 66.017 24.6298 65.9644 24.0935C65.9644 23.9148 65.8908 23.7781 65.3967 23.1577C64.9138 22.261 64.6103 21.2789 64.5029 20.2661Z" fill="#DD0A15"/>
<path d="M85.0594 20.1265C84.8596 19.075 84.3444 17.1929 83.4927 14.4591C82.7972 12.1383 81.9326 9.87152 80.906 7.67701C79.0134 3.78653 78.5928 2.18828 78.5928 1.50482C78.5779 1.31585 78.5779 1.126 78.5928 0.937023C78.6291 0.813979 78.6385 0.684557 78.6204 0.557552C78.6022 0.430547 78.557 0.308937 78.4876 0.200987C78.4212 0.13256 78.3408 0.0792859 78.2518 0.0448061C78.1629 0.0103262 78.0676 -0.00454607 77.9724 0.00120592C77.7914 0.0045734 77.6114 0.0292787 77.4361 0.0748097C77.0366 0.158928 76.616 0.274591 76.1849 0.411283C75.5828 0.606893 75.0099 0.882761 74.4815 1.23144C74.2085 1.37825 73.9762 1.59058 73.8055 1.84935C73.6348 2.10813 73.5311 2.40525 73.5036 2.71402C73.4881 3.28614 73.5772 3.85628 73.7665 4.39639C73.9923 5.05084 74.252 5.69311 74.5446 6.3206C72.9995 7.50833 71.6816 8.9652 70.6541 10.6212C69.8133 11.9302 69.1486 13.3443 68.6773 14.8271C68.3619 15.9627 68.0885 17.1719 67.8677 18.4231C67.6918 19.4863 67.6109 20.5631 67.6258 21.6407C67.6167 22.4051 67.6765 23.1687 67.8046 23.9224C67.8572 24.2168 68.0254 25.1105 68.6878 25.1736H68.8035C69.7275 25.1234 70.6353 24.9098 71.4848 24.5427C73.0475 23.9301 74.5564 23.188 75.9956 22.3241C77.2122 21.6141 78.3117 20.7203 79.2552 19.6744C79.2552 19.8742 79.3604 20.1265 79.434 20.4525L79.8861 22.4293C80.0118 23.1772 80.191 23.9151 80.4223 24.6374C80.6326 25.1421 81.3371 25.2157 81.926 25.2157C82.5486 25.1951 83.1698 25.1424 83.7871 25.058C84.364 24.9859 84.9362 24.8805 85.501 24.7425C85.7954 24.6584 86.5525 24.4586 86.5525 23.9224C86.5525 23.7436 86.4789 23.5964 85.9847 22.9866C85.4842 22.1064 85.1692 21.1331 85.0594 20.1265ZM77.5728 16.7513C76.9634 17.7684 76.2325 18.7076 75.3963 19.5482C74.6752 20.3187 73.8379 20.9716 72.9148 21.4829L72.7886 21.5355C72.7886 21.5355 72.5573 21.3673 72.5573 20.1581C72.5573 19.6428 72.6309 18.6965 72.7886 17.3506L72.8517 16.6672C73.2723 12.7662 74.2291 10.0008 75.6802 8.43407L76.1639 9.48555C76.6475 10.6212 77.0471 11.5885 77.3625 12.3351C77.7034 13.1821 77.9913 14.0495 78.2248 14.9322C78.2668 15.1741 78.2458 15.6157 77.5728 16.7513Z" fill="#DD0A15"/>
<path d="M104.133 21.7456C104.014 20.4383 103.962 19.1258 103.976 17.8131L104.133 6.40456C104.207 5.2269 104.238 4.3016 104.238 3.51299C104.238 1.24179 103.965 0.358547 103.271 0.305973C102.556 0.281874 101.842 0.392448 101.168 0.631932C100.436 0.851779 99.7312 1.1515 99.0651 1.52569C98.5394 1.83062 98.287 2.08297 98.2239 2.37739C98.2073 2.46326 98.209 2.55168 98.2289 2.63686C98.2489 2.72203 98.2866 2.80202 98.3396 2.87158C98.7087 3.26132 98.9634 3.74516 99.0757 4.27005C99.1933 5.11641 99.2426 5.97088 99.2229 6.82515L99.1282 11.4306H93.8708L93.9339 6.40456C94.0285 4.78528 94.0706 3.79689 94.0706 3.36578C94.0706 1.26282 93.7867 0.337517 93.1032 0.305973C92.388 0.281874 91.6746 0.392448 91.0003 0.631932C90.2682 0.850639 89.5629 1.15042 88.8973 1.52569C88.3506 1.83062 88.0877 2.08297 88.0351 2.37739C88.0148 2.46141 88.0147 2.54906 88.0348 2.63314C88.0549 2.71722 88.0946 2.79533 88.1508 2.86107C88.5326 3.29134 88.797 3.81286 88.9184 4.3752C89.0388 5.33762 89.088 6.30762 89.0656 7.27728C89.0656 8.32876 89.0656 10.1689 88.9078 12.8606C88.7501 15.5524 88.7501 17.2138 88.7291 17.9393L88.6555 19.3167C88.5924 20.915 88.5503 21.9139 88.5503 22.387C88.5503 24.49 88.8448 25.3522 89.5387 25.3838H90.1276C91.158 25.3839 92.1862 25.2853 93.1979 25.0894C94.2494 24.9001 94.67 24.7003 94.7961 24.3638C94.8263 24.2747 94.8324 24.1792 94.814 24.0869C94.7955 23.9946 94.7531 23.9088 94.691 23.8381C94.2655 23.2627 94.017 22.5757 93.976 21.8613C93.8254 20.6648 93.7446 19.4606 93.7341 18.2547C93.7341 16.7301 93.7341 15.3106 93.7341 13.9857H98.9915C98.9915 15.1739 98.8969 16.9194 98.8023 19.3167C98.7287 20.9465 98.6971 21.998 98.6971 22.4712C98.6971 24.5005 98.981 25.3417 99.675 25.3733H100.264C101.298 25.3729 102.329 25.2743 103.345 25.0788C104.396 24.8896 104.806 24.6898 104.932 24.3533C104.964 24.2651 104.972 24.1701 104.955 24.0778C104.939 23.9856 104.898 23.8993 104.838 23.8276C104.411 23.2141 104.167 22.4923 104.133 21.7456Z" fill="#DD0A15"/>
<path d="M121.903 5.78771L121.188 4.66263C120.62 3.80042 120.137 3.05387 119.863 2.46504C119.558 1.88115 119.311 1.26826 119.127 0.635462C118.991 0.351562 118.644 0.351562 118.444 0.351562C118.266 0.369759 118.09 0.404969 117.918 0.45671C116.261 0.816278 114.654 1.37775 113.134 2.12856C111.763 2.80359 110.533 3.73109 109.506 4.86241C108.091 6.63848 107.218 8.78529 106.993 11.0451C106.902 11.6895 106.856 12.3395 106.857 12.9904C106.842 14.6048 107.16 16.2049 107.792 17.6905C108.325 18.8691 108.955 20.0016 109.674 21.0762C110.232 21.949 110.652 22.6535 110.968 23.1792C111.277 23.7471 111.534 24.3418 111.735 24.9562C111.735 25.0508 111.83 25.3452 112.282 25.3452C112.701 25.3202 113.115 25.2388 113.512 25.1034C114.241 24.9128 114.947 24.6412 115.615 24.2938C117.972 23.4309 120.07 21.9836 121.714 20.0878C123.028 18.3646 123.801 16.2893 123.933 14.1259C123.933 13.5581 124.006 13.0745 124.006 12.8116C124.004 10.967 123.602 9.14479 122.828 7.47008C122.576 6.96537 122.261 6.38706 121.903 5.78771ZM119.085 14.494C119.098 16.0911 118.779 17.6736 118.149 19.1415C117.687 20.2298 117.02 21.2188 116.183 22.0541C116.004 21.6545 115.784 21.234 115.531 20.7818C115.163 20.1614 114.806 19.5726 114.48 19.0048C113.838 17.9533 113.428 17.3119 113.25 16.9965C112.318 15.3128 111.826 13.4214 111.82 11.4972C111.793 9.64245 112.151 7.80229 112.871 6.09264C113.234 5.2584 113.723 4.48521 114.322 3.80042L114.585 3.51652C114.701 3.76887 114.816 4.03174 114.963 4.31564C115.205 4.76778 115.479 5.25146 115.805 5.76668C116.131 6.28191 116.32 6.60787 116.414 6.76559C116.796 7.32109 117.147 7.89673 117.466 8.49002C118.51 10.32 119.068 12.3871 119.085 14.494Z" fill="#DD0A15"/>
<path d="M138.433 12.8634C137.781 12.2569 137.183 11.5956 136.645 10.8866C136.58 10.7816 136.54 10.6628 136.529 10.5397C136.547 10.2755 136.663 10.0277 136.855 9.84568C137.174 9.4646 137.526 9.11272 137.907 8.7942L138.39 8.35257C139.4 7.33186 140.219 6.13896 140.809 4.83012C141.367 3.5632 141.667 2.19773 141.692 0.813464V0.676772L141.335 0.361328H130.378C129.32 0.365392 128.264 0.46747 127.224 0.666257C126.004 0.897582 125.689 1.12891 125.583 1.41281C125.552 1.50107 125.544 1.59605 125.561 1.6883C125.577 1.78055 125.618 1.86683 125.678 1.93855C126.13 2.50993 126.43 3.18631 126.551 3.90481C126.74 4.98768 126.825 6.08632 126.803 7.18543C126.803 8.23691 126.803 10.0455 126.645 12.7372C126.488 15.429 126.488 17.0799 126.467 17.7843L126.393 19.2038C126.33 20.76 126.298 21.7589 126.298 22.2111C126.28 22.8633 126.333 23.5156 126.456 24.1563C126.603 24.7662 126.877 25.0816 127.287 25.0816H138.464C139.026 25.0583 139.582 24.9557 140.115 24.7767C140.735 24.6035 141.337 24.3711 141.913 24.0827C142.155 23.9565 142.88 23.578 142.88 22.9787C142.889 19.9836 141.906 17.07 140.083 14.693C139.568 14.0525 139.017 13.4417 138.433 12.8634ZM131.892 2.91642H136.351C136.398 4.85382 135.799 6.75183 134.647 8.31051C134.227 8.81675 133.77 9.29121 133.28 9.73001L132.155 10.8551C131.926 11.0913 131.766 11.3859 131.693 11.7068C131.693 11.5386 131.693 11.3598 131.693 11.1916C131.693 8.56287 131.766 6.98565 131.798 6.32322C131.861 5.27174 131.892 4.34644 131.892 3.64194C131.903 3.35805 131.892 3.1162 131.892 2.91642ZM132.187 13.4312C132.585 13.9071 133.021 14.3502 133.491 14.7561L134.143 15.3659C135.286 16.5443 136.231 17.9009 136.939 19.3826C137.447 20.3905 137.775 21.4794 137.907 22.6001H132.019C131.847 22.0398 131.745 21.4607 131.714 20.8757C131.661 20.0555 131.629 19.0041 131.629 17.7213C131.629 16.2597 131.629 14.4932 131.682 12.4008C131.76 12.7879 131.933 13.1494 132.187 13.4523V13.4312Z" fill="#DD0A15"/>
<path d="M177.064 0.453125C176.359 0.456012 175.656 0.515791 174.961 0.631877C174.687 0.658258 174.415 0.711078 174.151 0.789599C173.73 0.87664 173.32 1.01433 172.931 1.19968H172.868C169.798 2.61917 167.537 6.38347 166.139 12.3979C165.713 11.9623 165.402 11.4275 165.235 10.8417C164.877 9.72672 164.596 8.58845 164.393 7.43495C164.32 7.11951 164.246 6.64634 164.162 6.01545C163.931 4.65904 163.742 3.69168 163.584 3.05028C163.446 2.51773 163.255 2.00002 163.016 1.5046C162.901 1.27378 162.74 1.0689 162.543 0.902555C162.346 0.736205 162.117 0.611891 161.87 0.537243C161.738 0.492523 161.599 0.467718 161.46 0.46364C160.911 0.483862 160.372 0.623816 159.883 0.873717L158.947 1.29431L158.821 1.3574C158.699 1.43517 158.572 1.5054 158.442 1.56769C158.178 1.69724 157.924 1.84847 157.685 2.01983C157.58 2.07673 157.492 2.16206 157.433 2.26614C157.373 2.37021 157.344 2.48887 157.349 2.60866C157.366 2.70615 157.41 2.79666 157.477 2.86939C157.545 2.94211 157.631 2.99396 157.727 3.01874C157.929 3.10627 158.093 3.26284 158.19 3.46036C158.361 3.76573 158.485 4.09548 158.558 4.43823C158.642 4.85883 158.694 5.1217 158.726 5.22684C158.821 5.63692 159.01 6.65686 159.262 8.03429C159.309 8.2707 159.344 8.50934 159.367 8.7493C159.414 9.10263 159.477 9.45353 159.557 9.80078C159.715 10.5959 159.915 11.3821 160.156 12.1561C160.379 12.8289 160.698 13.4663 161.102 14.0488C161.557 14.619 162.169 15.0427 162.863 15.2671C163.557 15.4915 164.301 15.5066 165.003 15.3105C165.188 15.2866 165.37 15.2515 165.55 15.2054C165.319 16.5723 165.14 17.9392 165.024 19.2746C164.846 20.978 164.751 22.2503 164.751 23.0599C164.751 24.1745 164.856 25.3206 165.666 25.3732H166.255C167.284 25.3707 168.312 25.2756 169.325 25.0893C170.376 24.8895 170.797 24.7002 170.923 24.3638C170.956 24.2749 170.963 24.1789 170.944 24.0862C170.926 23.9934 170.882 23.9076 170.818 23.838C170.205 22.7523 169.944 21.5032 170.071 20.263C170.071 19.3903 170.071 18.5701 170.177 17.8025C170.326 15.7512 170.578 13.7087 170.934 11.6829C171.202 9.94579 171.635 8.23816 172.227 6.58325C172.638 5.49605 173.236 4.48901 173.993 3.60756C174.704 4.85239 175.114 6.24566 175.192 7.67679C175.206 7.95074 175.301 8.21435 175.466 8.43386C175.545 8.53306 175.646 8.61298 175.761 8.66761C175.875 8.72224 176.001 8.75017 176.128 8.7493C176.32 8.74177 176.505 8.67162 176.654 8.54952C176.811 8.41795 176.937 8.25264 177.022 8.06584C177.454 6.96875 177.826 5.84903 178.136 4.71162C178.514 3.55664 178.747 2.35936 178.83 1.1471C178.83 0.505699 177.915 0.453125 177.064 0.453125Z" fill="#DD0A15"/>
<path d="M195.728 1.08638C195.728 0.970717 195.728 0.602699 195.139 0.508066C194.848 0.486895 194.557 0.486895 194.266 0.508066H185.087C184.138 0.514919 183.191 0.606409 182.258 0.78145C181.207 0.991746 180.733 1.19153 180.607 1.528C180.576 1.61393 180.568 1.70637 180.582 1.79654C180.597 1.88671 180.635 1.97162 180.691 2.04323C181.124 2.62375 181.416 3.2969 181.543 4.00949C181.728 5.08581 181.809 6.17732 181.785 7.26908C181.785 8.81476 181.669 12.863 181.417 19.3085C181.354 20.9383 181.322 21.9898 181.322 22.463C181.308 23.1002 181.354 23.7374 181.459 24.3661C181.585 24.9865 181.869 25.323 182.3 25.365H182.889C183.916 25.3627 184.94 25.2641 185.949 25.0706C187 24.8814 187.431 24.6816 187.547 24.3451C187.581 24.2572 187.59 24.1617 187.573 24.069C187.557 23.9763 187.515 23.89 187.452 23.8194C187.027 23.244 186.779 22.557 186.737 21.8426C186.611 20.6377 186.555 19.4264 186.569 18.215C186.569 16.6588 186.569 14.661 186.569 12.2216C186.569 9.78212 186.632 7.81585 186.653 6.35429C186.716 5.23972 186.748 4.367 186.748 3.67302C186.748 3.39964 186.748 3.15779 186.748 2.95801H190.575C191.419 4.37992 191.923 5.97772 192.047 7.62658C192.142 8.5624 192.647 8.67806 192.952 8.67806C193.158 8.67495 193.358 8.60738 193.524 8.48481C193.69 8.36225 193.813 8.19084 193.877 7.9946C194.288 6.91415 194.639 5.81194 194.928 4.69296C195.345 3.5289 195.613 2.31725 195.728 1.08638Z" fill="#DD0A15"/>
<path d="M210.028 5.7814L209.323 4.65632C208.745 3.77307 208.272 3.03704 207.998 2.45872C207.697 1.86196 207.461 1.23446 207.294 0.587089C207.147 0.324219 206.81 0.324219 206.61 0.324219C206.447 0.334135 206.285 0.35877 206.127 0.397822C204.466 0.757381 202.856 1.31884 201.332 2.06968C199.941 2.75469 198.696 3.70067 197.662 4.8561C196.243 6.62971 195.37 8.77781 195.149 11.0388C195.052 11.6825 195.006 12.333 195.013 12.984C194.998 14.5984 195.317 16.1983 195.948 17.6841C196.484 18.8611 197.114 19.9934 197.831 21.0699C198.356 21.8796 198.787 22.6051 199.134 23.1729C199.45 23.7397 199.704 24.3391 199.891 24.9604C199.921 25.081 199.995 25.1864 200.098 25.2562C200.201 25.3261 200.326 25.3555 200.449 25.3389C200.868 25.3121 201.281 25.2308 201.679 25.0971C202.407 24.9033 203.112 24.6319 203.782 24.2874C206.137 23.4217 208.234 21.9749 209.88 20.0815C211.184 18.3546 211.945 16.2796 212.068 14.1196C212.068 13.5518 212.131 13.0682 212.131 12.8053C212.133 10.9601 211.731 9.13674 210.953 7.46377C210.68 6.88419 210.371 6.3223 210.028 5.7814ZM207.22 14.4877C207.233 16.0848 206.914 17.6672 206.284 19.1352C205.823 20.2262 205.151 21.2158 204.308 22.0478C204.129 21.6482 203.908 21.2171 203.656 20.7755C203.298 20.1551 202.93 19.5663 202.604 18.9985C201.963 17.947 201.553 17.3056 201.374 16.9902C200.438 15.3077 199.943 13.4161 199.933 11.4909C199.907 9.63614 200.265 7.79598 200.985 6.08633C201.344 5.24997 201.834 4.47618 202.436 3.7941C202.518 3.69431 202.606 3.59951 202.699 3.5102C202.81 3.78008 202.936 4.04338 203.077 4.29881C203.309 4.76146 203.593 5.24514 203.908 5.76037C204.224 6.27559 204.423 6.60155 204.528 6.75927C204.908 7.31565 205.259 7.89122 205.58 8.4837C206.631 10.3117 207.196 12.379 207.22 14.4877Z" fill="#DD0A15"/>
<path d="M231.289 23.1558C230.82 22.2736 230.524 21.3101 230.416 20.3168C230.321 19.7911 230.058 18.7606 229.638 17.257C229.217 15.7534 228.691 14.1026 228.103 12.3676C227.584 10.818 226.98 9.29805 226.294 7.81474C224.38 3.90324 223.981 2.41014 223.981 1.82131C223.954 1.58724 223.954 1.35088 223.981 1.11681C224.04 0.892851 224.04 0.657316 223.981 0.433353C223.919 0.338701 223.833 0.263023 223.73 0.214753C223.628 0.166482 223.515 0.147516 223.403 0.159968C222.786 0.21122 222.18 0.352935 221.605 0.58056C221.002 0.813383 220.433 1.12449 219.912 1.50586C219.618 1.64523 219.366 1.85953 219.181 2.12718C218.997 2.39484 218.886 2.7064 218.86 3.03051C218.878 3.67149 219.006 4.30463 219.239 4.90214C219.519 5.6525 219.842 6.38622 220.206 7.09973C218.651 8.28597 217.322 9.74277 216.284 11.4003C215.434 12.7421 214.759 14.1874 214.276 15.7008C213.955 16.8536 213.696 18.0223 213.498 19.2023C213.345 20.2148 213.278 21.2383 213.298 22.2621C213.298 24.4281 213.592 25.3219 214.297 25.3534C214.999 25.3859 215.702 25.3613 216.4 25.2798C217.134 25.207 217.861 25.0805 218.576 24.9013C219.165 24.7541 219.449 24.5753 219.533 24.3019C219.56 24.22 219.565 24.1324 219.549 24.0478C219.532 23.9631 219.494 23.8841 219.438 23.8183C219.023 23.2235 218.744 22.5453 218.618 21.831C218.41 20.8635 218.308 19.8763 218.313 18.8868C218.313 18.5398 218.313 18.0667 218.376 17.4884C218.744 13.7346 219.712 10.9482 221.268 9.21321C222 10.7508 222.639 12.3308 223.182 13.9449C223.883 15.9728 224.462 18.0409 224.917 20.1381C225.163 21.2387 225.353 22.3512 225.484 23.4713C225.51 23.923 225.584 24.3707 225.705 24.8067C225.916 25.3219 226.62 25.385 227.209 25.385C227.832 25.3688 228.453 25.3161 229.07 25.2272C229.652 25.1711 230.229 25.0691 230.794 24.9223C231.167 24.8779 231.506 24.6891 231.741 24.3966C231.804 24.2887 231.826 24.162 231.804 24.0391C231.846 23.8814 231.741 23.7131 231.289 23.1558Z" fill="#DD0A15"/>
<path d="M6.54536 39.2516L4.69475 45.2345L2.72848 38.873H1.33002H0.930455H0.793762V51.8378H2.19223H2.60231H2.72848V44.856L4.01129 49.0514H4.97865H5.28358H5.37821L6.66102 44.856V51.8378H8.05949H8.45905H8.59574V38.873H6.66102L6.54536 39.2516Z" fill="black"/>
<path d="M17.0917 51.8378H17.2284H21.2555V50.5445V50.1344V50.0082H19.0264V46.286H21.0873V44.9611V44.5616V44.4354H19.0264V40.7026H21.2555V40.1664V39.4093V39.0097V38.873H17.0917V51.8378Z" fill="black"/>
<path d="M33.7998 39.5155C33.5508 39.2519 33.2486 39.0443 32.9132 38.9065C32.5778 38.7688 32.2169 38.7039 31.8545 38.7164C31.4906 38.7038 31.1281 38.7685 30.791 38.9062C30.4539 39.044 30.1498 39.2516 29.8988 39.5155C29.4209 40.1096 29.1744 40.8567 29.2048 41.6185V49.0419C29.1655 49.805 29.413 50.5551 29.8988 51.1449C30.1464 51.418 30.4506 51.6339 30.7902 51.7773C31.1298 51.9208 31.4966 51.9885 31.8651 51.9755C32.2252 51.9906 32.5844 51.9279 32.9183 51.7918C33.2521 51.6558 33.5527 51.4495 33.7998 51.1869L34.0311 50.9661H33.9575C34.329 50.4138 34.52 49.7599 34.5043 49.0945V47.0546H32.5695V49.1576C32.5965 49.4556 32.5264 49.7543 32.3698 50.0093C32.2646 50.1249 32.17 50.188 31.8545 50.1985C31.5391 50.2091 31.4234 50.1249 31.3078 49.9988C31.154 49.7465 31.0841 49.452 31.108 49.1576V41.5869C31.0841 41.2925 31.154 40.998 31.3078 40.7457C31.4234 40.6196 31.5286 40.5565 31.8545 40.546C32.1805 40.5354 32.2646 40.6091 32.3803 40.7352C32.5268 40.994 32.5927 41.2905 32.5695 41.5869V43.6899H34.5148V41.6395C34.5452 40.8777 34.2987 40.1306 33.8208 39.5365L33.7998 39.5155Z" fill="black"/>
<path d="M42.1484 38.873V39.0097V40.1664V40.5764V40.7026H43.6415V51.8378H45.04H45.4501H45.5763V40.7026H46.5226H46.9222H47.0588V39.4093V39.0097V38.873H46.5226H42.1484Z" fill="black"/>
<path d="M59.3086 39.5158C59.0625 39.2513 58.7623 39.0431 58.4284 38.9052C58.0945 38.7673 57.7349 38.703 57.3739 38.7166C57.0098 38.7034 56.6471 38.7678 56.3099 38.9056C55.9727 39.0433 55.6687 39.2514 55.4181 39.5158C54.9403 40.1099 54.6937 40.8569 54.7242 41.6187V49.0422C54.6848 49.8052 54.9324 50.5554 55.4181 51.1451C55.6675 51.4161 55.972 51.6304 56.3112 51.7737C56.6504 51.917 57.0163 51.9859 57.3844 51.9758C57.7379 51.9868 58.0896 51.9221 58.416 51.7861C58.7424 51.6501 59.036 51.4459 59.2771 51.1872C59.7582 50.5954 60.0018 49.8458 59.9605 49.0842V41.6398C59.9939 40.8793 59.7512 40.1324 59.2771 39.5368L59.3086 39.5158ZM58.0679 49.1158C58.0948 49.4138 58.0247 49.7125 57.8681 49.9675C57.7629 50.0831 57.6683 50.1462 57.3423 50.1567C57.0164 50.1673 56.9217 50.0831 56.8061 49.957C56.6523 49.7047 56.5824 49.4102 56.6063 49.1158V41.5872C56.5824 41.2927 56.6523 40.9983 56.8061 40.746C56.9217 40.6198 57.0164 40.5567 57.3423 40.5462C57.6683 40.5357 57.7629 40.6093 57.8681 40.7355C58.0247 40.9904 58.0948 41.2892 58.0679 41.5872V49.1158Z" fill="black"/>
<path d="M83.3875 39.7047V39.6416C83.1421 39.3899 82.8473 39.1917 82.5215 39.0596C82.1958 38.9275 81.8462 38.8643 81.4948 38.874H78.7399V51.8388H80.6747V47.9167H81.4317C81.7841 47.9271 82.1348 47.8631 82.4608 47.7291C82.7869 47.595 83.0811 47.3939 83.3244 47.1387V47.0756L83.4821 46.8653C83.8537 46.3135 84.0414 45.6584 84.0184 44.9936V41.8392C84.0517 41.0787 83.809 40.3318 83.3349 39.7362L83.3875 39.7047ZM82.1678 41.7761V45.0252C82.1911 45.3229 82.1212 45.6206 81.968 45.8769C81.8628 46.0031 81.7682 46.0661 81.4422 46.0767H80.7062V40.7141H81.4422C81.7682 40.7141 81.8628 40.7877 81.968 40.9139C82.1217 41.1661 82.1917 41.4606 82.1678 41.7551V41.7761Z" fill="black"/>
<path d="M95.4059 38.873H95.3008L95.2797 38.9782L95.2167 39.3147L94.386 43.9727L93.4502 38.873H92.1253H91.6311H91.4734L93.3135 48.4415H93.5238L92.8929 51.8378H94.3965H94.733H94.8486L97.2565 38.873H95.7424H95.4059Z" fill="black"/>
<path d="M109.412 39.5277C109.164 39.2625 108.862 39.0538 108.526 38.9159C108.191 38.7779 107.829 38.7141 107.466 38.7286C107.103 38.7173 106.741 38.7826 106.404 38.9203C106.067 39.058 105.762 39.2649 105.511 39.5277C105.033 40.1218 104.786 40.8688 104.817 41.6307V49.0646C104.781 49.8289 105.033 50.5789 105.521 51.1676C105.762 51.4256 106.053 51.6308 106.377 51.7702C106.701 51.9096 107.051 51.9801 107.403 51.9772C107.757 51.9882 108.109 51.9235 108.435 51.7875C108.761 51.6515 109.055 51.4473 109.296 51.1886C109.777 50.5968 110.021 49.8472 109.979 49.0857V47.0563H108.045V49.1593C108.069 49.4571 108 49.7552 107.845 50.011C107.78 50.0847 107.699 50.1415 107.607 50.1763C107.515 50.2112 107.417 50.223 107.319 50.2107C106.993 50.2107 106.888 50.1371 106.772 50.011C106.617 49.7556 106.551 49.4563 106.583 49.1593V41.6096C106.547 41.311 106.618 41.0093 106.783 40.7579C106.888 40.6318 106.993 40.5687 107.319 40.5582C107.645 40.5476 107.74 40.6318 107.845 40.7579C108 41.0137 108.069 41.3118 108.045 41.6096V43.7126H109.979V41.6412C110.013 40.8807 109.77 40.1338 109.296 39.5382L109.412 39.5277Z" fill="black"/>
<path d="M122.955 39.5272C122.706 39.2636 122.404 39.056 122.068 38.9182C121.733 38.7804 121.372 38.7156 121.009 38.7281C120.647 38.7156 120.286 38.7804 119.951 38.9182C119.615 39.056 119.313 39.2636 119.064 39.5272C118.59 40.1228 118.347 40.8697 118.381 41.6302V49.0641C118.341 49.8272 118.589 50.5773 119.075 51.1671C119.322 51.4372 119.625 51.6511 119.963 51.7944C120.3 51.9377 120.664 52.007 121.03 51.9977C121.384 52.0087 121.736 51.9441 122.062 51.8081C122.389 51.6721 122.682 51.4678 122.923 51.2091C123.404 50.6174 123.648 49.8677 123.607 49.1062V47.0558H121.703V49.1587C121.728 49.4566 121.658 49.7547 121.504 50.0104C121.399 50.1366 121.304 50.1997 120.978 50.2102C120.652 50.2207 120.547 50.1366 120.442 50.0104C120.282 49.7567 120.212 49.457 120.242 49.1587V41.6091C120.217 41.3113 120.287 41.0132 120.442 40.7574C120.547 40.6312 120.652 40.5682 120.978 40.5576C121.304 40.5471 121.399 40.6312 121.504 40.7574C121.658 41.0132 121.728 41.3113 121.703 41.6091V43.7121H123.638V41.6407C123.672 40.8802 123.429 40.1333 122.955 39.5377V39.5272Z" fill="black"/>
<path d="M137.213 38.873H136.319H136.046H135.951L133.964 43.7624V38.873H132.555H132.155H132.029V51.8378H133.427H133.827H133.964V46.9694L135.951 51.8378H137.213H137.812H138.012L135.341 45.3607L138.012 38.873H137.213Z" fill="black"/>
<path d="M149.631 39.5158C149.385 39.2513 149.084 39.0431 148.751 38.9052C148.417 38.7673 148.057 38.703 147.696 38.7166C147.334 38.7042 146.973 38.769 146.637 38.9068C146.302 39.0446 146 39.2522 145.751 39.5158C145.273 40.1099 145.026 40.8569 145.057 41.6187V49.0422C145.021 49.8065 145.273 50.5564 145.761 51.1451C146.008 51.4164 146.311 51.631 146.648 51.7744C146.986 51.9178 147.351 51.9865 147.717 51.9758C148.071 51.9868 148.422 51.9221 148.749 51.7861C149.075 51.6501 149.369 51.4459 149.61 51.1872C150.091 50.5954 150.335 49.8458 150.293 49.0842V41.6398C150.324 40.8779 150.077 40.1309 149.599 39.5368L149.631 39.5158ZM147.665 50.1778C147.339 50.1778 147.233 50.1042 147.128 49.978C146.97 49.7278 146.899 49.4317 146.929 49.1368V41.5872C146.902 41.2892 146.972 40.9904 147.128 40.7355C147.195 40.662 147.279 40.6062 147.373 40.5732C147.466 40.5402 147.566 40.5309 147.665 40.5462C147.991 40.5462 148.085 40.6093 148.19 40.7355C148.342 40.9926 148.411 41.2896 148.39 41.5872V49.1368C148.413 49.4346 148.344 49.7322 148.19 49.9885C148.123 50.0583 148.041 50.1117 147.95 50.1445C147.858 50.1773 147.761 50.1887 147.665 50.1778Z" fill="black"/>
<path d="M163.416 36.13V35.7304V35.5938H159.388V36.13V36.8135V37.213V37.3497H163.416V36.13Z" fill="black"/>
<path d="M162.406 38.873H162.301L162.28 38.9677L162.196 39.2621L160.629 44.9401V38.873H159.231H158.821H158.694V51.8378H160.093H160.398H160.503L162.175 45.7813V51.8378H163.573H163.983H164.11V38.873H162.711H162.406Z" fill="black"/>
<path d="M187.473 39.5261C187.227 39.259 186.925 39.0483 186.589 38.9086C186.254 38.7688 185.892 38.7033 185.528 38.7165C185.166 38.7041 184.805 38.7689 184.47 38.9067C184.134 39.0444 183.832 39.252 183.583 39.5156C183.105 40.1097 182.859 40.8568 182.889 41.6186V49.0525C182.854 49.8168 183.105 50.5668 183.594 51.1555C183.841 51.4256 184.144 51.6395 184.481 51.7828C184.819 51.9261 185.183 51.9955 185.549 51.9862C185.903 51.9972 186.254 51.9325 186.581 51.7965C186.907 51.6605 187.201 51.4563 187.442 51.1976C187.923 50.6058 188.167 49.8561 188.125 49.0946V47.0547H186.264V49.1577C186.289 49.4555 186.219 49.7536 186.065 50.0094C185.959 50.1356 185.865 50.1987 185.539 50.2092C185.213 50.2197 185.108 50.1356 185.003 50.0094C184.843 49.7557 184.773 49.4559 184.803 49.1577V41.6081C184.773 41.3098 184.843 41.0101 185.003 40.7564C185.108 40.6302 185.213 40.5671 185.539 40.5566C185.865 40.5461 185.959 40.6302 186.065 40.7564C186.219 41.0122 186.289 41.3102 186.264 41.6081V43.711H188.199V41.6396C188.232 40.8791 187.99 40.1322 187.516 39.5367L187.473 39.5261Z" fill="black"/>
<path d="M200.238 38.873H200.133L200.112 38.9677L200.028 39.2621L198.461 44.9401V38.873H197.063H196.653H196.527V51.8378H197.925H198.23H198.335L200.007 45.7813V51.8378H201.406H201.816H201.942V38.873H200.543H200.238Z" fill="black"/>
<path d="M210.869 39.4093V49.3353C210.886 49.5351 210.846 49.7358 210.753 49.9136L210.69 49.9767H210.532H209.796V51.8168H210.606C210.908 51.8357 211.21 51.7923 211.494 51.6892C211.778 51.586 212.038 51.4254 212.257 51.2174C212.664 50.6866 212.859 50.0231 212.804 49.3563V40.7131H214.265V51.8483H216.2V38.873H210.869V39.4093Z" fill="black"/>
<path d="M229.375 43.5626C229.128 43.3036 228.828 43.0996 228.497 42.9637C228.165 42.8279 227.809 42.7632 227.451 42.774H226.694V38.873H224.759V51.8483H227.451C227.814 51.8587 228.175 51.792 228.51 51.6524C228.846 51.5128 229.148 51.3036 229.396 51.0387C229.874 50.4446 230.12 49.6975 230.09 48.9357V45.7813C230.12 45.0194 229.874 44.2724 229.396 43.6783L229.375 43.5626ZM228.145 45.6656V48.9147C228.17 49.2125 228.1 49.5106 227.945 49.7664C227.84 49.8926 227.745 49.9556 227.419 49.9662H226.683V44.6141H227.419C227.745 44.6141 227.84 44.6877 227.945 44.8139C228.098 45.0702 228.168 45.3679 228.145 45.6656Z" fill="black"/>
<path d="M230.984 38.873H230.584H230.448V39.4093V51.8378H231.856H232.256H232.382V38.873H230.984Z" fill="black"/>
</svg>
