<svg width="219" height="49" viewBox="0 0 219 49" fill="none" xmlns="http://www.w3.org/2000/svg">
<path d="M13.5757 25.942L12.2526 19.7948H6.57901L5.2511 25.942H0L6.17502 0.40625H12.5125L18.7943 25.942H13.5757ZM11.5236 15.5372L10.1307 8.78187C10.0379 8.22473 9.94964 7.67697 9.86142 7.14304C9.77321 6.60911 9.68962 6.08908 9.61534 5.59693C9.54105 5.10479 9.47144 4.6405 9.41573 4.20408C9.37859 4.61265 9.32759 5.05832 9.25794 5.55046C9.1883 6.0426 9.10472 6.5487 9.01186 7.08262C8.919 7.61655 8.81678 8.15977 8.70071 8.70762L7.33574 15.5326L11.5236 15.5372Z" fill="black"/>
<path d="M28.886 25.9418H24.0621V4.66356H19.3125V0.419922H33.6079V4.66356H28.8953L28.886 25.9418Z" fill="black"/>
<path d="M45.9352 25.941L40.893 7.08633H40.7537C40.8094 7.86633 40.8559 8.5999 40.893 9.28704C40.9255 9.97418 40.9533 10.6057 40.9719 11.1907C40.9905 11.7757 40.9951 12.2956 40.9951 12.7599V25.9224H36.4219V0.386719H43.1773L47.8898 17.8577H48.0152L52.7276 0.386719H59.4458V25.9224H54.7705V12.7227C54.7705 12.2027 54.7705 11.6503 54.7705 11.0746C54.7705 10.4989 54.8123 9.88137 54.8402 9.21744C54.868 8.55351 54.9098 7.85707 54.9562 7.11421H54.8169L49.7377 25.9131L45.9352 25.941Z" fill="black"/>
<path d="M75.3101 25.942L73.9869 19.7948H68.3134L66.9855 25.942H61.7344L67.914 0.40625H74.247L80.5287 25.942H75.3101ZM73.2347 15.5372L71.8419 8.78187C71.749 8.22473 71.6609 7.67697 71.5727 7.14304C71.4845 6.60911 71.4009 6.08908 71.3266 5.59693C71.2523 5.10479 71.1872 4.6405 71.1269 4.20408C71.0897 4.61265 71.0387 5.05832 70.9691 5.55046C70.8994 6.0426 70.8159 6.5487 70.723 7.08262C70.6301 7.61655 70.528 8.15977 70.412 8.70762L69.0515 15.5326L73.2347 15.5372Z" fill="black"/>
<path d="M98.9496 25.942H94.0421V14.7991H87.7232V25.942H82.8203V0.40625H87.7232V10.5136H94.0421V0.40625H98.9496V25.942Z" fill="black"/>
<path d="M120.881 13.1465C120.901 14.9863 120.714 16.8224 120.324 18.6205C120.016 20.0896 119.449 21.492 118.648 22.7619C117.949 23.8621 116.979 24.7638 115.83 25.3804C114.582 25.9825 113.214 26.2953 111.828 26.2953C110.442 26.2953 109.074 25.9825 107.826 25.3804C106.672 24.7568 105.699 23.8471 104.998 22.7386C104.202 21.4531 103.635 20.0393 103.322 18.5601C102.932 16.7652 102.745 14.9321 102.765 13.0954C102.702 10.6527 103.051 8.21684 103.796 5.8897C104.341 4.14507 105.407 2.60912 106.851 1.48829C108.31 0.466109 110.061 -0.0537107 111.842 0.00724084C113.677 -0.071225 115.482 0.490002 116.949 1.59506C118.365 2.78 119.4 4.35621 119.925 6.12649C120.615 8.40074 120.938 10.7706 120.881 13.1465ZM107.844 13.1465C107.815 14.79 107.971 16.4315 108.309 18.0401C108.502 19.121 108.964 20.136 109.65 20.9929C109.929 21.301 110.268 21.5478 110.647 21.7174C111.025 21.8869 111.435 21.9757 111.851 21.9778C112.266 21.98 112.677 21.8956 113.057 21.7301C113.438 21.5645 113.78 21.3213 114.061 21.0162C114.743 20.1741 115.198 19.1722 115.384 18.1051C115.719 16.474 115.875 14.8114 115.849 13.1465C115.849 10.1565 115.517 7.93101 114.855 6.47006C114.193 5.00911 113.197 4.27865 111.87 4.27865C111.452 4.27313 111.039 4.35929 110.659 4.53097C110.279 4.70264 109.941 4.95572 109.669 5.27228C108.982 6.1345 108.521 7.15404 108.327 8.23902C107.984 9.85176 107.822 11.4978 107.844 13.1465Z" fill="black"/>
<path d="M124.712 0.419922H131.431C134.058 0.419922 136.029 0.935315 137.341 1.96603C138.653 2.99674 139.306 4.57684 139.3 6.70637C139.315 7.61593 139.177 8.52152 138.892 9.38531C138.653 10.1156 138.249 10.7812 137.712 11.3306C137.199 11.8439 136.558 12.211 135.855 12.3939V12.5704C136.678 12.7711 137.44 13.1659 138.079 13.7218C138.666 14.2654 139.103 14.9515 139.347 15.7136C139.629 16.6289 139.764 17.5833 139.746 18.541C139.781 19.9032 139.473 21.2525 138.85 22.4643C138.262 23.5609 137.357 24.4554 136.254 25.0317C135.003 25.6727 133.612 25.9918 132.206 25.9603H124.703L124.712 0.419922ZM129.615 10.7549H131.431C131.839 10.7864 132.25 10.726 132.632 10.5782C133.015 10.4304 133.359 10.1989 133.641 9.90071C134.172 9.17375 134.428 8.28223 134.365 7.38421C134.393 6.98502 134.341 6.58433 134.212 6.20558C134.083 5.82683 133.879 5.47768 133.613 5.17885C133.308 4.90701 132.951 4.69951 132.564 4.56868C132.178 4.43785 131.768 4.38642 131.361 4.41747H129.615V10.7549ZM129.615 14.6457V21.8189H131.83C132.242 21.8492 132.655 21.7831 133.037 21.626C133.419 21.4688 133.759 21.2249 134.031 20.9136C134.517 20.2945 134.761 19.3752 134.764 18.1557C134.785 17.4988 134.659 16.8455 134.397 16.2428C134.175 15.7499 133.807 15.3368 133.343 15.0589C132.823 14.7694 132.234 14.6266 131.64 14.6457H129.615Z" fill="black"/>
<path d="M164.852 0.419922L159.253 18.4668C158.807 19.9661 158.213 21.4173 157.479 22.7986C156.933 23.9199 156.064 24.8518 154.983 25.4741C153.902 26.0965 152.66 26.3807 151.416 26.29C150.907 26.2911 150.399 26.2475 149.898 26.16C149.425 26.0743 148.959 25.9532 148.505 25.7979V21.5403C148.861 21.7317 149.24 21.8784 149.633 21.9768C150 22.0685 150.378 22.1153 150.756 22.1161C151.241 22.1353 151.722 22.0247 152.149 21.7957C152.557 21.528 152.879 21.1495 153.078 20.7047C153.395 20.0325 153.647 19.3313 153.83 18.6107L147.688 0.419922H152.836L155.297 8.81889C155.45 9.28318 155.585 9.77536 155.706 10.2582C155.826 10.7411 155.947 11.2378 156.063 11.7486C156.179 12.2593 156.286 12.7978 156.379 13.355H156.588C156.671 12.8071 156.755 12.3103 156.843 11.8646C156.931 11.4189 157.024 10.9732 157.131 10.5367C157.238 10.1003 157.349 9.63137 157.479 9.14387L159.731 0.433864L164.852 0.419922Z" fill="black"/>
<path d="M179.183 0.420079V4.66371H172.079V25.942H167.172V0.40625L179.183 0.420079Z" fill="black"/>
<path d="M199.272 13.1463C199.291 14.986 199.104 16.8221 198.715 18.6202C198.402 20.0881 197.835 21.4898 197.039 22.7616C196.338 23.8608 195.368 24.7622 194.22 25.3801C192.972 25.9823 191.604 26.295 190.218 26.295C188.832 26.295 187.464 25.9823 186.216 25.3801C185.061 24.7591 184.087 23.8489 183.389 22.7384C182.589 21.4547 182.022 20.0403 181.713 18.5598C181.322 16.765 181.135 14.9319 181.155 13.0952C181.094 10.6529 181.44 8.21742 182.182 5.88944C182.728 4.14559 183.794 2.61009 185.236 1.48802C186.697 0.465798 188.45 -0.0539758 190.232 0.00697605C192.067 -0.0699412 193.872 0.491127 195.339 1.5948C196.754 2.78 197.788 4.35628 198.311 6.12623C199.005 8.39969 199.329 10.7699 199.272 13.1463ZM186.235 13.1463C186.208 14.7896 186.364 16.4308 186.699 18.0399C186.896 19.1205 187.359 20.1351 188.045 20.9927C188.323 21.3006 188.662 21.5473 189.04 21.7169C189.419 21.8864 189.829 21.975 190.243 21.9772C190.658 21.9794 191.069 21.8951 191.449 21.7296C191.829 21.564 192.17 21.3209 192.451 21.0159C193.136 20.1754 193.594 19.173 193.779 18.1048C194.114 16.4738 194.27 14.8111 194.244 13.1463C194.244 10.1563 193.911 7.93075 193.245 6.4698C192.586 5.0073 191.588 4.27838 190.265 4.27838C189.847 4.27286 189.434 4.35902 189.054 4.5307C188.674 4.70238 188.336 4.95545 188.064 5.27202C187.378 6.13489 186.915 7.15399 186.718 8.23875C186.377 9.85189 186.215 11.4977 186.235 13.1463Z" fill="black"/>
<path d="M218.79 25.9415H213.952V4.96034H210.372C210.27 6.32069 210.145 7.74609 210.005 9.29681C209.866 10.8475 209.718 12.3286 209.541 13.8004C209.365 15.2721 209.23 16.5861 209.077 17.77C208.924 18.9539 208.775 19.8593 208.65 20.5093C208.406 21.647 208.037 22.7542 207.549 23.8104C207.202 24.5799 206.631 25.227 205.91 25.6675C205.097 26.0894 204.188 26.291 203.273 26.2525C202.832 26.2562 202.391 26.2252 201.955 26.1597C201.623 26.1076 201.298 26.0221 200.984 25.9043V21.7257C201.184 21.8346 201.396 21.9203 201.616 21.9811C201.82 22.0342 202.031 22.0607 202.243 22.06C202.415 22.062 202.587 22.0288 202.746 21.9625C202.906 21.8963 203.05 21.7984 203.171 21.6746C203.485 21.2976 203.706 20.8525 203.816 20.3747C204.034 19.5518 204.189 18.7136 204.281 17.8675C204.38 17.2082 204.497 16.2518 204.634 14.9982C204.77 13.7447 204.925 12.3162 205.098 10.7129C205.26 9.10647 205.428 7.41639 205.59 5.64282C205.753 3.86925 205.901 2.11898 206.054 0.396484H218.78L218.79 25.9415Z" fill="black"/>
<path d="M4.79498 48.1631L1.91179 39.806H1.84672C1.84672 39.9963 1.87927 40.2703 1.89784 40.5721C1.91642 40.8739 1.93039 41.2407 1.94432 41.6121C1.95825 41.9835 1.94432 42.3409 1.94432 42.6706V48.1724H0.449219V38.1484H2.77065L5.55636 46.1481H5.59819L8.4628 38.1484H10.7842V48.1724H9.20105V42.601C9.20105 42.2945 9.20105 41.965 9.20105 41.6075C9.20105 41.25 9.20109 40.9156 9.23823 40.5952C9.27537 40.2749 9.27066 40.0196 9.28459 39.8292H9.21964L6.22967 48.1863L4.79498 48.1631Z" fill="#DD0B16"/>
<path d="M22.3891 48.1626H16.7109V38.1387H22.3891V39.5315H18.3545V42.2523H22.1339V43.6452H18.3545V46.793H22.3891V48.1626Z" fill="#DD0B16"/>
<path d="M32.1104 39.393C31.6695 39.3861 31.2323 39.4747 30.829 39.653C30.4542 39.825 30.1262 40.0846 29.8725 40.4098C29.5967 40.7628 29.3932 41.1667 29.2736 41.5984C29.1321 42.1077 29.0633 42.6344 29.0693 43.163C29.0521 43.8448 29.1639 44.5238 29.399 45.1641C29.5894 45.6864 29.9384 46.1361 30.3971 46.4502C30.9023 46.7722 31.4931 46.9341 32.0918 46.9144C32.5114 46.9155 32.9298 46.8735 33.3407 46.7891C33.7637 46.7041 34.1808 46.5924 34.5897 46.4548V47.8477C34.1909 48.0064 33.7771 48.1246 33.3547 48.2005C32.8787 48.2754 32.3972 48.3111 31.9154 48.3073C31.0209 48.3439 30.1346 48.1231 29.3618 47.6712C28.6843 47.2437 28.1568 46.6157 27.8529 45.8745C27.5092 45.011 27.342 44.0875 27.3608 43.1583C27.3524 42.4528 27.4574 41.7505 27.6718 41.0783C27.8681 40.478 28.184 39.9236 28.6004 39.4487C29.0098 38.9843 29.5194 38.6191 30.0907 38.3808C30.7379 38.1195 31.4311 37.9916 32.1289 38.0048C33.1106 38.0079 34.0794 38.2282 34.9657 38.6501L34.39 40.0058C34.0354 39.8427 33.6709 39.7017 33.2989 39.5834C32.915 39.4586 32.5141 39.3944 32.1104 39.393Z" fill="#DD0B16"/>
<path d="M43.5197 48.1619H41.867V39.5354H38.9141V38.1426H46.4262V39.5354H43.5012L43.5197 48.1619Z" fill="#DD0B16"/>
<path d="M60.1768 43.1339C60.1846 43.8468 60.0876 44.557 59.8889 45.2417C59.712 45.8425 59.4134 46.4004 59.0114 46.8807C58.6174 47.3431 58.1171 47.7031 57.5535 47.93C56.8992 48.1879 56.1999 48.3126 55.4967 48.2968C54.7844 48.3137 54.0759 48.189 53.4121 47.93C52.8458 47.7033 52.3426 47.3433 51.945 46.8807C51.5475 46.3996 51.2534 45.8416 51.0814 45.2417C50.8843 44.552 50.789 43.8373 50.7982 43.12C50.7797 42.1941 50.9519 41.2743 51.3042 40.4179C51.623 39.6702 52.1688 39.0416 52.8643 38.621C53.6699 38.1661 54.5862 37.9443 55.5107 37.9804C56.4181 37.947 57.3169 38.1672 58.1061 38.6164C58.7957 39.0426 59.3383 39.6697 59.6614 40.4132C60.0222 41.2739 60.1979 42.2008 60.1768 43.1339ZM52.5254 43.1339C52.5109 43.8159 52.6178 44.495 52.841 45.1396C53.021 45.6648 53.3602 46.1209 53.8114 46.4443C54.3222 46.7425 54.903 46.8996 55.4945 46.8996C56.0859 46.8996 56.6667 46.7425 57.1775 46.4443C57.6273 46.1215 57.9636 45.6649 58.1385 45.1396C58.3561 44.4939 58.4599 43.8151 58.445 43.1339C58.498 42.1661 58.2533 41.2053 57.7439 40.3807C57.4869 40.0382 57.1472 39.7666 56.7566 39.5912C56.3661 39.4158 55.9374 39.3424 55.5107 39.3779C54.9131 39.3562 54.3234 39.5183 53.8207 39.8421C53.3678 40.1619 53.0254 40.6146 52.841 41.1375C52.6189 41.7792 52.512 42.455 52.5254 43.1339Z" fill="#DD0B16"/>
<path d="M75.489 38.1387C76.7797 38.1387 77.7268 38.4034 78.3211 38.9327C78.6237 39.2181 78.86 39.5664 79.0132 39.9531C79.1664 40.3398 79.2329 40.7553 79.2079 41.1705C79.21 41.5888 79.1426 42.0047 79.0083 42.4009C78.8709 42.7931 78.6435 43.1477 78.3443 43.4362C78.0018 43.7637 77.589 44.0083 77.1372 44.1513C76.5366 44.3389 75.9092 44.4267 75.2801 44.4112H74.1983V48.1626H72.5547V38.1387H75.489ZM75.3776 39.5084H74.1983V43.0323H75.1268C75.5717 43.0422 76.0153 42.9812 76.4408 42.8512C76.7689 42.7514 77.0556 42.5477 77.258 42.2709C77.4597 41.9628 77.5588 41.5987 77.5411 41.2309C77.5593 40.9892 77.5215 40.7465 77.4305 40.5218C77.3395 40.2971 77.1978 40.0964 77.0165 39.9355C76.5338 39.6129 75.9564 39.4624 75.3776 39.5084Z" fill="#DD0B16"/>
<path d="M92.1899 38.1387L89.0003 45.3166C88.7599 45.8839 88.4676 46.4279 88.1274 46.9416C87.8423 47.365 87.4582 47.7124 87.0085 47.9537C86.4692 48.2016 85.8792 48.3193 85.286 48.2973C85.0281 48.2971 84.7705 48.2784 84.5152 48.2415C84.2763 48.2114 84.0403 48.1618 83.8095 48.093V46.5981C84.0243 46.688 84.2486 46.7534 84.4781 46.793C84.7153 46.8377 84.9563 46.8594 85.1977 46.858C85.4816 46.8681 85.7641 46.8142 86.0242 46.7002C86.2483 46.5964 86.4418 46.4364 86.5859 46.2359C86.755 45.9971 86.8967 45.7401 87.0085 45.4698L83.3359 38.1433H85.1002L87.4589 43.1113C87.5006 43.1902 87.5471 43.2923 87.6028 43.413C87.6585 43.5337 87.7095 43.6545 87.7652 43.7798C87.821 43.9052 87.8628 44.0212 87.8999 44.128H87.9602C87.9927 44.0352 88.0299 43.9284 88.0809 43.803L88.2295 43.413L88.3688 43.0648L90.4674 38.1433L92.1899 38.1387Z" fill="#DD0B16"/>
<path d="M101.072 39.3931C100.629 39.3866 100.191 39.4752 99.7858 39.653C99.4118 39.8263 99.084 40.0857 98.8293 40.4099C98.5551 40.7631 98.3531 41.1671 98.235 41.5985C98.0912 42.1073 98.0224 42.6343 98.0308 43.163C98.0144 43.8444 98.1246 44.5229 98.3558 45.1641C98.5496 45.6859 98.8998 46.135 99.3586 46.4502C99.8637 46.7723 100.455 46.9341 101.053 46.9145C101.473 46.9153 101.891 46.8733 102.302 46.7891C102.724 46.7047 103.139 46.593 103.546 46.4549V47.8477C103.148 48.0076 102.734 48.1259 102.311 48.2006C101.835 48.2757 101.354 48.3114 100.872 48.3074C99.9778 48.3426 99.0919 48.1219 98.3186 47.6712C97.6436 47.242 97.1181 46.6144 96.8143 45.8745C96.4682 45.0118 96.3008 44.0877 96.3221 43.1584C96.3137 42.4529 96.4188 41.7506 96.6333 41.0784C96.8295 40.478 97.1454 39.9237 97.5618 39.4487C97.9712 38.9844 98.4808 38.6192 99.0522 38.3809C99.6992 38.1192 100.393 37.9913 101.09 38.0049C102.068 38.0129 103.032 38.2364 103.913 38.6595L103.338 40.0152C102.983 39.8528 102.618 39.7118 102.246 39.5927C101.867 39.4665 101.471 39.3992 101.072 39.3931Z" fill="#DD0B16"/>
<path d="M113.279 39.393C112.837 39.3857 112.398 39.4743 111.993 39.653C111.619 39.8263 111.292 40.0857 111.037 40.4098C110.763 40.7639 110.56 41.1675 110.438 41.5984C110.296 42.1077 110.228 42.6344 110.234 43.163C110.219 43.8447 110.33 44.5232 110.563 45.1641C110.754 45.6877 111.105 46.1377 111.566 46.4502C112.07 46.7721 112.659 46.934 113.256 46.9145C113.676 46.9158 114.094 46.8738 114.505 46.7891C114.928 46.7046 115.345 46.593 115.754 46.4548V47.8477C115.355 48.007 114.942 48.1252 114.519 48.2005C114.043 48.2756 113.562 48.3114 113.08 48.3073C112.185 48.3431 111.299 48.1224 110.526 47.6712C109.851 47.242 109.326 46.6144 109.022 45.8745C108.674 45.0121 108.505 44.088 108.525 43.1583C108.518 42.4526 108.625 41.7503 108.841 41.0783C109.033 40.4764 109.35 39.9213 109.769 39.4487C110.179 38.9843 110.688 38.6191 111.26 38.3808C111.905 38.1195 112.597 37.9916 113.293 38.0048C114.276 38.0086 115.247 38.2289 116.135 38.6501L115.559 40.0058C115.202 39.8435 114.837 39.7024 114.463 39.5834C114.081 39.4589 113.681 39.3947 113.279 39.393Z" fill="#DD0B16"/>
<path d="M128.882 48.1626H126.97L122.851 43.0834V48.1626H121.203V38.1387H122.851V42.9905L126.891 38.1387H128.692L124.648 42.9766L128.882 48.1626Z" fill="#DD0B16"/>
<path d="M142.404 43.1336C142.412 43.8469 142.314 44.5575 142.111 45.2415C141.936 45.842 141.639 46.3999 141.238 46.8804C140.842 47.3419 140.34 47.7017 139.776 47.9297C139.122 48.1882 138.422 48.3129 137.719 48.2965C137.007 48.3131 136.298 48.1884 135.634 47.9297C135.069 47.704 134.567 47.3438 134.172 46.8804C133.774 46.3994 133.48 45.8414 133.308 45.2415C133.111 44.5518 133.016 43.8371 133.025 43.1198C133.004 42.1937 133.177 41.2734 133.531 40.4176C133.85 39.6713 134.394 39.0431 135.087 38.6208C135.893 38.167 136.809 37.9453 137.733 37.9801C138.642 37.9469 139.542 38.1671 140.333 38.6161C141.022 39.0413 141.564 39.6688 141.884 40.413C142.248 41.2726 142.426 42.2001 142.404 43.1336ZM134.752 43.1336C134.736 43.8158 134.843 44.4953 135.068 45.1394C135.248 45.6646 135.587 46.1206 136.038 46.444C136.549 46.7422 137.13 46.8994 137.721 46.8994C138.313 46.8994 138.894 46.7422 139.404 46.444C139.854 46.1213 140.191 45.6646 140.366 45.1394C140.579 44.4928 140.681 43.8145 140.667 43.1336C140.722 42.1663 140.479 41.2056 139.971 40.3804C139.713 40.038 139.372 39.7664 138.981 39.5911C138.59 39.4157 138.16 39.3423 137.733 39.3776C137.136 39.3569 136.546 39.5189 136.043 39.8419C135.591 40.162 135.251 40.6147 135.068 41.1373C134.844 41.7784 134.737 42.4546 134.752 43.1336Z" fill="#DD0B16"/>
<path d="M147.867 38.1395H149.367V43.4511C149.367 43.6786 149.367 43.9153 149.367 44.2078C149.367 44.5003 149.367 44.7463 149.344 45.0063C149.32 45.2663 149.344 45.5031 149.311 45.7028C149.279 45.9024 149.311 46.0556 149.283 46.1671H149.33L154.437 38.1581H156.35V48.1821H154.864V42.9171C154.864 42.6663 154.864 42.3971 154.864 42.1092C154.864 41.826 154.864 41.5474 154.897 41.2781C154.929 41.0088 154.924 40.7675 154.938 40.5632C154.952 40.3589 154.938 40.2104 154.966 40.0989H154.901L149.794 48.1635H147.867V38.1395ZM155.249 34.9453C155.216 35.3744 155.086 35.7903 154.869 36.1618C154.647 36.5127 154.323 36.7867 153.94 36.9464C153.408 37.1481 152.842 37.2412 152.273 37.2203C151.703 37.2434 151.133 37.1536 150.597 36.9557C150.22 36.8064 149.906 36.5328 149.706 36.1803C149.51 35.7967 149.397 35.3757 149.376 34.9453H150.848C150.841 35.3251 150.985 35.6923 151.247 35.9667C151.564 36.1449 151.921 36.2385 152.285 36.2385C152.648 36.2385 153.006 36.1449 153.323 35.9667C153.465 35.8395 153.579 35.6845 153.659 35.5112C153.739 35.3378 153.783 35.15 153.787 34.9593L155.249 34.9453Z" fill="#DD0B16"/>
<path d="M173.486 39.3931C173.043 39.3866 172.605 39.4752 172.2 39.653C171.826 39.8263 171.498 40.0857 171.243 40.4099C170.969 40.7631 170.767 41.1671 170.649 41.5985C170.505 42.1073 170.436 42.6343 170.445 43.163C170.428 43.8444 170.539 44.5229 170.77 45.1641C170.964 45.6859 171.314 46.135 171.773 46.4502C172.278 46.7723 172.868 46.9341 173.467 46.9145C173.887 46.9153 174.305 46.8733 174.716 46.7891C175.138 46.7047 175.553 46.593 175.96 46.4549V47.8477C175.563 48.007 175.151 48.1253 174.73 48.2006C174.253 48.2757 173.77 48.3114 173.286 48.3074C172.392 48.3426 171.506 48.1219 170.733 47.6712C170.058 47.242 169.532 46.6144 169.228 45.8745C168.882 45.0118 168.715 44.0877 168.736 43.1584C168.728 42.4529 168.833 41.7506 169.047 41.0784C169.243 40.478 169.559 39.9237 169.976 39.4487C170.385 38.9844 170.895 38.6192 171.466 38.3809C172.113 38.1192 172.806 37.9913 173.504 38.0049C174.487 38.0108 175.456 38.2344 176.341 38.6595L175.765 40.0152C175.41 39.8528 175.046 39.7118 174.674 39.5927C174.291 39.4651 173.89 39.3978 173.486 39.3931Z" fill="#DD0B16"/>
<path d="M181.422 38.1387H182.926V43.4502C182.926 43.6777 182.926 43.9144 182.926 44.2069C182.926 44.4994 182.926 44.7455 182.926 45.0055C182.926 45.2655 182.903 45.5023 182.894 45.7019C182.884 45.9015 182.894 46.0548 182.871 46.1662H182.917L188.024 38.1573H189.937V48.1812H188.414V42.9162C188.414 42.6655 188.414 42.3962 188.414 42.1083C188.414 41.8251 188.414 41.5465 188.447 41.2772C188.479 41.008 188.474 40.7666 188.488 40.5623C188.502 40.3581 188.512 40.2095 188.516 40.0981H188.456L183.349 48.1626H181.422V38.1387Z" fill="#DD0B16"/>
<path d="M203.362 48.1626H201.719V39.5362H198.868C198.808 40.0005 198.743 40.5112 198.673 41.0405C198.603 41.5697 198.534 42.1084 198.459 42.6423C198.385 43.1763 198.315 43.6823 198.241 44.1652C198.167 44.6481 198.088 45.0706 198.009 45.442C197.911 45.9743 197.755 46.4942 197.545 46.9926C197.386 47.3817 197.122 47.7192 196.783 47.9677C196.41 48.2098 195.97 48.3284 195.525 48.3066C195.355 48.3075 195.186 48.2919 195.019 48.2601C194.861 48.2361 194.706 48.1988 194.555 48.1487V46.7884C194.67 46.8322 194.788 46.8679 194.908 46.8952C195.04 46.9277 195.175 46.9433 195.312 46.9416C195.419 46.9447 195.526 46.9223 195.624 46.8763C195.722 46.8304 195.807 46.7621 195.873 46.6769C196.043 46.4522 196.168 46.1968 196.24 45.9248C196.35 45.5412 196.44 45.1522 196.509 44.7594C196.56 44.4901 196.621 44.1327 196.695 43.687C196.769 43.2413 196.848 42.7259 196.937 42.1409C197.025 41.5559 197.113 40.9244 197.206 40.2465C197.299 39.5687 197.392 38.8537 197.484 38.1387H203.344L203.362 48.1626Z" fill="#DD0B16"/>
<path d="M209.305 48.1626V38.1387H210.953V42.192H212.09C212.85 42.1644 213.606 42.2923 214.314 42.568C214.828 42.7775 215.262 43.145 215.554 43.6173C215.819 44.0772 215.953 44.6003 215.944 45.1308C215.963 45.5471 215.889 45.9623 215.729 46.3468C215.568 46.7312 215.324 47.0754 215.015 47.3548C214.396 47.8934 213.431 48.1626 212.118 48.1626H209.305ZM210.953 46.7698H212.049C212.627 46.8065 213.204 46.6707 213.706 46.3797C213.899 46.2329 214.051 46.0398 214.15 45.8182C214.248 45.5966 214.289 45.3537 214.268 45.1123C214.285 44.782 214.192 44.4554 214.003 44.1837C213.798 43.9466 213.521 43.7835 213.214 43.7194C212.789 43.622 212.354 43.5769 211.919 43.5848H210.953V46.7698ZM217.323 48.1626V38.1387H218.967V48.1626H217.323Z" fill="#DD0B16"/>
</svg>
