<svg width="377" height="100" viewBox="0 0 377 100" fill="none" xmlns="http://www.w3.org/2000/svg">
<path d="M92.6524 35.0158V29.8613H62.5703V38.0091L69.9853 37.0155V32.0722H73.2394V68.7619H82.1945V32.0722H85.2375V36.0218L92.6524 35.0158Z" fill="#E30613"/>
<path d="M171.246 46.9517H166.861V29.8613H157.906V68.7619H166.861V50.3425H171.246V68.7619H180.188V29.911L171.246 29.8613V46.9517Z" fill="#E30613"/>
<path d="M226.68 41.0021C226.084 41.3747 225.438 41.7598 224.928 42.1696C224.371 42.5657 223.884 43.0528 223.488 43.6104V31.4012H227.81V40.3935L226.68 41.0021ZM227.065 43.6725C227.834 43.2266 228.646 42.8564 229.487 42.5671L236.604 40.083C236.644 40.0719 236.679 40.0474 236.704 40.0136C236.729 39.9798 236.742 39.9386 236.74 39.8967V29.7617H214.508V68.6623H236.74V53.3604L229.512 50.9633C228.654 50.6749 227.823 50.3133 227.027 49.8827L225.475 48.8394C225.017 48.4999 224.6 48.1081 224.233 47.6719L223.922 47.2496C223.822 47.1021 223.739 46.9438 223.674 46.7776C223.989 46.0862 224.477 45.4875 225.09 45.0387C225.773 44.4923 227.003 43.6725 227.003 43.6725M224.842 51.398C225.411 51.8171 226.004 52.2028 226.618 52.5531L227.723 53.1741V67.0973H223.401V49.8951C223.765 50.4958 224.257 51.0089 224.842 51.398Z" fill="#E30613"/>
<path d="M206.17 32.6426C203.785 30.4815 200.978 29.9102 197.364 29.9102C193.75 29.9102 190.93 30.4815 188.546 32.6426C186.857 34.1703 185.801 35.7229 185.801 40.2936V58.328C185.801 62.8862 186.857 64.4512 188.546 65.9789C190.93 68.1276 193.725 68.699 197.364 68.699C201.003 68.699 203.785 68.1276 206.17 65.9789C207.859 64.4512 208.915 62.8862 208.915 58.328V40.2936C208.915 35.7229 207.859 34.1703 206.17 32.6426ZM200.022 40.2936V64.9852C200.015 65.1682 199.972 65.348 199.895 65.5142C199.818 65.6805 199.71 65.8299 199.575 65.954C199.436 66.1076 199.265 66.2294 199.074 66.3108C198.883 66.3923 198.677 66.4316 198.47 66.426H196.234C196.025 66.4301 195.817 66.3902 195.625 66.3089C195.432 66.2276 195.259 66.1067 195.116 65.954C194.852 65.699 194.696 65.352 194.681 64.9852V33.6239C194.7 33.2614 194.855 32.9195 195.116 32.6675C195.256 32.5106 195.429 32.3861 195.622 32.3025C195.815 32.2189 196.024 32.1781 196.234 32.1831H198.457C198.666 32.1774 198.873 32.2179 199.064 32.3016C199.255 32.3853 199.425 32.5103 199.563 32.6675C199.831 32.9151 199.992 33.2587 200.01 33.6239L200.022 40.2936Z" fill="#E30613"/>
<path d="M134.133 29.8613V32.5814H143.324V34.519C143.314 35.1714 143.153 35.8126 142.853 36.3923C142.554 36.972 142.124 37.4744 141.597 37.86C141.12 38.2238 140.609 38.54 140.07 38.804C139.386 39.1598 138.676 39.4629 137.946 39.7107C137.025 39.9969 136.082 40.2046 135.126 40.3317C133.4 40.5677 131.723 40.754 129.984 40.8409V68.6998H138.169V55.0374H143.262V68.6998H152.217V29.8613H134.133ZM143.324 51.6094H138.232V42.4556C139.268 42.0414 140.276 41.5601 141.25 41.0148C142.065 40.563 142.772 39.9401 143.324 39.189V51.6094Z" fill="#E30613"/>
<path d="M37.3939 28.5078V31.7992H48.5723V34.1467C48.5636 34.9392 48.3706 35.7188 48.0084 36.4237C47.6462 37.1287 47.1249 37.7396 46.4856 38.2081C45.9111 38.6501 45.2906 39.0291 44.635 39.3384C43.8072 39.7804 42.9429 40.1502 42.0516 40.4438C40.9377 40.7998 39.7948 41.0575 38.636 41.2139C36.5493 41.4871 34.5248 41.7107 32.4258 41.8224V94.5345H42.3621V66.5141H48.5723V94.5345H59.4401V28.5078H37.3939ZM48.5723 63.1482H42.3621V43.7849C43.6205 43.2822 44.8445 42.6972 46.0261 42.0336C47.0037 41.4789 47.8509 40.7207 48.5102 39.8103L48.5723 63.1482Z" fill="#E30613"/>
<path d="M263.307 48.6404C262.897 48.0934 262.402 47.6154 261.842 47.2245C261.367 46.8568 260.869 46.5207 260.351 46.2184L259.208 45.5602L258.985 45.4359V30.1465H249.943V47.4729C251.694 47.5847 253.445 47.6344 255.197 47.8207C255.888 47.88 256.574 47.9964 257.246 48.1684C257.936 48.3414 258.603 48.5957 259.233 48.9261L260.165 49.4726C261.173 50.0803 262.058 50.8724 262.773 51.8076C263.127 52.3715 263.301 53.0302 263.27 53.6955V65.4203C263.271 65.6089 263.236 65.796 263.165 65.9707C263.094 66.1455 262.989 66.3044 262.856 66.4383C262.723 66.5723 262.565 66.6786 262.391 66.7512C262.217 66.8237 262.03 66.8611 261.842 66.8611H260.463C260.253 66.8669 260.043 66.8265 259.85 66.7428C259.657 66.6592 259.485 66.5341 259.345 66.3767C259.21 66.2507 259.1 66.0991 259.023 65.9307C258.947 65.7623 258.904 65.5804 258.898 65.3955V56.5646H249.918V58.9617C249.918 63.5697 250.974 65.1719 252.675 66.6872C255.097 68.8731 257.917 69.4445 261.581 69.4445H263.307C265.705 69.4445 268.005 68.4918 269.701 66.7961C271.397 65.1004 272.349 62.8006 272.349 60.4025V30.1465H263.307V48.6404Z" fill="#E30613"/>
<path d="M276.684 30.3457H298.978V34.432L290.098 39.1517V32.5689H285.75V69.3208H276.684V32.5689V30.3457Z" fill="#E30613"/>
<path d="M298.929 33.8351V30.3574C296.718 30.4709 294.615 31.349 292.979 32.8415C291.551 34.2077 290.595 35.5864 290.371 38.9772L298.954 34.4189L298.929 33.8351Z" fill="#E30613"/>
<path d="M310.081 32.8181C308.417 31.3237 306.291 30.4467 304.057 30.334V66.0053C304.04 66.3788 303.885 66.7326 303.622 66.9989C303.49 67.1548 303.324 67.2792 303.137 67.363C302.95 67.4468 302.747 67.4879 302.542 67.4833H300.381C300.176 67.4879 299.973 67.4468 299.786 67.363C299.599 67.2792 299.433 67.1548 299.3 66.9989C299.04 66.7321 298.889 66.3776 298.878 66.0053V39.6617L290.184 44.2324V59.1368C290.184 63.8193 291.202 65.4091 292.854 66.9865C295.164 69.1973 297.822 69.7811 301.412 69.7811C305.001 69.7811 307.622 69.1973 309.982 66.9865C311.621 65.4091 312.64 63.8193 312.64 59.1368V40.6305C312.739 35.9853 311.745 34.3954 310.081 32.8181Z" fill="#E30613"/>
<path d="M115.418 29.8613V33.8483C115.393 33.995 115.347 34.1372 115.281 34.2705C115.182 34.4693 115.07 34.668 114.946 34.8791C114.821 35.0903 114.685 35.2766 114.548 35.4629C114.457 35.5857 114.374 35.7143 114.3 35.8479C113.323 36.9359 112.246 37.9297 111.083 38.8164V29.8613H97.9794V32.5814H102.14V34.1339V34.519C102.13 35.1714 101.969 35.8126 101.669 36.3923C101.37 36.972 100.94 37.4744 100.414 37.86C99.9385 38.2266 99.4266 38.5429 98.8861 38.804C98.2012 39.1575 97.4913 39.4606 96.7622 39.7107C95.842 39.9982 94.8987 40.206 93.9428 40.3317C92.2164 40.5677 90.5521 40.754 88.8008 40.8409V68.6998H96.9858V42.4556C98.0231 42.0437 99.0314 41.5623 100.004 41.0148C100.825 40.5668 101.537 39.9434 102.091 39.189V68.6998H111.033V42.0209C111.856 41.4253 112.64 40.7781 113.381 40.0833C114.138 39.3943 114.802 38.6093 115.356 37.7482V68.7991H124.311V29.8613H115.418Z" fill="#E30613"/>
<path d="M323.953 29.4141V32.7055H335.131L335.193 35.0653C335.181 35.8553 334.986 36.6318 334.624 37.3341C334.262 38.0365 333.743 38.6457 333.107 39.1144C332.532 39.5603 331.912 39.9434 331.256 40.257C330.423 40.6888 329.56 41.0582 328.673 41.3624C327.557 41.7086 326.415 41.962 325.257 42.1201C323.17 42.3933 321.146 42.6169 319.047 42.7287V95.4283H328.983V44.6911C330.239 44.1875 331.463 43.6068 332.647 42.9522C333.623 42.3896 334.469 41.6279 335.131 40.7166V95.4283H345.999V29.4141H323.953Z" fill="#E30613"/>
<path d="M71.8828 82.375H74.0564L78.3787 87.7282L82.7009 82.375H84.8621V94.5966H82.3283V86.4489L78.3787 91.2928L74.429 86.4489V94.5966H71.8828V82.375Z" fill="#E30613"/>
<path d="M99.2461 92.5592C98.9014 93.0092 98.4812 93.3958 98.0041 93.7019C96.8331 94.4728 95.4562 94.8712 94.0544 94.8446C92.3679 94.8611 90.7438 94.2069 89.5396 93.0259C88.3354 91.845 87.6496 90.234 87.6331 88.5475C87.6166 86.8609 88.2708 85.2369 89.4517 84.0326C90.6327 82.8284 92.2437 82.1426 93.9302 82.1261C94.7218 82.1002 95.5102 82.237 96.2468 82.5281C96.9833 82.8191 97.6523 83.2582 98.2123 83.8183C98.7723 84.3783 99.2114 85.0473 99.5025 85.7838C99.7936 86.5203 99.9304 87.3088 99.9044 88.1003C99.8988 88.408 99.8739 88.7149 99.8299 89.0194V89.3796H90.4153C90.5762 90.2628 91.0505 91.0582 91.7511 91.6196C92.4516 92.181 93.3313 92.4705 94.2283 92.435C95.1558 92.4256 96.0595 92.1403 96.8242 91.6153C97.1882 91.3896 97.5149 91.1089 97.793 90.7831L99.2461 92.5592ZM97.2092 87.2185C97.0945 86.4287 96.6956 85.7079 96.0874 85.1911C95.4791 84.6743 94.7034 84.3972 93.9054 84.4115C93.0765 84.3878 92.2657 84.6558 91.6142 85.1688C90.9628 85.6818 90.5121 86.4072 90.3407 87.2185H97.2092Z" fill="#E30613"/>
<path d="M113.505 92.299C113.117 92.7674 112.67 93.1847 112.176 93.541C111.047 94.3596 109.684 94.7948 108.289 94.7831C106.602 94.7831 104.985 94.1131 103.792 92.9205C102.6 91.7279 101.93 90.1104 101.93 88.4238C101.93 86.7372 102.6 85.1198 103.792 83.9272C104.985 82.7346 106.602 82.0646 108.289 82.0646C109.668 82.0556 111.014 82.4911 112.127 83.3066C112.593 83.665 113.01 84.0826 113.369 84.5487L111.58 86.213C111.351 85.8948 111.07 85.6177 110.748 85.3933C110.031 84.8544 109.161 84.5584 108.264 84.5487C107.217 84.5487 106.212 84.9648 105.471 85.7055C104.73 86.4462 104.314 87.4508 104.314 88.4984C104.314 89.5459 104.73 90.5505 105.471 91.2912C106.212 92.0319 107.217 92.448 108.264 92.448C109.17 92.4457 110.048 92.1298 110.748 91.5538C111.083 91.2911 111.388 90.9911 111.655 90.6595L113.505 92.299Z" fill="#E30613"/>
<path d="M118.858 84.7963H114.66V82.3867H125.602V84.7963H121.404V94.5959H118.858V84.7963Z" fill="#E30613"/>
<path d="M133.227 82.1252C134.484 82.1252 135.714 82.4981 136.76 83.1969C137.805 83.8957 138.62 84.8888 139.102 86.0508C139.583 87.2128 139.709 88.4915 139.464 89.725C139.218 90.9586 138.613 92.0917 137.723 92.9811C136.834 93.8704 135.701 94.4761 134.467 94.7214C133.234 94.9668 131.955 94.8409 130.793 94.3596C129.631 93.8782 128.638 93.0632 127.939 92.0174C127.24 90.9716 126.867 89.7422 126.867 88.4844C126.861 87.6475 127.021 86.8175 127.338 86.043C127.655 85.2685 128.123 84.5648 128.715 83.973C129.307 83.3812 130.011 82.913 130.785 82.5958C131.56 82.2785 132.39 82.1186 133.227 82.1252ZM137.052 88.4844C137.028 87.7336 136.783 87.0065 136.348 86.394C135.913 85.7814 135.307 85.3105 134.607 85.0399C133.906 84.7693 133.141 84.7111 132.407 84.8724C131.673 85.0337 131.003 85.4075 130.481 85.9472C129.958 86.4868 129.606 87.1683 129.468 87.9068C129.33 88.6453 129.413 89.408 129.706 90.0998C129.999 90.7916 130.489 91.3819 131.115 91.797C131.741 92.2121 132.475 92.4337 133.227 92.4341C133.744 92.4488 134.258 92.3558 134.737 92.1608C135.216 91.9659 135.649 91.6733 136.009 91.3018C136.369 90.9303 136.648 90.4879 136.827 90.0029C137.007 89.5178 137.083 89.0007 137.052 88.4844Z" fill="#E30613"/>
<path d="M147.797 82.3745H150.281V84.163C150.553 83.7705 150.889 83.4263 151.275 83.1445C152.206 82.4606 153.336 82.1026 154.491 82.1261C156.059 82.2961 157.509 83.0393 158.563 84.213C159.616 85.3867 160.199 86.9082 160.199 88.4853C160.199 90.0624 159.616 91.5839 158.563 92.7576C157.509 93.9313 156.059 94.6745 154.491 94.8445C153.336 94.868 152.206 94.51 151.275 93.826C150.889 93.5443 150.553 93.2001 150.281 92.8076V99.9369H147.797V82.3745ZM157.733 88.4853C157.69 87.7595 157.434 87.0623 156.999 86.4796C156.564 85.897 155.968 85.4543 155.285 85.2063C154.601 84.9582 153.86 84.9156 153.153 85.0836C152.445 85.2516 151.802 85.623 151.303 86.1519C150.804 86.6809 150.471 87.3442 150.345 88.0602C150.218 88.7763 150.304 89.5137 150.591 90.1817C150.878 90.8496 151.355 91.4188 151.962 91.8192C152.569 92.2196 153.28 92.4337 154.007 92.435C154.516 92.4359 155.019 92.3326 155.487 92.1315C155.954 91.9305 156.375 91.6358 156.724 91.2658C157.073 90.8957 157.343 90.4582 157.516 89.98C157.69 89.5018 157.764 88.9931 157.733 88.4853Z" fill="#E30613"/>
<path d="M162.254 97.1434C162.394 97.2213 162.539 97.2878 162.689 97.3421C163.039 97.4706 163.409 97.5337 163.782 97.5284C164.272 97.5144 164.745 97.3458 165.133 97.0469C165.521 96.748 165.805 96.334 165.943 95.8641L166.453 94.622L161.484 82.4004H164.291L167.719 91.4424L171.16 82.4004H173.954L168.614 96.0628C167.595 98.6338 166.13 100 164.155 100C163.693 100.009 163.233 99.9503 162.788 99.8262L162.254 99.6274V97.1434Z" fill="#E30613"/>
<path d="M186.81 92.299C186.429 92.77 185.986 93.1877 185.494 93.541C184.359 94.3589 182.993 94.794 181.594 94.7831C179.907 94.7831 178.289 94.1131 177.097 92.9205C175.904 91.7279 175.234 90.1104 175.234 88.4238C175.234 86.7372 175.904 85.1198 177.097 83.9272C178.289 82.7346 179.907 82.0646 181.594 82.0646C182.977 82.0556 184.327 82.491 185.444 83.3066C185.914 83.6609 186.332 84.079 186.686 84.5487L184.91 86.213C184.676 85.8945 184.391 85.6175 184.065 85.3933C183.349 84.8528 182.478 84.5567 181.581 84.5487C180.534 84.5487 179.529 84.9648 178.788 85.7055C178.048 86.4462 177.631 87.4508 177.631 88.4984C177.631 89.5459 178.048 90.5505 178.788 91.2912C179.529 92.0319 180.534 92.448 181.581 92.448C182.488 92.4478 183.366 92.1316 184.065 91.5538C184.404 91.2914 184.713 90.9913 184.984 90.6595L186.81 92.299Z" fill="#E30613"/>
<path d="M199.802 92.2989C199.414 92.7674 198.967 93.1847 198.473 93.541C197.342 94.3572 195.981 94.7922 194.586 94.783C192.899 94.783 191.282 94.113 190.089 92.9204C188.897 91.7278 188.227 90.1103 188.227 88.4238C188.227 86.7372 188.897 85.1197 190.089 83.9271C191.282 82.7346 192.899 82.0645 194.586 82.0645C195.965 82.0573 197.31 82.4926 198.424 83.3066C198.893 83.6609 199.311 84.0789 199.666 84.5486L197.89 86.2129C197.659 85.8915 197.373 85.6139 197.045 85.3932C196.331 84.8496 195.459 84.5531 194.561 84.5486C193.513 84.5486 192.509 84.9647 191.768 85.7054C191.027 86.4461 190.611 87.4508 190.611 88.4983C190.611 89.5458 191.027 90.5504 191.768 91.2912C192.509 92.0319 193.513 92.448 194.561 92.448C195.468 92.4509 196.348 92.1343 197.045 91.5537C197.387 91.2947 197.696 90.9943 197.964 90.6594L199.802 92.2989Z" fill="#E30613"/>
<path d="M202.223 82.375H204.769V87.9766L209.985 82.375H213.165L208.458 87.3431L213.55 94.5966H210.619L206.806 89.1193L204.769 91.2928V94.5966H202.223V82.375Z" fill="#E30613"/>
<path d="M220.668 82.1252C221.926 82.1252 223.155 82.4981 224.201 83.1969C225.247 83.8957 226.062 84.8888 226.543 86.0508C227.025 87.2128 227.15 88.4915 226.905 89.725C226.66 90.9586 226.054 92.0917 225.165 92.9811C224.275 93.8704 223.142 94.4761 221.909 94.7214C220.675 94.9668 219.396 94.8409 218.234 94.3596C217.072 93.8782 216.079 93.0632 215.381 92.0174C214.682 90.9716 214.309 89.7422 214.309 88.4844C214.302 87.6475 214.462 86.8175 214.779 86.043C215.097 85.2685 215.565 84.5648 216.157 83.973C216.748 83.3812 217.452 82.913 218.227 82.5958C219.001 82.2785 219.831 82.1186 220.668 82.1252ZM224.494 88.4844C224.469 87.7336 224.224 87.0065 223.789 86.394C223.354 85.7814 222.749 85.3105 222.048 85.0399C221.347 84.7693 220.582 84.7111 219.848 84.8724C219.115 85.0337 218.445 85.4075 217.922 85.9472C217.4 86.4868 217.047 87.1683 216.91 87.9068C216.772 88.6453 216.854 89.408 217.147 90.0998C217.44 90.7916 217.93 91.3819 218.556 91.797C219.182 92.2121 219.917 92.4337 220.668 92.4341C221.185 92.4488 221.699 92.3558 222.179 92.1608C222.658 91.9659 223.091 91.6733 223.451 91.3018C223.811 90.9303 224.089 90.4879 224.269 90.0029C224.448 89.5178 224.525 89.0007 224.494 88.4844Z" fill="#E30613"/>
<path d="M229.833 82.375H232.38V90.5227L238.751 82.375H241.037V94.5966H238.466V86.4489L232.106 94.5966H229.809L229.833 82.375ZM233.659 76.7734C233.659 77.2445 233.846 77.6962 234.179 78.0293C234.512 78.3624 234.964 78.5495 235.435 78.5495C235.906 78.5495 236.358 78.3624 236.691 78.0293C237.024 77.6962 237.211 77.2445 237.211 76.7734H239.124C238.997 77.6616 238.554 78.4743 237.877 79.0623C237.199 79.6502 236.332 79.9739 235.435 79.9739C234.538 79.9739 233.671 79.6502 232.993 79.0623C232.315 78.4743 231.873 77.6616 231.746 76.7734H233.659Z" fill="#E30613"/>
<path d="M260.822 92.299C260.44 92.77 259.998 93.1877 259.505 93.541C258.37 94.3589 257.004 94.794 255.605 94.7831C253.919 94.7831 252.301 94.1131 251.109 92.9205C249.916 91.7279 249.246 90.1104 249.246 88.4238C249.246 86.7372 249.916 85.1198 251.109 83.9272C252.301 82.7346 253.919 82.0646 255.605 82.0646C256.989 82.0556 258.338 82.491 259.456 83.3066C259.925 83.6609 260.343 84.079 260.698 84.5487L258.922 86.213C258.688 85.8945 258.402 85.6175 258.077 85.3933C257.361 84.8528 256.49 84.5567 255.593 84.5487C254.545 84.5487 253.541 84.9648 252.8 85.7055C252.059 86.4462 251.643 87.4508 251.643 88.4984C251.643 89.5459 252.059 90.5505 252.8 91.2912C253.541 92.0319 254.545 92.448 255.593 92.448C256.5 92.4478 257.378 92.1316 258.077 91.5538C258.416 91.2914 258.725 90.9913 258.996 90.6595L260.822 92.299Z" fill="#E30613"/>
<path d="M263.184 82.375H265.73V90.5228L272.101 82.375H274.387V94.5966H271.841V86.4489L265.481 94.5966H263.184V82.375Z" fill="#E30613"/>
<path d="M276.035 92.1747L276.346 92.2492C276.538 92.2841 276.734 92.3049 276.929 92.3113C278.333 92.3113 279.215 91.417 279.215 85.9396V82.375H288.629V94.5966H286.145V84.797H281.811V85.9396C281.811 93.0689 280.035 94.8451 277.613 94.8451C277.245 94.8478 276.878 94.8061 276.52 94.7208C276.37 94.6977 276.224 94.656 276.085 94.5966L276.035 92.1747Z" fill="#E30613"/>
<path d="M292.21 82.375H294.694V86.2005H297.24C300.196 86.2005 301.947 87.9766 301.947 90.3986C301.947 92.8205 300.196 94.5966 297.24 94.5966H292.16L292.21 82.375ZM297.29 92.3113C298.718 92.3113 299.463 91.5413 299.463 90.3986C299.463 89.2559 298.718 88.4858 297.29 88.4858H294.744V92.3113H297.29ZM303.786 82.375H306.27V94.5966H303.786V82.375Z" fill="#E30613"/>
<path d="M34.6716 2.16429H30.7344V0.189453H40.6707V2.16429H36.7334V13.3054H34.6716V2.16429Z" fill="#3C3C3B"/>
<path d="M42.3494 11.3429C42.452 11.3881 42.5609 11.4174 42.6723 11.4299C42.9356 11.4997 43.2073 11.5332 43.4797 11.5292C44.0214 11.5575 44.5574 11.4077 45.006 11.1027C45.4545 10.7977 45.7909 10.3542 45.9637 9.84006L46.2494 9.28115L41.2812 0.189453H43.4299L47.1934 7.24421L50.4723 0.21428H52.621L47.7523 10.4238C46.7959 12.3987 45.6905 13.5165 43.7281 13.5165C43.3844 13.5241 43.0414 13.4822 42.7096 13.3923L42.3122 13.2432L42.3494 11.3429Z" fill="#3C3C3B"/>
<path d="M54.6445 0.189804H59.8859C60.4589 0.158695 61.0322 0.244691 61.5709 0.442548C62.1095 0.640405 62.6023 0.945972 63.0189 1.34059C63.4355 1.7352 63.7673 2.21057 63.9941 2.73771C64.2208 3.26484 64.3378 3.83266 64.3378 4.4065C64.3378 4.98034 64.2208 5.54817 63.9941 6.0753C63.7673 6.60243 63.4355 7.07782 63.0189 7.47244C62.6023 7.86705 62.1095 8.17262 61.5709 8.37048C61.0322 8.56833 60.4589 8.65433 59.8859 8.62322H56.7063V13.3057H54.6445V0.189804ZM59.8859 6.74775C60.2077 6.77121 60.5309 6.72807 60.8353 6.62104C61.1397 6.51401 61.4187 6.34537 61.655 6.12567C61.8913 5.90597 62.0798 5.63993 62.2086 5.34413C62.3375 5.04834 62.404 4.72915 62.404 4.4065C62.404 4.08385 62.3375 3.76467 62.2086 3.46887C62.0798 3.17308 61.8913 2.90703 61.655 2.68733C61.4187 2.46763 61.1397 2.29902 60.8353 2.19198C60.5309 2.08495 60.2077 2.04182 59.8859 2.06527H56.7063V6.74775H59.8859Z" fill="#3C3C3B"/>
<path d="M67 0.189453H69.0618V9.84007L76.278 0.189453H78.1535V13.3054H76.0917V3.65473L68.8755 13.3054H67V0.189453Z" fill="#3C3C3B"/>
<path d="M93.4311 10.8713C93.0259 11.3681 92.5584 11.8106 92.04 12.1878C90.8615 13.0385 89.4443 13.495 87.9909 13.492C86.9315 13.4798 85.8899 13.2182 84.9504 12.7284C84.011 12.2386 83.2001 11.5343 82.5836 10.6727C81.9671 9.81103 81.5623 8.81629 81.4019 7.76901C81.2416 6.72174 81.3302 5.65142 81.6606 4.64478C81.991 3.63815 82.554 2.72352 83.3038 1.97502C84.0536 1.22652 84.9693 0.665201 85.9765 0.336564C86.9837 0.00792792 88.0542 -0.0787902 89.1012 0.0834419C90.1482 0.245674 91.1422 0.652299 92.0028 1.27035C92.4966 1.62633 92.9432 2.0437 93.3317 2.51238L92.0897 3.75442C91.8127 3.38022 91.4771 3.0531 91.096 2.78563C90.2191 2.12776 89.1493 1.77841 88.0531 1.792C86.7618 1.792 85.5233 2.30497 84.6103 3.21804C83.6972 4.13111 83.1843 5.3695 83.1843 6.66078C83.1843 7.95206 83.6972 9.19046 84.6103 10.1035C85.5233 11.0166 86.7618 11.5296 88.0531 11.5296C89.1663 11.5408 90.2511 11.1777 91.1333 10.4987C91.5371 10.2168 91.8899 9.86817 92.1766 9.46777L93.4311 10.8713Z" fill="#3C3C3B"/>
<path d="M98.3123 2.16429H94.375V0.189453H104.311V2.16429H100.374V13.3054H98.3123V2.16429Z" fill="#3C3C3B"/>
<path d="M106.562 0.189453H108.624V9.84007L115.841 0.189453H117.716V13.3054H115.654V3.65473L108.438 13.3054H106.562V0.189453Z" fill="#3C3C3B"/>
<path d="M129.227 8.06396C128.925 8.24895 128.604 8.40291 128.271 8.52351C127.506 8.83556 126.687 8.99587 125.861 8.99548C123.029 8.99548 121.266 7.25664 121.266 4.12671V0.189453H123.327V4.12671C123.293 4.51696 123.345 4.90994 123.479 5.27806C123.613 5.64617 123.826 5.98049 124.103 6.25749C124.38 6.5345 124.714 6.74748 125.082 6.88147C125.451 7.01546 125.844 7.0672 126.234 7.03307C126.994 7.02493 127.741 6.82864 128.407 6.46172C128.705 6.31358 128.98 6.12554 129.227 5.90281V0.189453H131.289V13.3054H129.227V8.06396Z" fill="#3C3C3B"/>
<path d="M135.055 0.189453H144.333V2.16429H137.116V5.53021H142.83V7.50504H137.116V11.3429H144.519V13.3054H135.055V0.189453Z" fill="#3C3C3B"/>
<path d="M158.38 10.8713C157.979 11.3683 157.516 11.8109 157.001 12.1878C155.821 13.0362 154.405 13.4925 152.952 13.492C151.893 13.4798 150.851 13.2182 149.911 12.7284C148.972 12.2386 148.161 11.5343 147.545 10.6727C146.928 9.81103 146.523 8.81629 146.363 7.76901C146.203 6.72174 146.291 5.65142 146.622 4.64478C146.952 3.63815 147.515 2.72352 148.265 1.97502C149.015 1.22652 149.93 0.665201 150.937 0.336564C151.945 0.00792792 153.015 -0.0787902 154.062 0.0834419C155.109 0.245674 156.103 0.652299 156.964 1.27035C157.455 1.62958 157.901 2.04658 158.293 2.51238L156.976 3.75442C156.702 3.37736 156.366 3.04974 155.983 2.78563C155.109 2.13037 154.044 1.78115 152.952 1.792C151.661 1.792 150.422 2.30497 149.509 3.21804C148.596 4.13111 148.083 5.3695 148.083 6.66078C148.083 7.95206 148.596 9.19046 149.509 10.1035C150.422 11.0166 151.661 11.5296 152.952 11.5296C154.061 11.538 155.141 11.1751 156.02 10.4987C156.425 10.2138 156.781 9.86574 157.075 9.46777L158.38 10.8713Z" fill="#3C3C3B"/>
<path d="M160.824 0.189453H162.886V6.5611L168.786 0.189453H171.419L166.351 5.62957L171.791 13.3054H169.258L164.948 7.12001L162.886 9.38052V13.3054H160.824V0.189453Z" fill="#3C3C3B"/>
<path d="M179.38 0.00256943C180.705 0.0416208 181.989 0.470117 183.072 1.23452C184.154 1.99893 184.988 3.06537 185.468 4.30065C185.948 5.53592 186.054 6.88527 185.771 8.18017C185.489 9.47507 184.832 10.6581 183.881 11.5815C182.93 12.505 181.729 13.1278 180.426 13.3724C179.124 13.6169 177.778 13.4722 176.557 12.9564C175.336 12.4407 174.294 11.5766 173.562 10.4723C172.829 9.36789 172.438 8.07214 172.438 6.74684C172.439 5.84468 172.621 4.95192 172.973 4.12123C173.325 3.29053 173.839 2.53871 174.486 1.91012C175.133 1.28153 175.9 0.788903 176.74 0.461283C177.581 0.133663 178.479 -0.022307 179.38 0.00256943ZM179.38 11.6156C180.343 11.6132 181.283 11.3255 182.082 10.789C182.881 10.2526 183.503 9.4913 183.87 8.60144C184.236 7.71157 184.331 6.73301 184.142 5.78938C183.952 4.84575 183.488 3.97939 182.806 3.29972C182.125 2.62005 181.257 2.15757 180.313 1.97071C179.369 1.78385 178.391 1.88099 177.502 2.24986C176.613 2.61872 175.853 3.24277 175.319 4.04317C174.785 4.84356 174.499 5.78441 174.499 6.74684C174.494 7.38865 174.617 8.02502 174.861 8.6188C175.105 9.21257 175.464 9.75183 175.919 10.2051C176.373 10.6584 176.913 11.0166 177.508 11.2587C178.102 11.5009 178.739 11.6222 179.38 11.6156Z" fill="#3C3C3B"/>
<path d="M189.219 0.189453H198.497V2.16429H191.281V5.53021H197.006V7.50504H191.281V11.3429H198.683V13.3054H189.219V0.189453Z" fill="#3C3C3B"/>
<path d="M216.865 10.8713C216.46 11.3681 215.992 11.8106 215.474 12.1878C214.295 13.0385 212.878 13.495 211.425 13.492C210.365 13.4798 209.323 13.2182 208.384 12.7284C207.445 12.2386 206.634 11.5343 206.017 10.6727C205.401 9.81103 204.996 8.81629 204.836 7.76901C204.675 6.72174 204.764 5.65142 205.094 4.64478C205.425 3.63815 205.988 2.72352 206.737 1.97502C207.487 1.22652 208.403 0.665201 209.41 0.336564C210.417 0.00792792 211.488 -0.0787902 212.535 0.0834419C213.582 0.245674 214.576 0.652299 215.436 1.27035C215.93 1.62633 216.377 2.0437 216.765 2.51238L215.523 3.75442C215.246 3.38022 214.911 3.0531 214.53 2.78563C213.653 2.12776 212.583 1.77841 211.487 1.792C210.195 1.792 208.957 2.30497 208.044 3.21804C207.131 4.13111 206.618 5.3695 206.618 6.66078C206.618 7.95206 207.131 9.19046 208.044 10.1035C208.957 11.0166 210.195 11.5296 211.487 11.5296C212.6 11.5408 213.685 11.1777 214.567 10.4987C214.971 10.2168 215.323 9.86817 215.61 9.46777L216.865 10.8713Z" fill="#3C3C3B"/>
<path d="M225.013 0.001927C226.338 0.0385526 227.623 0.465006 228.707 1.22799C229.792 1.99097 230.627 3.05662 231.109 4.29174C231.591 5.52687 231.698 6.87667 231.417 8.17242C231.137 9.46817 230.48 10.6524 229.53 11.577C228.58 12.5017 227.378 13.1258 226.075 13.3713C224.772 13.6167 223.426 13.4727 222.204 12.9573C220.983 12.4418 219.94 11.5777 219.207 10.473C218.474 9.36831 218.083 8.07204 218.082 6.74619C218.085 5.8456 218.268 4.95467 218.62 4.12559C218.971 3.29651 219.485 2.54594 220.13 1.91786C220.776 1.28978 221.54 0.796812 222.378 0.467823C223.217 0.138835 224.112 -0.0195602 225.013 0.001927ZM225.013 11.615C225.975 11.615 226.917 11.3294 227.718 10.7944C228.518 10.2594 229.142 9.49903 229.511 8.60938C229.879 7.71973 229.976 6.74079 229.788 5.79634C229.6 4.85189 229.136 3.98435 228.455 3.30344C227.774 2.62252 226.907 2.15882 225.962 1.97096C225.018 1.7831 224.039 1.87951 223.149 2.24802C222.26 2.61653 221.499 3.24057 220.964 4.04124C220.429 4.8419 220.144 5.78324 220.144 6.74619C220.14 7.38649 220.264 8.02109 220.508 8.61328C220.751 9.20548 221.11 9.7435 221.562 10.1963C222.015 10.649 222.553 11.0075 223.145 11.2511C223.738 11.4946 224.372 11.6183 225.013 11.615Z" fill="#3C3C3B"/>
<path d="M240.95 0.001927C242.275 0.0385526 243.561 0.465006 244.645 1.22799C245.729 1.99097 246.565 3.05662 247.047 4.29174C247.529 5.52687 247.636 6.87667 247.355 8.17242C247.074 9.46817 246.417 10.6524 245.467 11.577C244.517 12.5017 243.315 13.1258 242.013 13.3713C240.71 13.6167 239.363 13.4727 238.142 12.9573C236.92 12.4418 235.878 11.5777 235.145 10.473C234.411 9.36831 234.02 8.07204 234.02 6.74619C234.023 5.8456 234.205 4.95467 234.557 4.12559C234.909 3.29651 235.422 2.54594 236.068 1.91786C236.713 1.28978 237.478 0.796812 238.316 0.467823C239.154 0.138835 240.05 -0.0195602 240.95 0.001927ZM240.95 11.615C241.913 11.615 242.854 11.3294 243.655 10.7944C244.456 10.2594 245.08 9.49903 245.448 8.60938C245.817 7.71973 245.913 6.74079 245.725 5.79634C245.537 4.85189 245.074 3.98435 244.393 3.30344C243.712 2.62252 242.844 2.15882 241.9 1.97096C240.956 1.7831 239.977 1.87951 239.087 2.24802C238.197 2.61653 237.437 3.24057 236.902 4.04124C236.367 4.8419 236.081 5.78324 236.081 6.74619C236.078 7.38649 236.202 8.02109 236.445 8.61328C236.689 9.20548 237.047 9.7435 237.5 10.1963C237.953 10.649 238.491 11.0075 239.083 11.2511C239.675 11.4946 240.31 11.6183 240.95 11.615Z" fill="#3C3C3B"/>
<path d="M250.797 0.189453H259.417V2.15185H252.859V5.24453H256.225C256.773 5.21409 257.321 5.29576 257.837 5.48456C258.352 5.67335 258.824 5.9653 259.222 6.34255C259.621 6.7198 259.939 7.17443 260.156 7.67863C260.373 8.18282 260.485 8.72599 260.485 9.27493C260.485 9.82388 260.373 10.3671 260.156 10.8713C259.939 11.3755 259.621 11.8301 259.222 12.2073C258.824 12.5846 258.352 12.8765 257.837 13.0653C257.321 13.2541 256.773 13.3358 256.225 13.3054H250.797V0.189453ZM256.225 11.4299C256.521 11.4524 256.82 11.4134 257.101 11.3154C257.382 11.2173 257.639 11.0622 257.857 10.8599C258.076 10.6576 258.25 10.4124 258.369 10.1397C258.488 9.86693 258.549 9.57253 258.549 9.27493C258.549 8.97733 258.488 8.68295 258.369 8.41021C258.25 8.13747 258.076 7.89227 257.857 7.68996C257.639 7.48765 257.382 7.3326 257.101 7.23452C256.82 7.13645 256.521 7.09745 256.225 7.12H252.859V11.4299H256.225Z" fill="#3C3C3B"/>
<path d="M263.27 0.189453H265.331V11.3429H270.113V0.189453H272.175V11.3429H276.944V0.189453H279.006V11.3429H280.608V16.1248H278.547V13.3054H263.27V0.189453Z" fill="#3C3C3B"/>
<path d="M282.941 0.189453H292.219V2.16429H285.003V5.53021H290.729V7.50504H285.003V11.3429H292.406V13.3054H282.941V0.189453Z" fill="#3C3C3B"/>
<path d="M306.279 10.8713C305.874 11.3681 305.406 11.8106 304.888 12.1878C303.709 13.0385 302.292 13.495 300.839 13.492C299.779 13.4798 298.738 13.2182 297.798 12.7284C296.859 12.2386 296.048 11.5343 295.431 10.6727C294.815 9.81103 294.41 8.81629 294.25 7.76901C294.089 6.72174 294.178 5.65142 294.508 4.64478C294.839 3.63815 295.402 2.72352 296.151 1.97502C296.901 1.22652 297.817 0.665201 298.824 0.336564C299.831 0.00792792 300.902 -0.0787902 301.949 0.0834419C302.996 0.245674 303.99 0.652299 304.85 1.27035C305.344 1.62633 305.791 2.0437 306.179 2.51238L304.937 3.75442C304.657 3.38318 304.322 3.05655 303.944 2.78563C303.067 2.12776 301.997 1.77841 300.901 1.792C299.609 1.792 298.371 2.30497 297.458 3.21804C296.545 4.13111 296.032 5.3695 296.032 6.66078C296.032 7.95206 296.545 9.19046 297.458 10.1035C298.371 11.0166 299.609 11.5296 300.901 11.5296C302.014 11.5408 303.099 11.1777 303.981 10.4987C304.382 10.2134 304.734 9.86532 305.024 9.46777L306.279 10.8713Z" fill="#3C3C3B"/>
<path d="M311.147 2.16429H307.223V0.189453H317.147V2.16429H313.209V13.3054H311.147V2.16429Z" fill="#3C3C3B"/>
<path d="M319.395 0.189258H324.648C325.136 0.150424 325.627 0.20997 326.091 0.364394C326.555 0.518817 326.984 0.764958 327.351 1.08819C327.718 1.41142 328.017 1.80515 328.229 2.246C328.441 2.68686 328.562 3.16585 328.586 3.65453C328.593 4.41663 328.304 5.15169 327.778 5.70388C327.551 5.9419 327.281 6.13564 326.983 6.27523C327.401 6.44506 327.784 6.68914 328.114 6.99561C328.477 7.29805 328.767 7.67845 328.963 8.10853C329.158 8.53861 329.254 9.00729 329.244 9.47968C329.217 10.0172 329.083 10.544 328.851 11.0293C328.618 11.5145 328.291 11.9485 327.888 12.3058C327.486 12.6632 327.016 12.9367 326.507 13.1104C325.997 13.2841 325.459 13.3546 324.922 13.3176H319.395V0.189258ZM324.648 5.53C324.895 5.5506 325.143 5.51982 325.377 5.4396C325.611 5.35938 325.826 5.23148 326.008 5.06397C326.19 4.89646 326.336 4.69298 326.435 4.46641C326.534 4.23985 326.586 3.9951 326.586 3.74768C326.586 3.50025 326.534 3.25553 326.435 3.02896C326.336 2.8024 326.19 2.59892 326.008 2.43141C325.826 2.2639 325.611 2.13598 325.377 2.05576C325.143 1.97554 324.895 1.94476 324.648 1.96536H321.456V5.53H324.648ZM324.922 11.529C325.218 11.5516 325.517 11.5126 325.798 11.4145C326.079 11.3165 326.336 11.1614 326.555 10.9591C326.773 10.7568 326.947 10.5116 327.066 10.2388C327.185 9.9661 327.246 9.6717 327.246 9.3741C327.246 9.0765 327.185 8.78212 327.066 8.50938C326.947 8.23664 326.773 7.99144 326.555 7.78913C326.336 7.58682 326.079 7.43177 325.798 7.33369C325.517 7.23562 325.218 7.19662 324.922 7.21917H321.456V11.529H324.922Z" fill="#3C3C3B"/>
<path d="M338.239 0.00223818C339.565 0.0388638 340.85 0.465318 341.934 1.2283C343.018 1.99128 343.854 3.05693 344.336 4.29205C344.818 5.52718 344.925 6.87699 344.644 8.17273C344.363 9.46848 343.707 10.6527 342.756 11.5774C341.806 12.502 340.604 13.1261 339.302 13.3716C337.999 13.617 336.652 13.4731 335.431 12.9576C334.209 12.4421 333.167 11.578 332.434 10.4733C331.7 9.36862 331.309 8.07235 331.309 6.7465C331.31 5.84543 331.492 4.95371 331.843 4.12386C332.194 3.294 332.707 2.54276 333.353 1.91434C333.999 1.28592 334.764 0.793025 335.603 0.464647C336.442 0.13627 337.338 -0.0209524 338.239 0.00223818ZM338.239 11.6153C339.202 11.6153 340.143 11.3297 340.944 10.7947C341.745 10.2598 342.369 9.49934 342.737 8.60969C343.106 7.72004 343.202 6.7411 343.014 5.79665C342.827 4.8522 342.363 3.98466 341.682 3.30375C341.001 2.62284 340.133 2.15913 339.189 1.97127C338.245 1.78341 337.266 1.87982 336.376 2.24833C335.486 2.61684 334.726 3.24088 334.191 4.04155C333.656 4.84221 333.37 5.78355 333.37 6.7465C333.365 7.38726 333.488 8.0226 333.731 8.61555C333.974 9.2085 334.332 9.74721 334.785 10.2003C335.238 10.6534 335.777 11.0118 336.37 11.2548C336.963 11.4977 337.598 11.6202 338.239 11.6153Z" fill="#3C3C3B"/>
<path d="M7.06184 56.3403L0 60.4043L4.06402 67.4661L11.1259 63.4021L7.06184 56.3403Z" fill="#E30613"/>
<path d="M372.206 56.3715L365.145 60.4355L369.209 67.4974L376.27 63.4334L372.206 56.3715Z" fill="#E30613"/>
</svg>
